<?xml version="1.0" encoding="utf-8"?>
<!-- Generator: Adobe Illustrator 19.0.1, SVG Export Plug-In . SVG Version: 6.00 Build 0)  -->
<svg version="1.1" id="Layer_1" xmlns="http://www.w3.org/2000/svg" xmlns:xlink="http://www.w3.org/1999/xlink" x="0px" y="0px"
	 viewBox="0 0 173 132.6" style="enable-background:new 0 0 173 132.6;" xml:space="preserve">
<style type="text/css">
	.st0{fill:#376350;}
	.st1{fill:#FFFFFF;}
</style>
<path class="st0" d="M163.7,103.1c9.4-12.4,10.9-29.2,7.9-46.3c-3.5-19.6-11.6-30.3-31-37.6C118.5,10.9,97.3,5.7,74.1,1.7
	C56.7-1.4,37.6-1,22,9C13.8,14.4,8.7,22.3,6.1,31.7C4.7,36.8,1.2,60,0.4,66.4c-2.3,21.1,4.3,33.8,24.9,39.8
	c21.4,6.3,41.9,8.8,64.2,9.9c17.4,0.9,38.9,3.4,56.5-1.9c8.5,7.3,22.1,18.7,23.7,18.2c2.4-0.8-5.8-29.5-5.8-29.5L163.7,103.1z"/>
<g>
	<path class="st1" d="M92.1,80.4H70.2l-6.1,13.4H44.2l36.4-71.4h24.6l6,71.4H92.6L92.1,80.4z M77.2,65.2h14.3l-0.8-20.7l-0.1-4.2
		c0-2.4,0.1-4.6,0.2-6.4c-0.8,2.8-1.8,5.5-3,8.1L77.2,65.2z"/>
</g>
</svg>
