<?xml version="1.0" encoding="utf-8"?>
<!-- Generator: Adobe Illustrator 19.0.1, SVG Export Plug-In . SVG Version: 6.00 Build 0)  -->
<svg version="1.1" id="Layer_1" xmlns="http://www.w3.org/2000/svg" xmlns:xlink="http://www.w3.org/1999/xlink" x="0px" y="0px"
	 viewBox="0 0 108.4 88.9" enable-background="new 0 0 108.4 88.9" xml:space="preserve">
<g>
	<path fill="#EEEEEE" d="M158.7,33.1c-4.3,0-7.7,1.8-10.1,5.3c-2.4,3.5-3.6,8.4-3.6,14.6c0,12.9,4.9,19.4,14.7,19.4
		c3,0,5.8-0.4,8.6-1.2c2.8-0.8,5.6-1.8,8.4-3v15.3c-5.6,2.5-11.9,3.7-19,3.7c-10.1,0-17.9-2.9-23.3-8.8c-5.4-5.9-8.1-14.4-8.1-25.5
		c0-6.9,1.3-13.1,3.9-18.3c2.6-5.3,6.4-9.3,11.3-12.1c4.9-2.8,10.7-4.2,17.3-4.2c7.3,0,14.2,1.6,20.8,4.7l-5.6,14.3
		c-2.5-1.2-5-2.1-7.4-2.9S161.5,33.1,158.7,33.1z"/>
	<path fill="#EEEEEE" d="M231,86.3l-3.3-12.6h-21.8l-3.4,12.6h-19.9l21.9-67.4h24.2l22.2,67.4H231z M223.9,58.8l-2.9-11
		c-0.7-2.4-1.5-5.6-2.5-9.5c-1-3.9-1.6-6.7-1.9-8.4c-0.3,1.6-0.8,4.1-1.6,7.7c-0.8,3.6-2.6,10.6-5.4,21.2H223.9z"/>
	<path fill="#EEEEEE" d="M315,51.3c0,11.2-3.1,19.8-9.2,25.9s-14.8,9.1-26,9.1h-21.7V19.2h23.2c10.8,0,19.1,2.8,24.9,8.3
		S315,40.9,315,51.3z M296.2,51.9c0-6.2-1.2-10.7-3.6-13.7c-2.4-3-6.1-4.5-11.1-4.5h-5.3v37.6h4c5.5,0,9.5-1.6,12.1-4.8
		C294.9,63.4,296.2,58.5,296.2,51.9z"/>
	<path fill="#CA0E14" d="M342.2,87.2c-3.7,0-6.9-1.1-9.7-3.2s-4.9-5.2-6.4-9.3c-1.5-4.1-2.3-8.9-2.3-14.4c0-8.4,1.7-15.1,5.1-19.8
		s8.1-7.2,14-7.2c2.9,0,5.5,0.6,7.6,1.7c2.2,1.2,4.2,3.1,6,5.9h0.4c-0.6-4.1-0.9-8.1-0.9-12.2V14.9h18.1v71.4h-13.5l-3.9-6.6H356
		C352.9,84.7,348.3,87.2,342.2,87.2z M349.5,73c2.9,0,4.9-0.9,6.1-2.7s1.8-4.6,1.9-8.4v-1.4c0-4.6-0.7-7.9-2-9.8
		c-1.3-1.9-3.4-2.9-6.2-2.9c-2.4,0-4.2,1.1-5.5,3.3c-1.3,2.2-2,5.4-2,9.5c0,4,0.7,7.1,2,9.2C345.2,72,347.1,73,349.5,73z"/>
	<path fill="#CA0E14" d="M411.6,87.2c-8.7,0-15.4-2.3-20.2-6.9c-4.8-4.6-7.2-11.2-7.2-19.7c0-8.8,2.2-15.5,6.7-20.2
		c4.4-4.7,10.8-7,19-7c7.8,0,13.9,2,18.2,6.1c4.3,4.1,6.4,10,6.4,17.6v8h-32.1c0.1,2.9,1.2,5.2,3.2,6.8c2,1.7,4.7,2.5,8.2,2.5
		c3.2,0,6.1-0.3,8.7-0.9c2.6-0.6,5.5-1.6,8.6-3.1v12.9c-2.8,1.4-5.7,2.4-8.7,3C419.3,86.9,415.7,87.2,411.6,87.2z M410.5,45.6
		c-2.1,0-3.9,0.7-5.3,2c-1.4,1.3-2.3,3.4-2.5,6.3h15.4c-0.1-2.5-0.8-4.5-2.1-6C414.6,46.3,412.8,45.6,410.5,45.6z"/>
	<path fill="#CA0E14" d="M470,73c2.4,0,5.3-0.6,8.7-1.8v13.1c-2.4,1-4.7,1.8-6.9,2.2c-2.2,0.4-4.8,0.7-7.7,0.7c-6,0-10.4-1.5-13-4.4
		c-2.7-3-4-7.5-4-13.6V47.7h-6.3v-7.3l8-5.6l4.6-10.9h11.8v10.4h12.8v13.4h-12.8V68C465.2,71.3,466.8,73,470,73z"/>
	<path fill="#CA0E14" d="M521.7,86.3l-3.4-6.9h-0.4c-2.4,3-4.9,5-7.4,6.2c-2.5,1.1-5.8,1.7-9.7,1.7c-4.9,0-8.8-1.5-11.6-4.4
		c-2.8-2.9-4.2-7.1-4.2-12.4c0-5.5,1.9-9.7,5.8-12.4s9.4-4.2,16.8-4.6l8.7-0.3v-0.7c0-4.3-2.1-6.4-6.3-6.4c-3.8,0-8.6,1.3-14.5,3.9
		L490.2,38c6.1-3.1,13.7-4.7,22.9-4.7c6.7,0,11.8,1.7,15.5,5s5.5,7.9,5.5,13.9v34.1H521.7z M508.4,74.5c2.2,0,4-0.7,5.6-2.1
		s2.3-3.2,2.3-5.4v-4l-4.1,0.2c-5.9,0.2-8.9,2.4-8.9,6.5C503.3,72.9,505,74.5,508.4,74.5z"/>
	<path fill="#CA0E14" d="M546,21.3c0-2.7,0.7-4.7,2.2-6c1.5-1.3,3.9-2,7.3-2c3.3,0,5.8,0.7,7.3,2c1.5,1.3,2.3,3.3,2.3,6
		c0,5.3-3.2,7.9-9.6,7.9C549.2,29.2,546,26.6,546,21.3z M564.4,86.3h-17.9v-52h17.9V86.3z"/>
	<path fill="#CA0E14" d="M594.9,86.3h-17.9V14.9h17.9V86.3z"/>
	<path fill="#CA0E14" d="M647.5,70.3c0,5.6-1.9,9.8-5.7,12.6c-3.8,2.8-9.2,4.3-16.3,4.3c-3.9,0-7.2-0.2-10.1-0.6s-5.8-1.2-8.7-2.3
		V69.9c2.8,1.2,5.8,2.2,9.2,3c3.3,0.8,6.3,1.2,8.9,1.2c3.9,0,5.8-0.9,5.8-2.7c0-0.9-0.5-1.7-1.6-2.5c-1.1-0.7-4.2-2.1-9.5-4.2
		c-4.8-2-8.1-4.2-10-6.7c-1.9-2.5-2.8-5.7-2.8-9.5c0-4.8,1.9-8.6,5.6-11.3c3.7-2.7,9-4,15.8-4c3.4,0,6.6,0.4,9.7,1.1
		c3,0.8,6.1,1.8,9.4,3.3l-4.9,11.6c-2.4-1.1-4.9-2-7.6-2.7c-2.7-0.7-4.8-1.1-6.5-1.1c-2.9,0-4.4,0.7-4.4,2.2c0,0.9,0.5,1.6,1.5,2.3
		c1,0.6,4,1.9,8.9,3.8c3.6,1.5,6.4,3,8.1,4.4c1.8,1.4,3.1,3.1,3.9,5.1C647.1,65.2,647.5,67.5,647.5,70.3z"/>
</g>
<rect x="2" y="2.2" fill="#CA0E14" width="51.8" height="40.4"/>
<rect x="56.6" y="2.2" fill="#CA0E14" width="51.8" height="40.4"/>
<rect x="2" y="46.3" fill="#CA0E14" width="51.8" height="40.4"/>
<rect x="56.6" y="46.3" fill="#CA0E14" width="51.8" height="40.4"/>
<g>
	<path fill="#EEEEEE" d="M32.5,70.7c-6.6-5.9-9.7-16-9.7-23.7c0-9.1,2.9-17.4,9.1-24c5.1-5.4,12.4-9.6,23.4-9.6
		c8.1,0,14.7,2,17.8,3.7c1.2,0.6,1.7,0.5,1.9-0.1l0.7-2.2c0.2-0.5,0.4-0.5,1.7-0.5c1.3,0,1.5,0.2,1.5,1.4c0,1.7,1.6,16.8,2,19.4
		c0.1,0.6,0,1.1-0.4,1.2l-2,0.5c-0.4,0.2-0.8-0.2-1.1-1c-1-3.5-3.4-8.1-7.1-11.9c-3.8-3.7-8.5-6.7-15.3-6.7
		c-12.9,0-18.4,11.8-18.4,24.9c0,5.6,1.6,16.5,7.9,23.1c5.8,5.9,10.8,6.6,13.8,6.6c10.1,0,17.6-4.6,20.9-9.5
		c0.4-0.7,0.9-1.1,1.3-0.7l1.5,1.3c0.3,0.2,0.4,0.5,0,1.1c-5.1,7.4-13.7,14.6-26.2,14.6C44.3,78.9,38.1,75.7,32.5,70.7z"/>
</g>
</svg>
