<?xml version="1.0" encoding="utf-8"?>
<!-- Generator: Adobe Illustrator 19.0.1, SVG Export Plug-In . SVG Version: 6.00 Build 0)  -->
<svg version="1.1" id="Layer_1" xmlns="http://www.w3.org/2000/svg" xmlns:xlink="http://www.w3.org/1999/xlink" x="0px" y="0px"
	 viewBox="0 0 630 76.5" enable-background="new 0 0 630 76.5" xml:space="preserve">
<g>
	<path d="M137.5,20.7c-4.3,0-7.7,1.8-10.1,5.3c-2.4,3.5-3.6,8.4-3.6,14.6c0,12.9,4.9,19.4,14.7,19.4c3,0,5.8-0.4,8.6-1.2
		c2.8-0.8,5.6-1.8,8.4-3v15.3c-5.6,2.5-11.9,3.7-19,3.7c-10.1,0-17.9-2.9-23.3-8.8c-5.4-5.9-8.1-14.4-8.1-25.5
		c0-6.9,1.3-13.1,3.9-18.3s6.4-9.3,11.3-12.1c4.9-2.8,10.7-4.2,17.3-4.2c7.3,0,14.2,1.6,20.8,4.7l-5.6,14.3c-2.5-1.2-5-2.1-7.4-2.9
		S140.3,20.7,137.5,20.7z"/>
	<path d="M209.8,73.9l-3.3-12.6h-21.8l-3.4,12.6h-19.9l21.9-67.4h24.2l22.2,67.4H209.8z M202.7,46.4l-2.9-11
		c-0.7-2.4-1.5-5.6-2.5-9.5c-1-3.9-1.6-6.7-1.9-8.4c-0.3,1.6-0.8,4.1-1.6,7.7c-0.8,3.6-2.6,10.6-5.4,21.2H202.7z"/>
	<path d="M293.8,38.9c0,11.2-3.1,19.8-9.2,25.9s-14.8,9.1-26,9.1h-21.7V6.8h23.2c10.8,0,19.1,2.8,24.9,8.3S293.8,28.5,293.8,38.9z
		 M275,39.5c0-6.2-1.2-10.7-3.6-13.7c-2.4-3-6.1-4.5-11.1-4.5H255V59h4c5.5,0,9.5-1.6,12.1-4.8C273.7,51,275,46.1,275,39.5z"/>
	<path fill="#CA0E14" d="M320.9,74.8c-3.7,0-6.9-1.1-9.7-3.2s-4.9-5.2-6.4-9.3c-1.5-4.1-2.3-8.9-2.3-14.4c0-8.4,1.7-15.1,5.1-19.8
		s8.1-7.2,14-7.2c2.9,0,5.5,0.6,7.6,1.7c2.2,1.2,4.2,3.1,6,5.9h0.4c-0.6-4.1-0.9-8.1-0.9-12.2V2.4h18.1v71.4h-13.5l-3.9-6.6h-0.7
		C331.6,72.3,327,74.8,320.9,74.8z M328.3,60.6c2.9,0,4.9-0.9,6.1-2.7s1.8-4.6,1.9-8.4v-1.4c0-4.6-0.7-7.9-2-9.8
		c-1.3-1.9-3.4-2.9-6.2-2.9c-2.4,0-4.2,1.1-5.5,3.3c-1.3,2.2-2,5.4-2,9.5c0,4,0.7,7.1,2,9.2C323.9,59.5,325.8,60.6,328.3,60.6z"/>
	<path fill="#CA0E14" d="M390.3,74.8c-8.7,0-15.4-2.3-20.2-6.9c-4.8-4.6-7.2-11.2-7.2-19.7c0-8.8,2.2-15.5,6.7-20.2
		c4.4-4.7,10.8-7,19-7c7.8,0,13.9,2,18.2,6.1c4.3,4.1,6.4,10,6.4,17.6v8h-32.1c0.1,2.9,1.2,5.2,3.2,6.8c2,1.7,4.7,2.5,8.2,2.5
		c3.2,0,6.1-0.3,8.7-0.9c2.6-0.6,5.5-1.6,8.6-3.1V71c-2.8,1.4-5.7,2.4-8.7,3C398.1,74.5,394.5,74.8,390.3,74.8z M389.3,33.1
		c-2.1,0-3.9,0.7-5.3,2c-1.4,1.3-2.3,3.4-2.5,6.3h15.4c-0.1-2.5-0.8-4.5-2.1-6C393.4,33.9,391.6,33.1,389.3,33.1z"/>
	<path fill="#CA0E14" d="M448.8,60.6c2.4,0,5.3-0.6,8.7-1.8v13.1c-2.4,1-4.7,1.8-6.9,2.2c-2.2,0.4-4.8,0.7-7.7,0.7
		c-6,0-10.4-1.5-13-4.4c-2.7-3-4-7.5-4-13.6V35.3h-6.3V28l8-5.6l4.6-10.9h11.8v10.4h12.8v13.4h-12.8v20.2
		C443.9,58.9,445.6,60.6,448.8,60.6z"/>
	<path fill="#CA0E14" d="M500.5,73.9L497,67h-0.4c-2.4,3-4.9,5-7.4,6.2c-2.5,1.1-5.8,1.7-9.7,1.7c-4.9,0-8.8-1.5-11.6-4.4
		c-2.8-2.9-4.2-7.1-4.2-12.4c0-5.5,1.9-9.7,5.8-12.4s9.4-4.2,16.8-4.6l8.7-0.3V40c0-4.3-2.1-6.4-6.3-6.4c-3.8,0-8.6,1.3-14.5,3.9
		L469,25.6c6.1-3.1,13.7-4.7,22.9-4.7c6.7,0,11.8,1.7,15.5,5s5.5,7.9,5.5,13.9v34.1H500.5z M487.2,62.1c2.2,0,4-0.7,5.6-2.1
		s2.3-3.2,2.3-5.4v-4l-4.1,0.2c-5.9,0.2-8.9,2.4-8.9,6.5C482.1,60.5,483.8,62.1,487.2,62.1z"/>
	<path fill="#CA0E14" d="M524.8,8.9c0-2.7,0.7-4.7,2.2-6c1.5-1.3,3.9-2,7.3-2c3.3,0,5.8,0.7,7.3,2c1.5,1.3,2.3,3.3,2.3,6
		c0,5.3-3.2,7.9-9.6,7.9C527.9,16.8,524.8,14.2,524.8,8.9z M543.2,73.9h-17.9v-52h17.9V73.9z"/>
	<path fill="#CA0E14" d="M573.6,73.9h-17.9V2.4h17.9V73.9z"/>
	<path fill="#CA0E14" d="M626.2,57.9c0,5.6-1.9,9.8-5.7,12.6c-3.8,2.8-9.2,4.3-16.3,4.3c-3.9,0-7.2-0.2-10.1-0.6s-5.8-1.2-8.7-2.3
		V57.5c2.8,1.2,5.8,2.2,9.2,3c3.3,0.8,6.3,1.2,8.9,1.2c3.9,0,5.8-0.9,5.8-2.7c0-0.9-0.5-1.7-1.6-2.5c-1.1-0.7-4.2-2.1-9.5-4.2
		c-4.8-2-8.1-4.2-10-6.7c-1.9-2.5-2.8-5.7-2.8-9.5c0-4.8,1.9-8.6,5.6-11.3c3.7-2.7,9-4,15.8-4c3.4,0,6.6,0.4,9.7,1.1
		c3,0.8,6.1,1.8,9.4,3.3L621,36.9c-2.4-1.1-4.9-2-7.6-2.7c-2.7-0.7-4.8-1.1-6.5-1.1c-2.9,0-4.4,0.7-4.4,2.2c0,0.9,0.5,1.6,1.5,2.3
		c1,0.6,4,1.9,8.9,3.8c3.6,1.5,6.4,3,8.1,4.4c1.8,1.4,3.1,3.1,3.9,5.1C625.8,52.7,626.2,55.1,626.2,57.9z"/>
</g>
<rect y="3.1" fill="#CA0E14" width="43.7" height="34.1"/>
<rect x="46" y="3.1" fill="#CA0E14" width="43.7" height="34.1"/>
<rect y="40.2" fill="#CA0E14" width="43.7" height="34.1"/>
<rect x="46" y="40.2" fill="#CA0E14" width="43.7" height="34.1"/>
<g>
	<path fill="#FFFFFF" d="M25.7,60.9c-5.5-4.9-8.2-13.5-8.2-20c0-7.7,2.5-14.7,7.7-20.3c4.3-4.6,10.5-8.1,19.7-8.1
		c6.8,0,12.4,1.7,15,3.1c1,0.5,1.4,0.4,1.6-0.1l0.6-1.9c0.1-0.4,0.3-0.4,1.4-0.4c1.1,0,1.3,0.1,1.3,1.2c0,1.4,1.3,14.1,1.7,16.4
		c0.1,0.5,0,0.9-0.4,1l-1.6,0.4c-0.4,0.1-0.7-0.2-0.9-0.8c-0.8-3-2.8-6.8-6-10c-3.2-3.1-7.2-5.6-12.9-5.6c-10.9,0-15.6,9.9-15.5,21
		c0,4.7,1.3,13.9,6.7,19.5c4.9,5,9.1,5.6,11.7,5.6c8.5,0,14.9-3.9,17.6-8c0.4-0.6,0.7-0.9,1.1-0.6l1.3,1.1c0.2,0.2,0.3,0.4,0,0.9
		c-4.3,6.3-11.6,12.3-22.1,12.3C35.7,67.8,30.4,65.1,25.7,60.9z"/>
</g>
</svg>
