<?xml version="1.0" encoding="utf-8"?>
<!-- Generator: Adobe Illustrator 19.0.1, SVG Export Plug-In . SVG Version: 6.00 Build 0)  -->
<svg version="1.1" xmlns="http://www.w3.org/2000/svg" xmlns:xlink="http://www.w3.org/1999/xlink" x="0px" y="0px"
	 viewBox="0 0 98.3 102.4" style="enable-background:new 0 0 98.3 102.4;" xml:space="preserve">
<style type="text/css">
	.st0{fill-rule:evenodd;clip-rule:evenodd;fill:#2A493B;}
	.st1{fill-rule:evenodd;clip-rule:evenodd;fill:#FFFFFF;}
	.st2{fill:#2A493B;}
</style>
<g id="Layer_1">
</g>
<g id="Background">
</g>
<g id="Objects">
	<g>
		<path class="st0" d="M4.3,79.5L6.3,5c0-0.2,0.2-0.4,0.4-0.4l56.5-1.1c0.1,0,0.2,0,0.3,0.1l34.6,34.6c0.1,0.1,0.1,0.2,0.1,0.3
			c-0.6,35.4-29.5,63.9-65,63.9c-2.2,0-4.5-0.1-6.6-0.3c-0.1,0-0.2-0.1-0.3-0.1l-22-22.1C4.3,79.7,4.3,79.6,4.3,79.5z"/>
		<g>
			<polygon class="st1" points="0,0 66.7,0 66.7,82.2 0,82.2 0,0 			"/>
			<path class="st0" d="M10.8,9h45.2c1.5,0,2.6,1.2,2.6,2.6v10.1c0,1.5-1.2,2.6-2.6,2.6H10.8c-1.5,0-2.6-1.2-2.6-2.6V11.6
				C8.1,10.2,9.3,9,10.8,9z"/>
			<g>
				<path class="st2" d="M51.1,72.7L51.1,72.7c0.3,0,0.6-0.1,0.7-0.4c0.2-0.3,0.3-1,0.3-2c0-1-0.1-1.7-0.3-2
					c-0.2-0.3-0.4-0.4-0.7-0.4h0v-1.6h0c1,0,1.9,0.3,2.5,1c0.6,0.7,0.9,1.7,0.9,3c0,1.4-0.3,2.4-0.9,3c-0.6,0.7-1.4,1-2.4,1l-0.1,0
					V72.7L51.1,72.7z M51.1,58.2L51.1,58.2L51.1,58.2L51.1,58.2z M50.1,70.3c0,1,0.1,1.7,0.3,2c0.2,0.3,0.4,0.4,0.7,0.4v1.7
					c-1,0-1.8-0.3-2.4-1c-0.6-0.7-0.9-1.7-0.9-3c0-1.4,0.3-2.4,0.9-3c0.6-0.7,1.4-1,2.4-1v1.6c-0.3,0-0.6,0.1-0.7,0.4
					C50.2,68.6,50.1,69.3,50.1,70.3L50.1,70.3z M51.1,58.2h-2.8l-7.6,15.1v1h2.4L51.1,58.2L51.1,58.2L51.1,58.2z M40.7,66.3v-1.8
					c0.1-0.1,0.1-0.1,0.2-0.2c0.2-0.3,0.3-1,0.3-2c0-1-0.1-1.7-0.3-2c0-0.1-0.1-0.1-0.2-0.2v-1.8c0.8,0.1,1.4,0.4,1.9,0.9
					c0.6,0.7,0.9,1.7,0.9,3c0,1.4-0.3,2.4-0.9,3C42.1,65.8,41.5,66.2,40.7,66.3z M40.7,58.3v1.8c-0.2-0.1-0.3-0.2-0.6-0.2
					c-0.3,0-0.5,0.1-0.7,0.4c-0.2,0.3-0.3,1-0.3,2c0,1,0.1,1.7,0.3,2c0.2,0.3,0.4,0.4,0.7,0.4c0.2,0,0.4-0.1,0.6-0.2v1.8
					c-0.2,0-0.3,0-0.5,0c-1.1,0-1.9-0.3-2.5-1c-0.6-0.7-0.9-1.7-0.9-3c0-1.4,0.3-2.4,0.9-3c0.6-0.7,1.4-1,2.4-1
					C40.3,58.2,40.5,58.2,40.7,58.3L40.7,58.3z M40.7,73.3v1h-0.5L40.7,73.3z"/>
				<polygon class="st2" points="11.7,73.9 17,66.3 11.9,59.2 16.7,59.2 19.3,63.2 22,59.2 26.6,59.2 21.6,66.2 27,73.9 22.2,73.9 
					19.3,69.4 16.2,73.9 				"/>
				<rect x="38.4" y="38.4" class="st2" width="14.4" height="4.1"/>
				<polygon class="st2" points="17.5,48 17.5,42.4 11.8,42.4 11.8,38.5 17.5,38.5 17.5,32.9 21.2,32.9 21.2,38.5 26.9,38.5 
					26.9,42.4 21.2,42.4 21.2,48 				"/>
			</g>
		</g>
	</g>
</g>
</svg>
