<?xml version="1.0" encoding="utf-8"?>
<!-- Generator: Adobe Illustrator 19.0.1, SVG Export Plug-In . SVG Version: 6.00 Build 0)  -->
<svg version="1.1" xmlns="http://www.w3.org/2000/svg" xmlns:xlink="http://www.w3.org/1999/xlink" x="0px" y="0px"
	 viewBox="0 0 130 129.9" style="enable-background:new 0 0 130 129.9;" xml:space="preserve">
<style type="text/css">
	.st0{fill-rule:evenodd;clip-rule:evenodd;fill:#FFFFFF;}
	.st1{fill-rule:evenodd;clip-rule:evenodd;fill:#376350;}
	.st2{fill-rule:evenodd;clip-rule:evenodd;fill:#2A493B;}
	.st3{fill:#2A493B;}
</style>
<g id="Layer_1">
</g>
<g id="Background">
	<line class="st0" x1="-72.7" y1="-417.1" x2="-72.7" y2="382.8"/>
</g>
<g id="Objects">
	<g>
		<circle class="st1" cx="65" cy="64.9" r="65"/>
		<path class="st2" d="M35.9,107.2l2-75.1L95.1,31L130,65.8c-0.5,35.5-29.4,64-65,64c-2.3,0-4.6-0.1-6.8-0.4L35.9,107.2z"/>
		<g>
			<path class="st0" d="M43.1,27.5h43.9c6.3,0,11.4,5.1,11.4,11.4v59.4c0,6.3-5.1,11.4-11.4,11.4H43.1c-6.3,0-11.4-5.1-11.4-11.4
				V38.9C31.6,32.6,36.8,27.5,43.1,27.5z"/>
			<path class="st2" d="M42.4,36.5h45.2c1.5,0,2.6,1.2,2.6,2.6v10.1c0,1.5-1.2,2.6-2.6,2.6H42.4c-1.5,0-2.6-1.2-2.6-2.6V39.1
				C39.8,37.7,41,36.5,42.4,36.5z"/>
			<g>
				<path class="st3" d="M82.8,100.2L82.8,100.2c0.3,0,0.6-0.1,0.7-0.4c0.2-0.3,0.3-1,0.3-2c0-1-0.1-1.7-0.3-2
					c-0.2-0.3-0.4-0.4-0.7-0.4h0v-1.6h0c1,0,1.9,0.3,2.5,1c0.6,0.7,0.9,1.7,0.9,3c0,1.4-0.3,2.4-0.9,3c-0.6,0.7-1.4,1-2.4,1l-0.1,0
					V100.2L82.8,100.2z M82.8,85.7L82.8,85.7L82.8,85.7L82.8,85.7z M81.7,97.8c0,1,0.1,1.7,0.3,2c0.2,0.3,0.4,0.4,0.7,0.4v1.7
					c-1,0-1.8-0.3-2.4-1c-0.6-0.7-0.9-1.7-0.9-3c0-1.4,0.3-2.4,0.9-3c0.6-0.7,1.4-1,2.4-1v1.6c-0.3,0-0.6,0.1-0.7,0.4
					C81.8,96.2,81.7,96.8,81.7,97.8L81.7,97.8z M82.8,85.7H80l-7.6,15.1v1h2.4L82.8,85.7L82.8,85.7L82.8,85.7z M72.4,93.8v-1.8
					c0.1-0.1,0.1-0.1,0.2-0.2c0.2-0.3,0.3-1,0.3-2c0-1-0.1-1.7-0.3-2c0-0.1-0.1-0.1-0.2-0.2v-1.8c0.8,0.1,1.4,0.4,1.9,0.9
					c0.6,0.7,0.9,1.7,0.9,3c0,1.4-0.3,2.4-0.9,3C73.8,93.3,73.1,93.7,72.4,93.8z M72.4,85.8v1.8c-0.2-0.1-0.3-0.2-0.6-0.2
					c-0.3,0-0.5,0.1-0.7,0.4c-0.2,0.3-0.3,1-0.3,2c0,1,0.1,1.7,0.3,2c0.2,0.3,0.4,0.4,0.7,0.4c0.2,0,0.4-0.1,0.6-0.2v1.8
					c-0.2,0-0.3,0-0.5,0c-1.1,0-1.9-0.3-2.5-1c-0.6-0.7-0.9-1.7-0.9-3c0-1.4,0.3-2.4,0.9-3c0.6-0.7,1.4-1,2.4-1
					C72,85.7,72.2,85.8,72.4,85.8L72.4,85.8z M72.4,100.8v1h-0.5L72.4,100.8z"/>
				<polygon class="st3" points="43.3,101.4 48.6,93.8 43.5,86.7 48.3,86.7 50.9,90.8 53.6,86.7 58.2,86.7 53.2,93.7 58.7,101.4 
					53.9,101.4 50.9,96.9 47.9,101.4 				"/>
				<rect x="70.1" y="65.9" class="st3" width="14.4" height="4.1"/>
				<polygon class="st3" points="49.1,75.5 49.1,69.9 43.5,69.9 43.5,66.1 49.1,66.1 49.1,60.4 52.9,60.4 52.9,66.1 58.5,66.1 
					58.5,69.9 52.9,69.9 52.9,75.5 				"/>
			</g>
		</g>
	</g>
</g>
</svg>
