<?xml version="1.0" encoding="utf-8"?>
<!-- Generator: Adobe Illustrator 19.0.1, SVG Export Plug-In . SVG Version: 6.00 Build 0)  -->
<svg version="1.1" xmlns="http://www.w3.org/2000/svg" xmlns:xlink="http://www.w3.org/1999/xlink" x="0px" y="0px"
	 viewBox="0 0 522 522.1" style="enable-background:new 0 0 522 522.1;" xml:space="preserve">
<style type="text/css">
	.st0{fill:#376350;}
	.st1{opacity:0.3;fill:#376350;}
	.st2{fill:#4C876C;}
	.st3{fill:#EEEEEE;}
	.st4{fill:#FFFFFF;}
</style>
<g id="background">
</g>
<g id="objects">
	<g>
		<rect class="st0" width="522" height="522"/>
		<g>
			<g>
				<polygon class="st1" points="438,84 521.8,166.5 522,522 166.9,522.1 84,438 434,84 				"/>
				<g>
					<rect x="87" y="87" class="st2" width="348" height="348"/>
					<path class="st3" d="M432,90v342H90V90H432 M438,84H84v354h354V84L438,84z"/>
				</g>
			</g>
			<g>
				<g>
					<path class="st4" d="M147.7,204.9c-2.4,0-4.6,0.9-6.5,2.6c-1.9,1.7-3.4,4.1-4.5,7.2c-1.1,3-1.6,6.3-1.6,9.9
						c0,3,0.6,5.2,1.9,6.7c1.2,1.5,3,2.2,5.4,2.2c1.8,0,3.7-0.2,5.6-0.7c1.9-0.5,4.1-1.2,6.7-2.3v10.7c-4.5,2-9.4,3-14.6,3
						c-5.8,0-10.2-1.6-13.3-4.9c-3.1-3.3-4.7-8-4.7-14c0-5.9,1.1-11.3,3.4-16.2c2.3-4.9,5.3-8.6,9.2-11.1c3.9-2.5,8.3-3.8,13.3-3.8
						c5.9,0,11.2,1.5,16,4.4l-4.9,10.1c-2.1-1.2-4-2.1-5.7-2.7S149.6,204.9,147.7,204.9z"/>
					<path class="st4" d="M191.2,194.1c5.8,0,10.3,1.6,13.5,4.9c3.2,3.3,4.8,7.9,4.8,13.8c0,5.9-1.1,11.3-3.3,16.2
						c-2.2,4.9-5.3,8.6-9.1,11.2c-3.9,2.6-8.4,3.9-13.5,3.9c-6,0-10.6-1.7-13.8-5c-3.2-3.3-4.9-7.9-4.9-13.8s1.1-11.3,3.4-16.2
						c2.3-4.9,5.4-8.7,9.3-11.3C181.5,195.4,186,194.1,191.2,194.1z M196.3,213c0-2.5-0.5-4.5-1.6-5.9c-1.1-1.4-2.6-2.1-4.6-2.1
						c-2.2,0-4.2,0.9-6.1,2.8c-1.8,1.9-3.3,4.4-4.4,7.7c-1.1,3.3-1.6,6.6-1.6,10c0,5.4,2.2,8.1,6.7,8.1c2.1,0,4.1-0.9,5.9-2.8
						c1.8-1.8,3.2-4.3,4.3-7.5S196.3,216.7,196.3,213z"/>
					<path class="st4" d="M231.1,243.5v-34.9h-0.3c-1.5,9.2-2.4,14.9-2.9,17l-3.8,17.9h-11.6l10.3-48.6h17.2v34.5h0.3l15.9-34.5
						h17.5l-10.4,48.6h-11.7l3.9-18.3c1.1-5.1,2.3-9.9,3.6-14.5l0.5-2.1h-0.3l-16,34.9H231.1z"/>
					<path class="st4" d="M274.5,243.5l10.3-48.6H298l-10.3,48.6H274.5z"/>
					<path class="st4" d="M341.6,243.5h-15.1l-9.6-34.2h-0.3c-0.6,6.5-1.3,11.1-1.9,13.9l-4.3,20.3h-11.6l10.3-48.6h15.1l9.5,32.7
						h0.3c0.6-5.2,1.3-9.3,1.9-12.3l4.4-20.4h11.6L341.6,243.5z"/>
					<path class="st4" d="M375.8,215h20.3l-5.6,26.4c-5.5,1.8-11.3,2.7-17.3,2.7c-5.8,0-10.3-1.7-13.5-5.1
						c-3.2-3.4-4.8-8.2-4.8-14.3c0-5.9,1.2-11.3,3.7-16c2.4-4.8,5.8-8.4,10-10.9c4.2-2.5,9.2-3.7,14.8-3.7c5.9,0,10.9,1.2,14.9,3.6
						l-4.9,10.3c-3.4-2-6.8-3-10.2-3c-2.9,0-5.5,0.8-7.8,2.4s-4,4-5.4,7.1c-1.3,3.1-2,6.5-2,10.1c0,5.9,2.3,8.8,7,8.8
						c1.4,0,2.9-0.2,4.4-0.5l1.7-7.7h-7.6L375.8,215z"/>
					<path class="st4" d="M195.5,310.3c0,4.9-1.6,8.8-4.9,11.5c-3.3,2.7-7.8,4.1-13.6,4.1c-2.4,0-4.7-0.3-6.9-0.8
						c-2.2-0.5-4-1.3-5.6-2.4v-11.6c1.9,1.2,4,2.2,6.4,3c2.4,0.8,4.6,1.2,6.5,1.2c1.6,0,2.9-0.3,3.7-1s1.3-1.7,1.3-2.9
						c0-0.6-0.1-1.2-0.4-1.7c-0.3-0.5-0.6-1-1.1-1.6c-0.5-0.5-1.8-1.7-3.9-3.4c-2.6-2.1-4.5-4.2-5.7-6.4c-1.2-2.2-1.8-4.6-1.8-7.2
						c0-2.9,0.7-5.5,2.2-7.8c1.5-2.3,3.5-4.1,6.2-5.4c2.6-1.3,5.6-1.9,8.9-1.9c5.3,0,10.1,1.2,14.3,3.6l-4.5,9.9
						c-3.8-2-7-2.9-9.7-2.9c-1.4,0-2.5,0.3-3.3,0.9c-0.8,0.6-1.1,1.5-1.1,2.7c0,1.1,0.4,2.1,1.1,3c0.7,0.9,2.2,2.2,4.2,3.8
						c2.6,1.9,4.6,4,5.8,6.1C194.8,305.1,195.5,307.6,195.5,310.3z"/>
					<path class="st4" d="M230.1,275.9c5.8,0,10.3,1.6,13.5,4.9c3.2,3.3,4.8,7.9,4.8,13.8c0,5.9-1.1,11.3-3.3,16.2
						c-2.2,4.9-5.3,8.6-9.1,11.2c-3.9,2.6-8.4,3.9-13.5,3.9c-6,0-10.6-1.7-13.8-5s-4.9-7.9-4.9-13.8s1.1-11.3,3.4-16.2
						c2.3-4.9,5.4-8.7,9.3-11.3C220.5,277.1,225,275.9,230.1,275.9z M235.3,294.7c0-2.5-0.5-4.5-1.6-5.9s-2.6-2.1-4.6-2.1
						c-2.2,0-4.2,0.9-6.1,2.8s-3.3,4.4-4.4,7.7s-1.6,6.6-1.6,10c0,5.4,2.2,8,6.7,8c2.1,0,4.1-0.9,5.9-2.8s3.2-4.3,4.3-7.5
						S235.3,298.4,235.3,294.7z"/>
					<path class="st4" d="M280.3,275.9c5.8,0,10.3,1.6,13.5,4.9c3.2,3.3,4.8,7.9,4.8,13.8c0,5.9-1.1,11.3-3.3,16.2
						c-2.2,4.9-5.3,8.6-9.1,11.2c-3.9,2.6-8.4,3.9-13.5,3.9c-6,0-10.6-1.7-13.8-5c-3.2-3.3-4.9-7.9-4.9-13.8s1.1-11.3,3.4-16.2
						c2.3-4.9,5.4-8.7,9.3-11.3C270.7,277.1,275.2,275.9,280.3,275.9z M285.5,294.7c0-2.5-0.5-4.5-1.6-5.9s-2.6-2.1-4.6-2.1
						c-2.2,0-4.2,0.9-6.1,2.8s-3.3,4.4-4.4,7.7s-1.6,6.6-1.6,10c0,5.4,2.2,8,6.7,8c2.1,0,4.1-0.9,5.9-2.8s3.2-4.3,4.3-7.5
						S285.5,298.4,285.5,294.7z"/>
					<path class="st4" d="M344.6,325.3h-15.1l-9.6-34.2h-0.3c-0.6,6.5-1.3,11.1-1.9,13.9l-4.3,20.3h-11.6l10.3-48.6h15.1l9.5,32.7
						h0.3c0.6-5.2,1.3-9.3,1.9-12.3l4.4-20.4h11.6L344.6,325.3z"/>
				</g>
			</g>
		</g>
	</g>
</g>
</svg>
