<?xml version="1.0" encoding="utf-8"?>
<!-- Generator: Adobe Illustrator 19.0.1, SVG Export Plug-In . SVG Version: 6.00 Build 0)  -->
<svg version="1.1" id="Layer_1" xmlns="http://www.w3.org/2000/svg" xmlns:xlink="http://www.w3.org/1999/xlink" x="0px" y="0px"
	 viewBox="0 0 609.9 233.2" style="enable-background:new 0 0 609.9 233.2;" xml:space="preserve">
<style type="text/css">
	.st0{fill:#312B2E;}
	.st1{fill-rule:evenodd;clip-rule:evenodd;fill:#312B2E;}
	.st2{fill-rule:evenodd;clip-rule:evenodd;fill:#5D827B;}
	.st3{opacity:0.1;fill-rule:evenodd;clip-rule:evenodd;}
	.st4{fill:#FFFFFF;}
	.st5{fill:#5896CC;}
	.st6{fill:#428465;}
	.st7{fill-rule:evenodd;clip-rule:evenodd;fill:#FFFFFF;}
	.st8{fill-rule:evenodd;clip-rule:evenodd;fill:#428465;}
	.st9{fill-rule:evenodd;clip-rule:evenodd;fill:#FFF8ED;}
	.st10{fill:#F2F5F4;}
	.st11{fill-rule:evenodd;clip-rule:evenodd;fill:#F2F5F4;}
</style>
<path class="st0" d="M311.6,20.3c3,0,6,0.2,9,0.5l4.1-13.4l28.2,8.6l-4.1,13.4c10.2,5.3,19,12.6,25.9,21.3l12.3-6.6l13.9,26
	l-12.3,6.6c3.4,10.6,4.5,21.9,3.3,33.3l13.4,4.1l-8.6,28.2l-13.4-4.1c-5.3,10.2-12.6,19-21.3,25.9l6.6,12.3l-26,13.9l-6.6-12.3
	c-7.8,2.5-16,3.8-24.3,3.8V166c27.9,0,53.7-18.1,62.2-46.1c10.4-34.4-8.9-70.7-43.3-81.1c-6.3-1.9-12.7-2.8-18.9-2.8V20.3z
	 M261.3,37.9l-6.6-12.3l26-13.9l6.6,12.3c7.8-2.5,16-3.8,24.3-3.8v15.6c-27.9,0-53.7,18.1-62.2,46.1c-10.4,34.4,8.9,70.7,43.3,81.1
	l0,0c6.3,1.9,12.7,2.8,18.9,2.8v15.6c-3,0-6-0.2-9-0.5l-4.1,13.4l-28.2-8.6l4.1-13.4c-10.2-5.3-19-12.6-25.9-21.3l-12.3,6.6
	l-13.9-26l12.3-6.6c-3.4-10.6-4.5-21.9-3.3-33.3l-13.4-4.1l8.6-28.2l13.4,4.1C245.3,53.6,252.6,44.8,261.3,37.9z"/>
<g>
	<path class="st1" d="M509.7,166.2l11.7,9c1.6,1.2,10.5,5.6,11.8,4.1c1.4-1.5-4.2-7.4-5.9-8.6l-9.2-6.3
		C512.9,160.9,508.4,165.2,509.7,166.2z"/>
	<path class="st1" d="M504.2,140.4l11.8,13.8c-0.3-3,3.9-4.8,6.3-2.6c-0.8-3.1,3.1-5.1,5.7-3.5c-0.2-3,4.1-4.6,6.3-2l10.1,11.6
		c14.9,17.2-8.5,29.4-17.3,19.5l-28.5-32.1C495.1,141.1,501.3,137,504.2,140.4z"/>
	<path class="st2" d="M531.8,152c0,0-2-2.3-3.7-4.4c0,0.2,0,0.3,0,0.5c-0.2-0.1-0.5-0.3-0.7-0.3C529.3,149.7,531.8,152,531.8,152
		L531.8,152z M521.2,159.7L521.2,159.7L521.2,159.7L521.2,159.7L521.2,159.7z M521.2,150.9L521.2,150.9c0.4,0.2,0.8,0.4,1.1,0.7
		c-0.1-0.2-0.1-0.4-0.1-0.6c2,2.3,4.4,5.1,4.4,5.1S523.3,152.9,521.2,150.9z M521.2,150.9L521.2,150.9L521.2,150.9L521.2,150.9
		L521.2,150.9z M521.2,159.7L521.2,159.7c-0.2-0.2-3.7-3.9-5.2-5.5c0,0,0,0,0-0.1c0-0.3,0-0.5,0-0.8
		C518,155.6,521.1,159.5,521.2,159.7z"/>
</g>
<path class="st0" d="M67.2,69.3c2.1,0,4.3,0.1,6.4,0.4l2.9-9.6l20.2,6.2l-2.9,9.6c7.3,3.8,13.6,9,18.6,15.3l8.8-4.7l10,18.7
	l-8.8,4.7c2.4,7.6,3.3,15.7,2.3,23.9l9.6,2.9l-6.2,20.2l-9.6-2.9c-3.8,7.3-9,13.6-15.3,18.6l4.7,8.8l-18.7,10l-4.7-8.8
	c-5.6,1.8-11.5,2.7-17.5,2.7V174c20,0,38.6-13,44.7-33.1c7.5-24.7-6.4-50.8-31.1-58.3c-4.5-1.4-9.1-2-13.6-2V69.3z M31,82l-4.7-8.8
	l18.7-10l4.7,8.8c5.6-1.8,11.5-2.7,17.5-2.7v11.2c-20,0-38.6,13-44.7,33.1c-7.5,24.7,6.4,50.8,31.1,58.3l0,0c4.5,1.4,9.1,2,13.6,2
	v11.2c-2.1,0-4.3-0.1-6.5-0.4l-2.9,9.6l-20.2-6.2l2.9-9.6c-7.3-3.8-13.6-9-18.6-15.3l-8.9,4.7l-10-18.7l8.8-4.7
	c-2.4-7.6-3.3-15.7-2.3-23.9L0,117.9l6.2-20.2l9.6,2.9C19.6,93.2,24.8,86.9,31,82z"/>
<path class="st0" d="M498.3,8.8c2,0,4.1,0.1,6.2,0.3l2.8-9.2l19.3,5.9l-2.8,9.2c7,3.6,13,8.6,17.7,14.6l8.4-4.5l9.5,17.8l-8.4,4.5
	c2.3,7.2,3.1,15,2.2,22.8l9.2,2.8l-5.9,19.3l-9.2-2.8c-3.6,7-8.6,13-14.6,17.7l4.5,8.4l-17.8,9.5l-4.5-8.4c-5.3,1.7-11,2.6-16.7,2.6
	v-10.7c19.1,0,36.8-12.4,42.6-31.6c7.2-23.5-6.1-48.4-29.7-55.6c-4.3-1.3-8.7-1.9-13-1.9V8.8z M463.8,20.9l-4.5-8.4L477.1,3l4.5,8.4
	c5.3-1.7,11-2.6,16.7-2.6v10.7c-19.1,0-36.8,12.4-42.6,31.6c-7.2,23.5,6.1,48.4,29.7,55.6l0,0c4.3,1.3,8.7,1.9,13,1.9v10.7
	c-2,0-4.1-0.1-6.2-0.3l-2.8,9.2l-19.3-5.9l2.8-9.2c-7-3.6-13-8.6-17.7-14.6l-8.4,4.5l-9.5-17.8l8.4-4.5c-2.3-7.2-3.1-15-2.2-22.8
	l-9.2-2.8l5.9-19.3l9.2,2.8C452.9,31.6,457.9,25.6,463.8,20.9z"/>
<path class="st3" d="M609.9,209.1L419.1,18.3l-4.7,56.8l-97.2,6.6l78.7,78.7l-5.5,1.9h-19.6c-28.1-28.2-55.9-56-85.8-85.9l-12.8-7.8
	L249,70.1l-7.5,15l-63.9-63.9l-26.9,95.3l1.6,1.6l-17,21.1L75.9,79.7l-14,2.1l-33.5,45.1l106.4,106.4"/>
<g>
	<path class="st4" d="M284,75.7c-5-7.2-13-11-21.2-11v4.8c6.6,0,13.2,3.1,17.2,9c6.7,9.5,4.4,22.7-5.1,29.3
		c-3.7,2.6-7.9,3.8-12.1,3.8v4.8c5.1,0,10.3-1.5,14.9-4.7C289.4,103.5,292.2,87.4,284,75.7z M262.8,64.6c-5.1,0-10.3,1.5-14.9,4.7
		c-11.7,8.2-14.5,24.4-6.3,36.1c5,7.2,13,11,21.2,11v-4.8c-6.6,0-13.2-3.1-17.2-9l0,0c-6.7-9.5-4.4-22.7,5.2-29.3
		c3.7-2.6,7.9-3.8,12.1-3.8V64.6z"/>
	
		<rect x="230.1" y="98.4" transform="matrix(0.574 0.8189 -0.8189 0.574 190.4551 -143.9964)" class="st4" width="7" height="25.2"/>
	
		<rect x="227.2" y="104.3" transform="matrix(0.5739 0.8189 -0.8189 0.5739 190.8282 -141.0397)" class="st5" width="7.5" height="17.1"/>
	<path class="st6" d="M216.8,130.1c-2.7,1.9-6.4,1.2-8.3-1.5c-1.9-2.7-1.2-6.4,1.5-8.3l20.7-14.6c1.5-1.1,3.4-1.3,5.1-0.8l4.3,6.1
		c-0.1,1.7-1,3.4-2.5,4.5L216.8,130.1z"/>
</g>
<g>
	<g>
		<path class="st7" d="M116.2,132.1c-6.3,4.1-1.4,19-4.2,42l34.3,11.4H162l41.2-10.6c-3.6-23.1-4.7-38.8-11.1-42.8
			c-17.3-10.9-27.8-13.5-38-13.6C143.7,118.3,133.4,120.9,116.2,132.1z"/>
		<path class="st8" d="M116.3,132.1c-15.3,10-19.2,32.2-20.1,53.4h50l-15.4-61.7C126.5,125.9,121.8,128.5,116.3,132.1L116.3,132.1z
			 M212.3,185.5c-0.8-21.3-4.7-43.8-20.1-53.4c-5.9-3.7-10.7-6.2-15.3-8.2l-15,61.7H212.3z"/>
		<path class="st9" d="M139.8,80.3h28.7v41.5c0,14-28.7,15.6-28.7,0V80.3z"/>
		<path class="st8" d="M150.8,143.8l-1.3,41.8h9.6l-1.3-41.8l11.3-24.3c-5.4-0.1-10.3,4-15.2,4c-4.7,0-9.2-4.1-14.4-4L150.8,143.8z"
			/>
		<polygon class="st9" points="168.6,106.4 168.6,101.1 139.8,101.1 139.8,120.7 		"/>
		<path class="st9" d="M154.2,27.5c60.8,0,36.2,80.4,0,80.4C118,107.9,93.4,27.5,154.2,27.5z"/>
		<path class="st7" d="M154.2,27.5c60.8,0,36.2,80.4,0,80.4V27.5z"/>
		<path class="st8" d="M153.6,37.2c6.8,0,9.7-3,14.3-0.9c9.2,4.3,17.2,16.4,19.4,24.6c3.3,12.4,1.4,11.3,5.9,1.9
			c4.4-9.4-6.4-50-37.9-50c-31.5,0-44.5,31.2-40.1,48.3c4.4,17.1,4.4,13,7.2,0.1C125.1,48.2,131,37.7,153.6,37.2z"/>
		<path class="st8" d="M170.5,36.9c-4.5,3.9-19.7,12.6-28.5,12.9c2.3-2.1,3.9-4.1,4.7-6.4c0.8-2.4-12,9-17.2,9.5
			c2.7-3.2,3.1-4.5,3.2-6.3c-8.4,4.6-8.2,13.5-8.2,20.6c0,7.1-3.9,5.1-3.3-2.7c0.5-7.8-4.7-17.4-2.1-23.6
			c2.6-6.2,37.1-14.8,48.1-14.8c10.9,0,20,11,22.6,15.7s-2.5,18.2-2.3,22.4c0.1,4.3-3.3,9-3.4-0.1C184,55.1,178.7,45.6,170.5,36.9z"
			/>
		<g>
			
				<ellipse transform="matrix(0.2172 -0.9761 0.9761 0.2172 86.7957 237.0953)" class="st7" cx="191.2" cy="64.4" rx="9.5" ry="4.1"/>
			
				<ellipse transform="matrix(-0.2172 -0.9761 0.9761 -0.2172 79.7838 192.8456)" class="st9" cx="117.2" cy="64.4" rx="9.5" ry="4.1"/>
		</g>
		<polygon class="st7" points="139.8,113.3 130.8,123.9 129.1,141.8 153.9,123.5 		"/>
		<polygon class="st7" points="168.5,113.3 177.6,123.9 179.2,141.8 154.5,123.5 		"/>
	</g>
	<g>
		<path class="st4" d="M115.2,56.6c0-10.3,4.4-19.6,11.4-26.3c7-6.7,16.8-10.9,27.5-10.9c10.7,0,20.5,4.2,27.5,10.9
			c7.1,6.7,11.4,16,11.4,26.3h-2.6c0-9.5-4.1-18.2-10.6-24.4c-6.6-6.3-15.7-10.1-25.7-10.1c-10,0-19.1,3.9-25.7,10.1
			c-6.6,6.2-10.6,14.9-10.6,24.4H115.2z"/>
		<g>
			<path class="st7" d="M115.9,55.7L115.9,55.7c1.8,0,3.2,1.5,3.2,3.2v9.7c0,1.8-1.5,3.2-3.2,3.2l0,0c-1.8,0-3.2-1.5-3.2-3.2v-9.7
				C112.7,57.1,114.2,55.7,115.9,55.7z"/>
			<path class="st7" d="M192.2,55.7L192.2,55.7c1.8,0,3.2,1.5,3.2,3.2v9.7c0,1.8-1.5,3.2-3.2,3.2h0c-1.8,0-3.2-1.5-3.2-3.2v-9.7
				C189,57.1,190.4,55.7,192.2,55.7z"/>
		</g>
		<path class="st4" d="M117.3,71.9c0,5.4,3.3,11.7,8.6,16.4c4.8,4.3,11.3,7.3,18.4,7.4l0,2.6c-7.8-0.1-14.9-3.4-20.1-8
			c-5.9-5.2-9.5-12.2-9.5-18.3H117.3z"/>
		<path class="st7" d="M145.2,100.5l-6.2-2c-2.7-0.9-2-4.4,0.9-4.3l6.6,0.3C151.2,94.7,150,101.8,145.2,100.5z"/>
	</g>
</g>
<g>
	<path class="st7" d="M309.4,135c10.8,0,19.6,8.8,19.6,19.6c0,7-3.7,13.2-9.3,16.7l-2.1,16.1h-16.4l-2.1-16.1
		c-5.6-3.4-9.3-9.6-9.3-16.7C289.9,143.8,298.6,135,309.4,135z"/>
	<g>
		<path class="st6" d="M306.2,179.1c0.1,0.4-0.2,0.8-0.6,0.9c-0.4,0.1-0.8-0.2-0.9-0.6l-3.3-13.6v-6.4l0.1,0.2c0-0.1,0-0.1-0.1-0.2
			v0c0.3,0.3,0.6,0.6,0.9,0.8c1.9,1.5,4.4,2.4,6.9,2.4c2.5,0,4.9-0.8,6.7-2.4c0.3-0.3,0.6-0.6,0.8-0.9c0.3-0.3,0.8-0.4,1.1-0.1
			c0.3,0.2,0.3,0.5,0.3,0.8l-4.8,19.4c-0.1,0.4-0.5,0.7-0.9,0.6c-0.4-0.1-0.7-0.5-0.6-0.9l4.1-16.9c-1.9,1.4-4.4,2-6.8,2
			c-2.5,0-5.1-0.8-7.2-2.2L306.2,179.1z M301.4,165.9L300,160c-0.1-0.4,0.2-0.8,0.6-0.9c0.3-0.1,0.6,0,0.8,0.3l0.1,0.1v0
			c0,0,0-0.1-0.1-0.1l0.1,0.2V165.9z"/>
	</g>
	<path class="st8" d="M298.3,177.5h22.2l-1.1,10.4c-0.2,1.9-0.3,2.8-2.8,2.8h-14.5c-2.5,0-2.6-0.9-2.8-2.8L298.3,177.5z"/>
	<g>
		<path class="st4" d="M321.4,118.5c0.2-0.5,0.7-0.8,1.2-0.6c0.5,0.2,0.8,0.7,0.6,1.2l-4.3,11.8c-0.2,0.5-0.7,0.8-1.2,0.6
			c-0.5-0.2-0.8-0.7-0.6-1.2L321.4,118.5z"/>
		<path class="st4" d="M332.8,124.8c0.3-0.4,1-0.5,1.4-0.1c0.4,0.3,0.5,1,0.1,1.4l-8.1,9.6c-0.3,0.4-1,0.5-1.4,0.1
			c-0.4-0.3-0.5-1-0.1-1.4L332.8,124.8z"/>
		<path class="st4" d="M341.5,134.5c0.5-0.3,1.1-0.1,1.3,0.4c0.3,0.5,0.1,1.1-0.4,1.3l-10.9,6.3c-0.5,0.3-1.1,0.1-1.3-0.4
			c-0.3-0.5-0.1-1.1,0.4-1.3L341.5,134.5z"/>
		<path class="st4" d="M346.2,146.7c0.5-0.1,1,0.3,1.1,0.8c0.1,0.5-0.3,1-0.8,1.1l-12.4,2.2c-0.5,0.1-1-0.3-1.1-0.8
			c-0.1-0.5,0.3-1,0.8-1.1L346.2,146.7z"/>
		<path class="st4" d="M308.5,116.6c0-0.5,0.4-1,1-1c0.5,0,1,0.4,1,1v12.5c0,0.5-0.4,1-1,1c-0.5,0-1-0.4-1-1V116.6z"/>
		<path class="st4" d="M295.7,119.2c-0.2-0.5,0.1-1.1,0.6-1.2c0.5-0.2,1.1,0.1,1.2,0.6l4.3,11.8c0.2,0.5-0.1,1.1-0.6,1.2
			c-0.5,0.2-1.1-0.1-1.2-0.6L295.7,119.2z"/>
		<path class="st4" d="M284.6,126c-0.3-0.4-0.3-1,0.1-1.4c0.4-0.3,1-0.3,1.4,0.1l8.1,9.6c0.3,0.4,0.3,1-0.1,1.4
			c-0.4,0.3-1,0.3-1.4-0.1L284.6,126z"/>
		<path class="st4" d="M276.5,136.2c-0.5-0.3-0.6-0.9-0.4-1.3c0.3-0.5,0.9-0.6,1.3-0.4l10.9,6.3c0.5,0.3,0.6,0.9,0.4,1.3
			c-0.3,0.5-0.9,0.6-1.3,0.4L276.5,136.2z"/>
		<path class="st4" d="M272.3,148.6c-0.5-0.1-0.9-0.6-0.8-1.1c0.1-0.5,0.6-0.9,1.1-0.8l12.4,2.2c0.5,0.1,0.9,0.6,0.8,1.1
			c-0.1,0.5-0.6,0.9-1.1,0.8L272.3,148.6z"/>
	</g>
</g>
<g>
	<polygon class="st4" points="349.6,84 349,96.3 385.2,96.3 384.6,84 	"/>
	<path class="st4" d="M384.5,80.9h33.6V17.5h-50.9v7.8h41.7v47.7h-24.7h-17v7.8H384.5z M367.1,17.5h-50.9v63.4h33.6h17.3v-7.8h-17
		h-24.7l0,0V25.3h41.7V17.5z"/>
	<polygon class="st4" points="342,99.4 342,104.4 392.2,104.4 392.2,99.4 385.4,99.4 348.9,99.4 	"/>
</g>
<g>
	
		<rect x="411.6" y="47.6" transform="matrix(-0.7706 0.6373 -0.6373 -0.7706 786.4638 -135.6368)" class="st7" width="12" height="52.3"/>
	
		<rect x="393.8" y="70.1" transform="matrix(-0.6373 -0.7706 0.7706 -0.6373 626.9974 442.5426)" class="st8" width="47.6" height="7.3"/>
	<path class="st7" d="M396,35.6c4.9-0.7,9.9,1.1,13.3,5.1c5.1,6.2,4.3,15.4-1.9,20.5c-6.2,5.1-15.4,4.3-20.5-1.9
		c-3.4-4.1-4.1-9.4-2.5-14l5.2,6.3l2.8,3.4l4.3-0.7l4.3-0.7l1.5-4.1l1.5-4.1l-2.8-3.4L396,35.6z"/>
	<path class="st7" d="M451,102.1c1.6-4.6,0.8-10-2.5-14c-5.1-6.2-14.3-7.1-20.5-1.9c-6.2,5.1-7.1,14.3-1.9,20.5
		c3.4,4.1,8.4,5.8,13.3,5.1l-5.2-6.3l-2.8-3.4l1.5-4.1l1.5-4.1l4.3-0.7l4.3-0.7l2.8,3.4L451,102.1z"/>
	<path class="st8" d="M449.4,96.5c-0.2-2.5-1.1-4.9-2.8-6.9c-4.3-5.2-12-5.9-17.2-1.6c-5.2,4.3-5.9,12-1.6,17.2c1.7,2,3.9,3.4,6.3,4
		l-5.5-6.7l4-10.8l11.3-1.9L449.4,96.5z"/>
	<path class="st8" d="M385.8,50.8c0.2,2.5,1.1,4.9,2.8,6.9c4.3,5.2,12,5.9,17.2,1.6c5.2-4.3,5.9-12,1.6-17.2c-1.7-2-3.9-3.4-6.3-4
		l5.5,6.7l-4,10.8l-11.3,1.9L385.8,50.8z"/>
</g>
<g>
	<path class="st8" d="M452.2,152.9c10.1,2.1,17.6,9.7,17.6,18.8l0,0c0,9.3-7.8,18.9-18.4,18.9h-46.7c-11.4,0-20.1-9.1-20.1-18.9l0,0
		c0-9.1,7.5-16.7,17.6-18.8c0-0.2,0-0.4,0-0.5c0-11.6,11.2-21.1,25.1-21.1c13.8,0,25.1,9.4,25.1,21.1
		C452.2,152.6,452.2,152.7,452.2,152.9z"/>
	<path class="st7" d="M414.8,145.3c7,1.4,12.3,6.8,12.3,13.1l0,0c0,6.5-5.4,13.2-12.9,13.2h-32.6c-7.9,0-14.1-6.4-14.1-13.2l0,0
		c0-6.3,5.3-11.7,12.3-13.1c0-0.1,0-0.3,0-0.4c0-8.1,7.8-14.7,17.5-14.7c9.7,0,17.5,6.6,17.5,14.7
		C414.8,145,414.8,145.1,414.8,145.3z"/>
</g>
<g>
	<polygon class="st10" points="465.4,31.1 472.5,18.2 479.6,31.1 	"/>
	<rect x="470.8" y="53.9" class="st11" width="3.4" height="6.8"/>
	<rect x="470.8" y="44.1" class="st11" width="3.4" height="6.8"/>
	<rect x="470.8" y="34.3" class="st11" width="3.4" height="6.8"/>
	<circle class="st11" cx="472.5" cy="68.2" r="4.8"/>
</g>
<g>
	<polygon class="st10" points="509.5,61 522.5,68.2 509.5,75.3 	"/>
	<rect x="480" y="66.5" class="st11" width="6.8" height="3.4"/>
	<rect x="489.8" y="66.5" class="st11" width="6.8" height="3.4"/>
	<rect x="499.6" y="66.5" class="st11" width="6.8" height="3.4"/>
	<circle class="st11" cx="472.5" cy="68.2" r="4.8"/>
</g>
<g>
	<path class="st7" d="M44.8,72.9l-2.4,9.3c-0.1,0.2-0.1,0.4-0.1,0.6l0,0l0,0c-2.8,12.4,6.7,15.5,5.8,18.9
		c-0.9,3.5-10.7,1.6-14.1,13.8l0,0.1l0,0c-0.1,0.2-0.1,0.4-0.2,0.6l-2.4,9.3l26,6.6l2.4-9.3c0.1-0.2,0.1-0.4,0.1-0.6v0l0-0.1
		c2.8-12.3-6.7-15.4-5.8-18.9c0.9-3.5,10.7-1.6,14.1-13.8l0,0l0,0c0.1-0.2,0.1-0.4,0.2-0.6l2.4-9.3L44.8,72.9z"/>
	<path class="st8" d="M44.5,82.6L44.5,82.6c-0.1,0.3-0.1,0.4-0.1,0.6l0,0c-0.9,4.2-0.4,7.6,1.9,11c0.8,1.1,1.6,2.1,2.4,3.1
		c0.9,1.1,1.6,2.4,1.6,4c0,0.3-0.1,0.6-0.1,0.9c-0.1,0.3-0.2,0.6-0.3,0.9c-0.7,1.4-2,2.1-3.3,2.7c-1.2,0.5-2.4,1-3.6,1.6
		c-3.6,1.8-5.7,4.6-6.9,8.7l0,0.1c0,0.2-0.1,0.3-0.1,0.5l-1.8,7.1l22,5.6l1.8-7.1c0-0.2,0.1-0.3,0.1-0.5l0-0.1
		c0.9-4.2,0.4-7.6-1.9-10.9c-0.8-1.1-1.6-2.1-2.4-3.1c-0.9-1.1-1.6-2.4-1.6-4c0-0.3,0.1-0.6,0.1-0.9c0.1-0.3,0.2-0.6,0.3-0.9
		c0.7-1.4,2-2.1,3.3-2.7c1.2-0.5,2.4-1,3.6-1.6c3.7-1.9,5.7-4.6,6.9-8.8l0,0c0-0.2,0.1-0.3,0.1-0.5l0-0.1L44.5,82.6z"/>
	<path class="st7" d="M74.9,78.9l-0.6,2.3C74,82.2,73,82.9,72,82.7l-29.7-7.6c-1-0.3-1.6-1.3-1.3-2.4l0.6-2.3L74.9,78.9z"/>
	<path class="st7" d="M60.6,134.6l0.6-2.3c0.3-1.1-0.3-2.1-1.3-2.4l-29.7-7.6c-1-0.3-2,0.4-2.3,1.5l-0.6,2.3L60.6,134.6z"/>
</g>
</svg>
