<?xml version="1.0" encoding="utf-8"?>
<!-- Generator: Adobe Illustrator 19.0.1, SVG Export Plug-In . SVG Version: 6.00 Build 0)  -->
<svg version="1.1" id="Layer_1" xmlns="http://www.w3.org/2000/svg" xmlns:xlink="http://www.w3.org/1999/xlink" x="0px" y="0px"
	 viewBox="0 0 240.4 240.4" style="enable-background:new 0 0 240.4 240.4;" xml:space="preserve">
<style type="text/css">
	.st0{display:none;fill:#386351;}
	.st1{display:none;fill:none;}
	.st2{fill:#386351;}
</style>
<text transform="matrix(1.2737 0 0 1 249.5753 184.1499)"><tspan x="0" y="0" style="fill:#312B2E; font-family:'PlaketteSerial'; font-size:167.1374px; letter-spacing:4.7;">ENDUR</tspan><tspan x="247.7" y="0" class="st2" style="font-family:'PlaketteSerial'; font-size:167.1374px; letter-spacing:4.7;">I</tspan><tspan x="275.4" y="0" style="fill:#312B2E; font-family:'PlaketteSerial'; font-size:167.1374px; letter-spacing:4.7;">S</tspan></text>
<path class="st0" d="M565.6,68l1,1c-0.2-0.5-0.4-0.9-0.6-1.3L565.6,68z"/>
<path class="st0" d="M566,67.6c0.2,0.4,0.4,0.9,0.6,1.3l1.9,1.9c-0.1-1.7-0.3-3.5-0.5-5.2L566,67.6z"/>
<path class="st0" d="M590,55.1l-10.3-10.3L568,56.7c0.2,1.7,0.4,3.5,0.5,5.2l11.3,11.3l11.8-11.8c0,0,0,0,0,0
	C591,59.2,590.5,57.2,590,55.1z"/>
<polygon class="st0" points="591.6,70.3 591.6,70.3 591.6,70.3 "/>
<path class="st0" d="M591.6,66.8c0,1.2,0,2.3,0,3.5c0,0,0,0,0,0l2.3-2.3l-3.9-3.9c0.5,2.1,1,4.1,1.6,6.2
	C591.6,69.1,591.6,68,591.6,66.8"/>
<line class="st1" x1="578.6" y1="49.6" x2="590.1" y2="63.8"/>
<polyline class="st1" points="557.6,49.8 578.6,49.8 589.6,63.8 568.6,63.8 578.6,49.6 "/>
<line class="st1" x1="576.5" y1="52.6" x2="576.5" y2="52.6"/>
<polyline class="st0" points="569.1,63.8 580.1,48.8 590.3,63.8 "/>
<polyline class="st2" points="568.9,63.7 579.4,52.5 590.2,63.7 "/>
<text transform="matrix(1.1474 0 0 1 656.9092 69)" style="fill:#312B2E; font-family:'FontAwesome'; font-size:20.5176px;"></text>
<path class="st2" d="M98.6,155.8"/>
<polygon class="st2" points="120.2,0 0,120.2 42.5,162.7 59.6,144.6 59.6,80.8 66.5,71.1 73.6,80.8 73.6,80.8 73.6,147.8 
	51.7,171.9 69.4,189.6 99.6,157.5 99.6,80.8 106.5,69.2 113.6,80.8 113.6,80.8 113.6,160.8 78.9,199.1 96.8,217 140.6,170.4 
	140.6,83.8 147.5,70.7 154.6,83.8 154.6,83.8 154.6,173.8 106.6,226.8 120.2,240.4 240.4,120.2 "/>
</svg>
