<?xml version="1.0" encoding="utf-8"?>
<!-- Generator: Adobe Illustrator 19.0.1, SVG Export Plug-In . SVG Version: 6.00 Build 0)  -->
<svg version="1.1" id="Layer_1" xmlns="http://www.w3.org/2000/svg" xmlns:xlink="http://www.w3.org/1999/xlink" x="0px" y="0px"
	 viewBox="0 0 684 247.5" enable-background="new 0 0 684 247.5" xml:space="preserve">
<g>
	<path fill="#FFFFFF" d="M256.9,187.7V67.2h40.4v13.5h-18.9v36.4h17.7v13.5h-17.7v43.6h18.9v13.4H256.9z"/>
	<path fill="#FFFFFF" d="M309.3,187.7V67.2h21.5l19.4,73l0,0.2l-1.7-28l-3-45.2h19.4v120.5h-20.7l-18.1-73.4l0,0l1,26.7l1.6,46.7
		H309.3z"/>
	<path fill="#FFFFFF" d="M378.7,187.7V67.2h27.7c14.9,0,23,4.8,23,13.5v92.6c0,9.9-7,14.4-22.8,14.4H378.7z M400.2,78.9v96.4h3.4
		c3,0,4.3-1.5,4.3-5.2V83.6c0-2.7-1.7-4.7-4.3-4.7H400.2z"/>
	<path fill="#FFFFFF" d="M493.9,67.2v106.5c0,9.7-9.8,15.7-25.8,15.7c-15.8,0-24.9-5.7-24.9-15.4V67.2h21.5v104.1
		c0,2,1.5,3.5,3.6,3.5c2.3,0,4-1.3,4-3.2V67.2H493.9z"/>
	<path fill="#FFFFFF" d="M507.7,187.7V67.2h27.7c13.8,0,23,5.9,23,14.4v29.1c0,7.9-4,11.9-14.7,14.9c10.2,1.7,14.7,5.7,14.7,12.7
		v39.1c0,4.5,0.2,5.9,2.3,10.4h-22.4c-1.3-3-1.5-4.2-1.5-7.5v-42.8c0-3.7-1.1-5.2-4.5-5.2h-3.2v55.5H507.7z M529.2,80.2v38.9h3.2
		c2.8,0,4.5-2,4.5-4.7V84.6c0-2.3-1.7-4.3-3.8-4.3H529.2z"/>
	<path fill="#386351" d="M572.4,67.2h21.5v120.5h-21.5V67.2z"/>
	<path fill="#FFFFFF" d="M636.9,110V83.1c0-1.8-1.5-3.3-3.4-3.3c-2.3,0-4.3,1.5-4.3,3.3v18.1c0,3.5,0.4,5.9,1.1,7
		c0.2,0.7,1.7,1.8,3.8,3.8l16.4,15.2c2.3,2.2,4.3,4,5.1,5.3c1.7,2.3,2.8,6.4,2.8,10.5v29.8c0,10.4-10,16.5-26.4,16.5
		c-15.5,0-24.3-5.9-24.3-16v-34.9h21.5v33.3c0,1.8,1.5,3.2,3.6,3.2s4-1.3,4-3.2v-26.9c0-4-0.2-4.3-4.5-8.4l-16.2-15.7
		c-2.3-2.2-4-4.2-4.9-5.2c-2.6-2.8-3.6-5.9-3.6-10.9V80.9c0-7,4.9-12.5,12.1-14.2c3-0.7,7.5-1.3,13.4-1.3h1.9
		c15.1,0,23.2,5.7,23.2,16V110H636.9z"/>
</g>
<path display="none" fill="#386351" d="M569.1,71.5l1,1c-0.2-0.5-0.4-0.9-0.6-1.3L569.1,71.5z"/>
<path display="none" fill="#386351" d="M569.5,71.2c0.2,0.4,0.4,0.9,0.6,1.3l1.9,1.9c-0.1-1.7-0.3-3.5-0.5-5.2L569.5,71.2z"/>
<path display="none" fill="#386351" d="M593.5,58.7l-10.3-10.3l-11.8,11.8c0.2,1.7,0.4,3.5,0.5,5.2l11.3,11.3l11.8-11.8c0,0,0,0,0,0
	C594.6,62.8,594,60.7,593.5,58.7z"/>
<polygon display="none" fill="#386351" points="595.1,73.8 595.1,73.8 595.1,73.8 "/>
<path display="none" fill="#386351" d="M595.1,70.4c0,1.2,0,2.3,0,3.5c0,0,0,0,0,0l2.3-2.3l-3.9-3.9c0.5,2.1,1,4.1,1.6,6.2
	C595.1,72.7,595.1,71.5,595.1,70.4"/>
<line display="none" fill="none" x1="582.1" y1="53.1" x2="593.6" y2="67.4"/>
<polyline display="none" fill="none" points="561.1,53.4 582.1,53.4 593.1,67.4 572.1,67.4 582.1,53.1 "/>
<line display="none" fill="none" x1="580" y1="56.1" x2="580" y2="56.1"/>
<polyline display="none" fill="#386351" points="572.6,67.4 583.6,52.4 593.8,67.4 "/>
<polyline fill="#386351" points="572.4,67.2 582.9,56 593.8,67.2 "/>
<g>
	<path fill="#312B2E" d="M672.2,75.5c-6.5,0-11.8-4.6-11.8-10.3S665.7,55,672.2,55S684,59.5,684,65.2S678.7,75.5,672.2,75.5z
		 M662.5,65.2c0,4.6,4.3,8.4,9.7,8.4s9.7-3.8,9.7-8.4s-4.3-8.4-9.7-8.4S662.5,60.6,662.5,65.2z M677.5,70.5c0.1,0.1,0.1,0.3,0,0.4
		c-0.1,0.1-0.2,0.2-0.4,0.2h-2c-0.2,0-0.3-0.1-0.4-0.2l-2.5-4.2h-2v4c0,0.2-0.2,0.4-0.4,0.4H668c-0.2,0-0.4-0.2-0.4-0.4v-11
		c0-0.2,0.2-0.4,0.4-0.4h3.9c1.4,0,2,0.1,2.5,0.3c1.5,0.5,2.4,1.8,2.4,3.3c0,1.4-0.8,2.6-2.1,3.1c0,0.1,0.1,0.1,0.1,0.2L677.5,70.5z
		 M673.3,61.6c-0.3-0.1-0.6-0.2-1.5-0.2h-1.6v3.2h2.1c1.2,0,1.8-0.6,1.8-1.6C674.1,62.3,673.9,61.9,673.3,61.6z"/>
</g>
<path fill="#386351" stroke="#2D2D2D" stroke-width="5" stroke-miterlimit="10" d="M102.1,159.4"/>
<polygon fill="#386351" stroke="#2D2D2D" stroke-width="5" stroke-miterlimit="10" points="123.7,3.5 3.5,123.7 45.3,166.3 
	61.6,147.5 61.6,84.4 68.7,75.2 75.6,85 75.6,85 75.6,151.4 54.5,175.5 71.8,193.1 101.6,160.4 101.6,84.4 108.8,73.4 115.6,84.7 
	115.6,84.7 115.6,164.4 81.7,202.6 99.2,220.5 142.6,173.1 142.6,87.4 149.8,74.9 156.6,87.3 156.6,87.3 156.7,177.4 109.4,230.3 
	123.4,244 243.8,123.7 "/>
<path fill="#FFFFFF" stroke="#FFFFFF" stroke-width="5" stroke-miterlimit="10" d="M158.3,92.2"/>
</svg>
