<?xml version="1.0" encoding="utf-8"?>
<!-- Generator: Adobe Illustrator 19.0.1, SVG Export Plug-In . SVG Version: 6.00 Build 0)  -->
<svg version="1.1" id="Layer_1" xmlns="http://www.w3.org/2000/svg" xmlns:xlink="http://www.w3.org/1999/xlink" x="0px" y="0px"
	 viewBox="0 0 681.1 240.4" enable-background="new 0 0 681.1 240.4" xml:space="preserve">
<g>
	<path fill="#312B2E" d="M253.4,184.1V63.6h40.4v13.5h-18.9v36.4h17.7v13.5h-17.7v43.6h18.9v13.4H253.4z"/>
	<path fill="#312B2E" d="M305.8,184.1V63.6h21.5l17.9,73h1.5l-4.7-27.6V63.6h19.4v120.5h-20.7L322,110.8h-1.1l4.3,26.9v46.5H305.8z"
		/>
	<path fill="#312B2E" d="M375.2,184.1V63.6h27.7c14.9,0,23,4.8,23,13.5v92.6c0,9.9-7,14.4-22.8,14.4H375.2z M396.7,75.3v96.4h3.4
		c3,0,4.3-1.5,4.3-5.2V80c0-2.7-1.7-4.7-4.3-4.7H396.7z"/>
	<path fill="#312B2E" d="M490.3,63.6v106.5c0,9.7-9.8,15.7-25.8,15.7c-15.8,0-24.9-5.7-24.9-15.4V63.6h21.5v104.1
		c0,2,1.5,3.5,3.6,3.5c2.3,0,4-1.3,4-3.2V63.6H490.3z"/>
	<path fill="#312B2E" d="M504.2,184.1V63.6h27.7c13.8,0,23,5.9,23,14.4v29.1c0,7.9-4,11.9-14.7,14.9c10.2,1.7,14.7,5.7,14.7,12.7
		v39.1c0,4.5,0.2,5.9,2.3,10.4h-22.4c-1.3-3-1.5-4.2-1.5-7.5v-42.8c0-3.7-1.1-5.2-4.5-5.2h-3.2v55.5H504.2z M525.7,76.7v38.9h3.2
		c2.8,0,4.5-2,4.5-4.7V81c0-2.3-1.7-4.3-3.8-4.3H525.7z"/>
	<path fill="#386351" d="M568.9,63.6h21.5v120.5h-21.5V63.6z"/>
	<path fill="#312B2E" d="M633.4,106.4V79.5c0-1.8-1.5-3.3-3.4-3.3c-2.3,0-4.3,1.5-4.3,3.3v18.1c0,3.5,0.4,5.9,1.1,7
		c0.2,0.7,1.7,1.8,3.8,3.8l16.4,15.2c2.3,2.2,4.3,4,5.1,5.3c1.7,2.3,2.8,6.4,2.8,10.5v29.8c0,10.4-10,16.5-26.4,16.5
		c-15.5,0-24.3-5.9-24.3-16v-34.9h21.5v33.3c0,1.8,1.5,3.2,3.6,3.2s4-1.3,4-3.2v-26.9c0-4-0.2-4.3-4.5-8.4l-16.2-15.7
		c-2.3-2.2-4-4.2-4.9-5.2c-2.6-2.8-3.6-5.9-3.6-10.9V77.3c0-7,4.9-12.5,12.1-14.2c3-0.7,7.5-1.3,13.4-1.3h1.9
		c15.1,0,23.2,5.7,23.2,16v28.6H633.4z"/>
</g>
<path display="none" fill="#386351" d="M565.6,68l1,1c-0.2-0.5-0.4-0.9-0.6-1.3L565.6,68z"/>
<path display="none" fill="#386351" d="M566,67.6c0.2,0.4,0.4,0.9,0.6,1.3l1.9,1.9c-0.1-1.7-0.3-3.5-0.5-5.2L566,67.6z"/>
<path display="none" fill="#386351" d="M590,55.1l-10.3-10.3L568,56.7c0.2,1.7,0.4,3.5,0.5,5.2l11.3,11.3l11.8-11.8c0,0,0,0,0,0
	C591,59.2,590.5,57.2,590,55.1z"/>
<polygon display="none" fill="#386351" points="591.6,70.3 591.6,70.3 591.6,70.3 "/>
<path display="none" fill="#386351" d="M591.6,66.8c0,1.2,0,2.3,0,3.5c0,0,0,0,0,0l2.3-2.3l-3.9-3.9c0.5,2.1,1,4.1,1.6,6.2
	C591.6,69.1,591.6,68,591.6,66.8"/>
<line display="none" fill="none" x1="578.6" y1="49.6" x2="590.1" y2="63.8"/>
<polyline display="none" fill="none" points="557.6,49.8 578.6,49.8 589.6,63.8 568.6,63.8 578.6,49.6 "/>
<line display="none" fill="none" x1="576.5" y1="52.6" x2="576.5" y2="52.6"/>
<polyline display="none" fill="#386351" points="569.1,63.8 580.1,48.8 590.3,63.8 "/>
<polyline fill="#386351" points="568.9,63.7 579.4,52.5 590.2,63.7 "/>
<g>
	<path fill="#312B2E" d="M668.7,71.9c-6.5,0-11.8-4.6-11.8-10.3s5.3-10.3,11.8-10.3s11.8,4.6,11.8,10.3S675.2,71.9,668.7,71.9z
		 M659,61.7c0,4.6,4.3,8.4,9.7,8.4s9.7-3.8,9.7-8.4s-4.3-8.4-9.7-8.4S659,57,659,61.7z M674,67c0.1,0.1,0.1,0.3,0,0.4
		c-0.1,0.1-0.2,0.2-0.4,0.2h-2c-0.2,0-0.3-0.1-0.4-0.2l-2.5-4.2h-2v4c0,0.2-0.2,0.4-0.4,0.4h-1.8c-0.2,0-0.4-0.2-0.4-0.4v-11
		c0-0.2,0.2-0.4,0.4-0.4h3.9c1.4,0,2,0.1,2.5,0.3c1.5,0.5,2.4,1.8,2.4,3.3c0,1.4-0.8,2.6-2.1,3.1c0,0.1,0.1,0.1,0.1,0.2L674,67z
		 M669.8,58.1c-0.3-0.1-0.6-0.2-1.5-0.2h-1.6v3.2h2.1c1.2,0,1.8-0.6,1.8-1.6C670.6,58.8,670.3,58.3,669.8,58.1z"/>
</g>
<path fill="#386351" d="M98.6,155.8"/>
<polygon fill="#386351" points="120.2,0 0,120.2 42.5,162.7 59.6,144.6 59.6,80.8 66.5,71.1 73.6,80.8 73.6,80.8 73.6,147.8 
	51.7,171.9 69.4,189.6 99.6,157.5 99.6,80.8 106.5,69.2 113.6,80.8 113.6,80.8 113.6,160.8 78.9,199.1 96.8,217 140.6,170.4 
	140.6,83.8 147.5,70.7 154.6,83.8 154.6,83.8 154.6,173.8 106.6,226.8 120.2,240.4 240.4,120.2 "/>
</svg>
