<?xml version="1.0" encoding="utf-8"?>
<!-- Generator: Adobe Illustrator 19.0.1, SVG Export Plug-In . SVG Version: 6.00 Build 0)  -->
<svg version="1.1" id="Layer_1" xmlns="http://www.w3.org/2000/svg" xmlns:xlink="http://www.w3.org/1999/xlink" x="0px" y="0px"
	 viewBox="-129 130.6 240.4 240.4" style="enable-background:new -129 130.6 240.4 240.4;" xml:space="preserve">
<style type="text/css">
	.st0{display:none;fill:#386351;}
	.st1{display:none;fill:none;}
	.st2{fill:#386351;}
	.st3{fill:#FFFFFF;}
</style>
<text transform="matrix(1.2737 0 0 1 120.5756 314.7499)" style="fill:#312B2E; font-family:'PlaketteSerial'; font-size:167.1374px; letter-spacing:3.9;">ENDUR</text>
<text transform="matrix(1.2737 0 0 1 436.0713 314.7499)" class="st2" style="font-family:'PlaketteSerial'; font-size:167.1374px; letter-spacing:3.9;">I</text>
<text transform="matrix(1.2737 0 0 1 471.3526 314.7499)" style="fill:#312B2E; font-family:'PlaketteSerial'; font-size:167.1374px; letter-spacing:3.9;">S</text>
<path class="st0" d="M436.6,198.6l1,1c-0.2-0.5-0.4-0.9-0.6-1.3L436.6,198.6z"/>
<path class="st0" d="M437,198.2c0.2,0.4,0.4,0.9,0.6,1.3l1.9,1.9c-0.1-1.7-0.3-3.5-0.5-5.2L437,198.2z"/>
<path class="st0" d="M461,185.7l-10.3-10.3L439,187.3c0.2,1.7,0.4,3.5,0.5,5.2l11.3,11.3l11.8-11.8l0,0
	C462,189.8,461.5,187.8,461,185.7z"/>
<path class="st0" d="M462.6,200.9L462.6,200.9L462.6,200.9z"/>
<path class="st0" d="M462.6,197.4c0,1.2,0,2.3,0,3.5l0,0l2.3-2.3l-3.9-3.9c0.5,2.1,1,4.1,1.6,6.2
	C462.6,199.7,462.6,198.6,462.6,197.4"/>
<line class="st1" x1="449.6" y1="180.2" x2="461.1" y2="194.4"/>
<polyline class="st1" points="428.6,180.4 449.6,180.4 460.6,194.4 439.6,194.4 449.6,180.2 "/>
<line class="st1" x1="447.5" y1="183.2" x2="447.5" y2="183.2"/>
<polyline class="st0" points="440.1,194.4 451.1,179.4 461.3,194.4 "/>
<polyline class="st2" points="439.9,194.3 450.4,183.1 461.2,194.3 "/>
<text transform="matrix(1.1474 0 0 1 527.9092 199.6)" style="fill:#312B2E; font-family:'FontAwesome'; font-size:20.5176px;"></text>
<path class="st2" d="M-30.4,286.4"/>
<polygon class="st3" points="-8.8,130.6 -129,250.8 -86.5,293.3 -69.4,275.2 -69.4,211.4 -62.5,201.7 -55.4,211.4 -55.4,211.4 
	-55.4,278.4 -77.3,302.5 -59.6,320.2 -29.4,288.1 -29.4,211.4 -22.5,199.8 -15.4,211.4 -15.4,211.4 -15.4,291.4 -50.1,329.7 
	-32.2,347.6 11.6,301 11.6,214.4 18.5,201.3 25.6,214.4 25.6,214.4 25.6,304.4 -22.4,357.4 -8.8,371 111.4,250.8 "/>
</svg>
