<?xml version="1.0" encoding="utf-8"?>
<!-- Generator: Adobe Illustrator 19.0.1, SVG Export Plug-In . SVG Version: 6.00 Build 0)  -->
<svg version="1.1" id="Layer_1" xmlns="http://www.w3.org/2000/svg" xmlns:xlink="http://www.w3.org/1999/xlink" x="0px" y="0px"
	 viewBox="0 0 682.6 244.6" enable-background="new 0 0 682.6 244.6" xml:space="preserve">
<g>
	<path fill="#312B2E" d="M255.5,186.3V65.8H296v13.5H277v36.4h17.7v13.5H277v43.6H296v13.4H255.5z"/>
	<path fill="#312B2E" d="M307.9,186.3V65.8h21.5l19.4,73l0,0.2l-1.7-28l-3-45.2h19.4v120.5h-20.7l-18.1-73.4l0,0l1,26.7l1.6,46.7
		H307.9z"/>
	<path fill="#312B2E" d="M377.3,186.3V65.8H405c14.9,0,23,4.8,23,13.5v92.6c0,9.9-7,14.4-22.8,14.4H377.3z M398.8,77.5v96.4h3.4
		c3,0,4.3-1.5,4.3-5.2V82.1c0-2.7-1.7-4.7-4.3-4.7H398.8z"/>
	<path fill="#312B2E" d="M492.5,65.8v106.5c0,9.7-9.8,15.7-25.8,15.7c-15.8,0-24.9-5.7-24.9-15.4V65.8h21.5v104.1
		c0,2,1.5,3.5,3.6,3.5c2.3,0,4-1.3,4-3.2V65.8H492.5z"/>
	<path fill="#312B2E" d="M506.3,186.3V65.8H534c13.8,0,23,5.9,23,14.4v29.1c0,7.9-4,11.9-14.7,14.9c10.2,1.7,14.7,5.7,14.7,12.7
		v39.1c0,4.5,0.2,5.9,2.3,10.4h-22.4c-1.3-3-1.5-4.2-1.5-7.5V136c0-3.7-1.1-5.2-4.5-5.2h-3.2v55.5H506.3z M527.8,78.8v38.9h3.2
		c2.8,0,4.5-2,4.5-4.7V83.1c0-2.3-1.7-4.3-3.8-4.3H527.8z"/>
	<path fill="#386351" d="M571,65.8h21.5v120.5H571V65.8z"/>
	<path fill="#312B2E" d="M635.5,108.5V81.6c0-1.8-1.5-3.3-3.4-3.3c-2.3,0-4.3,1.5-4.3,3.3v18.1c0,3.5,0.4,5.9,1.1,7
		c0.2,0.7,1.7,1.8,3.8,3.8l16.4,15.2c2.3,2.2,4.3,4,5.1,5.3c1.7,2.3,2.8,6.4,2.8,10.5v29.8c0,10.4-10,16.5-26.4,16.5
		c-15.5,0-24.3-5.9-24.3-16V137h21.5v33.3c0,1.8,1.5,3.2,3.6,3.2s4-1.3,4-3.2v-26.9c0-4-0.2-4.3-4.5-8.4l-16.2-15.7
		c-2.3-2.2-4-4.2-4.9-5.2c-2.6-2.8-3.6-5.9-3.6-10.9V79.5c0-7,4.9-12.5,12.1-14.2c3-0.7,7.5-1.3,13.4-1.3h1.9
		c15.1,0,23.2,5.7,23.2,16v28.6H635.5z"/>
</g>
<path display="none" fill="#386351" d="M567.7,70.1l1,1c-0.2-0.5-0.4-0.9-0.6-1.3L567.7,70.1z"/>
<path display="none" fill="#386351" d="M568.1,69.8c0.2,0.4,0.4,0.9,0.6,1.3l1.9,1.9c-0.1-1.7-0.3-3.5-0.5-5.2L568.1,69.8z"/>
<path display="none" fill="#386351" d="M592.1,57.2L581.9,47l-11.8,11.8c0.2,1.7,0.4,3.5,0.5,5.2l11.3,11.3l11.8-11.8c0,0,0,0,0,0
	C593.2,61.4,592.6,59.3,592.1,57.2z"/>
<polygon display="none" fill="#386351" points="593.7,72.4 593.7,72.4 593.7,72.4 "/>
<path display="none" fill="#386351" d="M593.7,68.9c0,1.2,0,2.3,0,3.5c0,0,0,0,0,0l2.3-2.3l-3.9-3.9c0.5,2.1,1,4.1,1.6,6.2
	C593.7,71.3,593.7,70.1,593.7,68.9"/>
<line display="none" fill="none" x1="580.7" y1="51.7" x2="592.2" y2="65.9"/>
<polyline display="none" fill="none" points="559.7,51.9 580.7,51.9 591.7,65.9 570.7,65.9 580.7,51.7 "/>
<line display="none" fill="none" x1="578.6" y1="54.7" x2="578.6" y2="54.7"/>
<polyline display="none" fill="#386351" points="571.2,65.9 582.2,50.9 592.4,65.9 "/>
<polyline fill="#386351" points="571,65.8 581.5,54.6 592.4,65.8 "/>
<g>
	<path fill="#312B2E" d="M670.8,74.1c-6.5,0-11.8-4.6-11.8-10.3s5.3-10.3,11.8-10.3s11.8,4.6,11.8,10.3S677.3,74.1,670.8,74.1z
		 M661.1,63.8c0,4.6,4.3,8.4,9.7,8.4s9.7-3.8,9.7-8.4s-4.3-8.4-9.7-8.4S661.1,59.2,661.1,63.8z M676.1,69.1c0.1,0.1,0.1,0.3,0,0.4
		c-0.1,0.1-0.2,0.2-0.4,0.2h-2c-0.2,0-0.3-0.1-0.4-0.2l-2.5-4.2h-2v4c0,0.2-0.2,0.4-0.4,0.4h-1.8c-0.2,0-0.4-0.2-0.4-0.4v-11
		c0-0.2,0.2-0.4,0.4-0.4h3.9c1.4,0,2,0.1,2.5,0.3c1.5,0.5,2.4,1.8,2.4,3.3c0,1.4-0.8,2.6-2.1,3.1c0,0.1,0.1,0.1,0.1,0.2L676.1,69.1z
		 M671.9,60.2c-0.3-0.1-0.6-0.2-1.5-0.2h-1.6v3.2h2.1c1.2,0,1.8-0.6,1.8-1.6C672.7,60.9,672.4,60.5,671.9,60.2z"/>
</g>
<path fill="#386351" stroke="#2D2D2D" stroke-width="3" stroke-miterlimit="10" d="M100.7,157.9"/>
<polygon fill="#386351" stroke="#2D2D2D" stroke-width="3" stroke-miterlimit="10" points="122.3,2.1 2.1,122.3 43.9,164.8 
	60.2,146.1 60.2,82.9 67.3,73.8 74.2,83.6 74.2,83.6 74.2,149.9 53.1,174.1 70.4,191.7 100.2,158.9 100.2,82.9 107.4,71.9 
	114.2,83.3 114.2,83.3 114.2,162.9 80.3,201.2 97.7,219.1 141.2,171.7 141.2,85.9 148.4,73.4 155.2,85.9 155.2,85.9 155.2,175.9 
	108,228.9 122,242.5 242.3,122.3 "/>
<path fill="#FFFFFF" stroke="#FFFFFF" stroke-miterlimit="10" d="M156.9,90.8"/>
</svg>
