<?xml version="1.0" encoding="utf-8"?>
<!-- Generator: Adobe Illustrator 19.0.1, SVG Export Plug-In . SVG Version: 6.00 Build 0)  -->
<svg version="1.1" id="Layer_1" xmlns="http://www.w3.org/2000/svg" xmlns:xlink="http://www.w3.org/1999/xlink" x="0px" y="0px"
	 viewBox="0 0 345 137.6" style="enable-background:new 0 0 345 137.6;" xml:space="preserve">
<style type="text/css">
	.st0{fill:#376350;}
</style>
<path class="st0" d="M143,134.4v-4.2c0-19.9-3.3-27.4-8.7-37.1c-5.5-9.7-6.6-22.1-6.6-22.1V46.8h-15.1h-2.1H95.2V71
	c0,0-1.2,12.5-6.6,22.1c-5.5,9.7-8.8,17.2-8.8,37.1v4.2"/>
<g>
	<path class="st0" d="M87.2,91.2c-3.7-6.6-4.5-15-4.5-15V59.9H72.4H71H60.8v16.3c0,0-0.8,8.4-4.5,15c-3.7,6.5-5.9,11.6-5.9,25.1v2.8
		h20.9h0.8h20.9v-2.8C93.1,102.8,90.9,97.7,87.2,91.2z"/>
	<path class="st0" d="M166.6,91.2c-3.7-6.6-4.5-15-4.5-15V59.9h-10.2h-1.4h-10.2v16.3c0,0-0.8,8.4-4.5,15
		c-3.7,6.5-5.9,11.6-5.9,25.1v2.8h20.9h0.8h20.9v-2.8C172.5,102.8,170.3,97.7,166.6,91.2z"/>
</g>
<polyline class="st0" points="192.4,137.6 192.4,116.1 0,116.1 0,137.6 "/>
<rect x="37.9" y="110.5" class="st0" width="147" height="11.4"/>
<path class="st0" d="M164.6,26.5c0-2.9-2.4-5.3-5.2-5.3c-0.2,0-0.5,0-0.7,0c-0.3-1-1-1.9-1.8-2.5c0.1-0.4,0.2-0.8,0.2-1.3
	c0-3.1-2.5-5.7-5.6-5.7c-2.1,0-3.9,1.2-4.9,2.9c-0.1,0-0.3,0-0.5,0c-2.9,0-5.2,2.4-5.2,5.3c0,0.2,0,0.3,0,0.4
	c-1.5,0.1-2.9,0.8-3.8,1.8c-0.9-0.6-1.9-1-3-1c-2.9,0-5.2,2.4-5.2,5.3c0,2.2,1.3,4.1,3.3,4.9c0.2,1.3,1.5,8.6,11.1,8.9
	c0,0-3.8,5.7,4,8.5c0,0,5.3,1.4,5.5,8.9h2.2c0,0,2.3-6.6-1.5-10.4c-3.8-3.7,5.8-4.2,4-8.7c0,0,5.7-2.7,5-7.7
	C163.6,30,164.6,28.3,164.6,26.5z"/>
<path class="st0" d="M107,0c-2.9,0-5.2,2.4-5.2,5.3c0,0.1,0,0.3,0,0.4c-1.6,0.1-2.9,0.8-3.8,1.8c-0.9-0.6-1.9-0.9-3-0.9
	c-2.9,0-5.2,2.3-5.2,5.3c0,2.2,1.3,4.1,3.3,4.9c0.2,1.3,1.5,8.6,11.1,8.9c0,0-3.7,5.7,4,8.5c0,0,5.3,1.4,5.5,8.9h2.2
	c0,0,2.3-6.7-1.5-10.4c-3.8-3.7,5.8-4.2,4-8.6c0,0,5.7-2.7,5-7.7c1.4-0.9,2.4-2.6,2.4-4.4c0-2.9-2.3-5.3-5.2-5.3c-0.2,0-0.5,0-0.7,0
	c-0.3-1-1-1.9-1.8-2.5c0.1-0.4,0.1-0.9,0.1-1.3"/>
<rect x="196" y="39.2" class="st0" width="42" height="98"/>
<rect x="303" y="90.2" class="st0" width="42" height="47"/>
<polyline class="st0" points="297,0.2 297,137.2 244,137.2 244,0.2 "/>
</svg>
