<?xml version="1.0" encoding="utf-8"?>
<!-- Generator: Adobe Illustrator 19.0.1, SVG Export Plug-In . SVG Version: 6.00 Build 0)  -->
<svg version="1.1" xmlns="http://www.w3.org/2000/svg" xmlns:xlink="http://www.w3.org/1999/xlink" x="0px" y="0px"
	 viewBox="0 0 477.1 624.6" style="enable-background:new 0 0 477.1 624.6;" xml:space="preserve">
<style type="text/css">
	.st0{fill-rule:evenodd;clip-rule:evenodd;fill:#312B2E;}
	.st1{fill-rule:evenodd;clip-rule:evenodd;fill:#428465;}
	.st2{fill-rule:evenodd;clip-rule:evenodd;fill:#325B47;}
	.st3{fill-rule:evenodd;clip-rule:evenodd;fill:#EEEEEE;}
	.st4{fill-rule:evenodd;clip-rule:evenodd;fill:#0E566E;}
	.st5{fill-rule:evenodd;clip-rule:evenodd;fill:#8CC63C;}
	.st6{fill-rule:evenodd;clip-rule:evenodd;fill:#E25A40;}
	.st7{fill-rule:evenodd;clip-rule:evenodd;fill:#86DBF7;}
	.st8{fill:#FFFFFF;}
	.st9{fill-rule:evenodd;clip-rule:evenodd;fill:#E09D89;}
	.st10{fill-rule:evenodd;clip-rule:evenodd;fill:#F1B6A4;}
	.st11{fill-rule:evenodd;clip-rule:evenodd;fill:#E8998B;}
	.st12{fill-rule:evenodd;clip-rule:evenodd;fill:#1A1A1A;}
	.st13{fill-rule:evenodd;clip-rule:evenodd;fill:#CC2908;}
	.st14{fill-rule:evenodd;clip-rule:evenodd;fill:#666666;}
	.st15{fill-rule:evenodd;clip-rule:evenodd;fill:#CCCCCC;}
	
		.st16{fill-rule:evenodd;clip-rule:evenodd;fill:#2D2D2D;stroke:#312B2E;stroke-width:2.4001;stroke-linecap:round;stroke-linejoin:round;stroke-miterlimit:22.9256;}
	.st17{fill-rule:evenodd;clip-rule:evenodd;fill:#2D2D2D;}
	.st18{fill-rule:evenodd;clip-rule:evenodd;fill:#073545;}
	.st19{fill-rule:evenodd;clip-rule:evenodd;fill:#C0EDFC;}
	.st20{fill-rule:evenodd;clip-rule:evenodd;fill:#D1917D;}
	.st21{fill-rule:evenodd;clip-rule:evenodd;fill:#FFFFFF;}
</style>
<g id="Background">
</g>
<g id="Objects">
	<g>
		<path class="st0" d="M126.4,236.1h-9.3v70.3c3.3,2.4,6.4,2.6,9.3,0V236.1z"/>
		<ellipse class="st1" cx="121.8" cy="205.8" rx="26.5" ry="42.8"/>
	</g>
	<g>
		<path class="st0" d="M106.7,249.5h-7.6v57.3c2.7,1.9,5.2,2.1,7.6,0V249.5z"/>
		<ellipse class="st2" cx="103" cy="224.8" rx="21.6" ry="34.8"/>
	</g>
	<g>
		<rect x="244.2" y="190.8" class="st1" width="211.1" height="126.8"/>
		<polygon class="st2" points="455.3,137.3 244.2,137.3 222.4,208 477.1,208 		"/>
		<rect x="311.9" y="234" class="st2" width="40.5" height="46.2"/>
		<rect x="318.3" y="239.9" class="st3" width="27.7" height="34.5"/>
		<rect x="328.9" y="234" class="st2" width="6.4" height="46.2"/>
		<rect x="259.6" y="234" class="st2" width="40.5" height="46.2"/>
		<rect x="266" y="239.9" class="st3" width="27.7" height="34.5"/>
		<rect x="276.7" y="234" class="st4" width="6.4" height="46.2"/>
		<rect x="258.4" y="274.4" class="st0" width="94" height="5.9"/>
		<path class="st5" d="M314.1,279.9c5.3,0,9.6-2.5,9.6-5.6c0-3.1-4.3-5.6-9.6-5.6c-5.3,0-9.6,2.5-9.6,5.6
			C304.5,277.4,308.8,279.9,314.1,279.9z"/>
		<path class="st5" d="M328.2,277.1c5.3,0,9.6-2.5,9.6-5.6c0-3.1-4.3-5.6-9.6-5.6c-5.3,0-9.6,2.5-9.6,5.6
			C318.6,274.6,322.9,277.1,328.2,277.1z"/>
		<path class="st5" d="M342.8,280c5.3,0,9.6-2.5,9.6-5.6c0-3.1-4.3-5.6-9.6-5.6c-5.3,0-9.6,2.5-9.6,5.6
			C333.3,277.5,337.6,280,342.8,280z"/>
		<path class="st5" d="M284.6,279.2c5.3,0,9.6-2.5,9.6-5.6c0-3.1-4.3-5.6-9.6-5.6c-5.3,0-9.6,2.5-9.6,5.6
			C275,276.7,279.3,279.2,284.6,279.2z"/>
		<path class="st5" d="M267.9,277.5c5.3,0,9.6-2.5,9.6-5.6c0-3.1-4.3-5.6-9.6-5.6s-9.6,2.5-9.6,5.6
			C258.3,275,262.6,277.5,267.9,277.5z"/>
		<rect x="381.6" y="236.8" class="st2" width="44.1" height="80.8"/>
		<rect x="376.7" y="234" class="st4" width="54.1" height="4.9"/>
		<rect x="293.3" y="112" class="st1" width="51.8" height="39"/>
		<rect x="286.5" y="92.4" class="st2" width="65.5" height="19.6"/>
		<rect x="376.7" y="234" class="st2" width="54.1" height="5.9"/>
		<path class="st5" d="M299.6,276.6c5.3,0,9.6-2.5,9.6-5.6c0-3.1-4.3-5.6-9.6-5.6c-5.3,0-9.6,2.5-9.6,5.6
			C290,274.1,294.3,276.6,299.6,276.6z"/>
		<path class="st6" d="M343.4,278.8c2.1,0,3.8-1.7,3.8-3.8c0-2.1-1.7-3.8-3.8-3.8c-2.1,0-3.8,1.7-3.8,3.8
			C339.6,277.1,341.3,278.8,343.4,278.8z"/>
		<path class="st6" d="M328.9,278.2c2.1,0,3.8-1.7,3.8-3.8c0-2.1-1.7-3.8-3.8-3.8c-2.1,0-3.8,1.7-3.8,3.8
			C325.1,276.5,326.8,278.2,328.9,278.2z"/>
		<path class="st6" d="M318.6,275.3c2.1,0,3.8-1.7,3.8-3.8c0-2.1-1.7-3.8-3.8-3.8c-2.1,0-3.8,1.7-3.8,3.8
			C314.8,273.6,316.5,275.3,318.6,275.3z"/>
		<path class="st6" d="M305.4,281.1c2.1,0,3.8-1.7,3.8-3.8c0-2.1-1.7-3.8-3.8-3.8c-2.1,0-3.8,1.7-3.8,3.8
			C301.6,279.4,303.3,281.1,305.4,281.1z"/>
		<path class="st6" d="M299.6,274.9c2.1,0,3.8-1.7,3.8-3.8c0-2.1-1.7-3.8-3.8-3.8c-2.1,0-3.8,1.7-3.8,3.8
			C295.8,273.1,297.5,274.9,299.6,274.9z"/>
		<path class="st6" d="M289.4,278.2c2.1,0,3.8-1.7,3.8-3.8c0-2.1-1.7-3.8-3.8-3.8c-2.1,0-3.8,1.7-3.8,3.8
			C285.6,276.5,287.3,278.2,289.4,278.2z"/>
		<path class="st6" d="M278.8,281.8c2.1,0,3.8-1.7,3.8-3.8c0-2.1-1.7-3.8-3.8-3.8c-2.1,0-3.8,1.7-3.8,3.8
			C275,280.1,276.7,281.8,278.8,281.8z"/>
		<path class="st6" d="M267.9,275.8c2.1,0,3.8-1.7,3.8-3.8c0-2.1-1.7-3.8-3.8-3.8c-2.1,0-3.8,1.7-3.8,3.8
			C264.1,274,265.8,275.8,267.9,275.8z"/>
	</g>
	<g>
		<polygon class="st3" points="69.2,317.6 60.2,317.6 60.2,272.7 64.7,265.9 69.2,272.7 		"/>
		<polygon class="st3" points="50.2,317.6 41.2,317.6 41.2,272.7 45.7,265.9 50.2,272.7 		"/>
		<polygon class="st3" points="31.3,317.6 22.2,317.6 22.2,272.7 26.7,265.9 31.3,272.7 		"/>
		<polygon class="st3" points="12.3,317.6 3.2,317.6 3.2,272.7 7.8,265.9 12.3,272.7 		"/>
		<polygon class="st3" points="126.2,317.6 117.2,317.6 117.2,272.7 121.7,265.9 126.2,272.7 		"/>
		<polygon class="st3" points="107.2,317.6 98.2,317.6 98.2,272.7 102.7,265.9 107.2,272.7 		"/>
		<polygon class="st3" points="88.2,317.6 79.2,317.6 79.2,272.7 83.7,265.9 88.2,272.7 		"/>
		<polygon class="st7" points="183.2,317.6 174.2,317.6 174.2,272.7 178.7,265.9 183.2,272.7 		"/>
		<polygon class="st7" points="164.2,317.6 155.2,317.6 155.2,272.7 159.7,265.9 164.2,272.7 		"/>
		<polygon class="st3" points="145.2,317.6 136.2,317.6 136.2,272.7 140.7,265.9 145.2,272.7 		"/>
		<polygon class="st7" points="240.2,317.6 231.2,317.6 231.2,272.7 235.7,265.9 240.2,272.7 		"/>
		<polygon class="st7" points="221.2,317.6 212.2,317.6 212.2,272.7 216.7,265.9 221.2,272.7 		"/>
		<polygon class="st7" points="202.2,317.6 193.2,317.6 193.2,272.7 197.7,265.9 202.2,272.7 		"/>
		<g>
			<rect x="0" y="302" class="st3" width="245.9" height="9"/>
			<rect x="0" y="283.3" class="st3" width="245.9" height="9"/>
		</g>
	</g>
	<g>
		<path class="st8" d="M122.4,688.2V688c-0.3,0.4-0.7,0.7-1,1c-0.3,0.3-0.7,0.4-1.1,0.6c-0.2,0.1-0.3,0.1-0.5,0.1v-1.9
			c0.5,0,0.9-0.1,1.2-0.4c0.4-0.2,0.7-0.6,0.9-1.1c0.2-0.5,0.3-1.1,0.3-1.8c0-0.7-0.1-1.3-0.3-1.8c-0.2-0.5-0.5-0.9-0.9-1.1
			c-0.4-0.3-0.8-0.4-1.2-0.4v-1.9c0.4,0.1,0.8,0.2,1.1,0.3c0.5,0.3,1,0.7,1.5,1.2v-3.8c0-0.5,0.1-0.9,0.3-1.2
			c0.2-0.3,0.5-0.4,0.9-0.4c0.4,0,0.7,0.1,0.9,0.4c0.2,0.3,0.3,0.6,0.3,1.1v11.4c0,0.5-0.1,0.9-0.3,1.1c-0.2,0.2-0.5,0.4-0.9,0.4
			c-0.4,0-0.6-0.1-0.9-0.4C122.5,689,122.4,688.7,122.4,688.2z M119.7,689.6c-0.3,0-0.5,0.1-0.8,0.1c-0.6,0-1.2-0.1-1.7-0.4
			c-0.5-0.3-1-0.6-1.4-1.1c-0.4-0.5-0.7-1.1-0.9-1.7c-0.2-0.7-0.3-1.4-0.3-2.1c0-1.6,0.4-2.9,1.2-3.8c0.8-0.9,1.8-1.4,3.1-1.4
			c0.3,0,0.5,0,0.8,0.1v1.9h0c-0.5,0-0.9,0.1-1.3,0.4c-0.4,0.3-0.7,0.7-0.9,1.2c-0.2,0.5-0.3,1.1-0.3,1.8l0,0c0,0.7,0.1,1.3,0.3,1.8
			c0.2,0.5,0.5,0.9,0.9,1.1c0.4,0.3,0.8,0.4,1.2,0.4h0V689.6z"/>
		<path class="st8" d="M133.8,685.1h-2.7v-1.5h2.4c-0.1-0.9-0.3-1.5-0.7-2c-0.4-0.4-1-0.7-1.6-0.7v-1.8h0.1c1,0,1.9,0.2,2.6,0.6
			c0.7,0.4,1.3,1,1.6,1.7c0.4,0.7,0.5,1.4,0.5,2.1c0,0.7-0.2,1.1-0.6,1.3C135,685,134.5,685.1,133.8,685.1L133.8,685.1z M131.1,688
			c0.1,0,0.1,0,0.2,0c0.3,0,0.6,0,0.9-0.1c0.3-0.1,0.5-0.2,0.7-0.3c0.2-0.2,0.5-0.3,0.7-0.5c0.2-0.2,0.5-0.4,0.8-0.7
			c0.1-0.1,0.3-0.2,0.6-0.2c0.3,0,0.5,0.1,0.6,0.2c0.2,0.1,0.2,0.4,0.2,0.6c0,0.2-0.1,0.5-0.3,0.8c-0.2,0.3-0.5,0.6-0.8,0.9
			c-0.4,0.3-0.8,0.5-1.4,0.7c-0.6,0.2-1.2,0.3-1.9,0.3c-0.1,0-0.2,0-0.3,0V688z M131.1,685.1h-2.4c0,0.6,0.1,1.1,0.4,1.6
			c0.2,0.5,0.5,0.8,0.9,1c0.3,0.2,0.7,0.3,1.1,0.3v1.7c-1.5-0.1-2.7-0.5-3.6-1.4c-0.9-0.9-1.4-2.2-1.4-3.9c0-0.8,0.1-1.5,0.3-2.1
			c0.2-0.7,0.6-1.2,1-1.7c0.4-0.5,1-0.8,1.6-1.1c0.6-0.2,1.3-0.4,2-0.4v1.8h0c-0.6,0-1.2,0.2-1.6,0.7c-0.4,0.4-0.7,1.1-0.8,2l0,0
			h2.4V685.1z"/>
		<path class="st8" d="M145.6,686.3c0,0.7-0.2,1.3-0.5,1.8c-0.3,0.5-0.9,0.9-1.5,1.2c-0.7,0.3-1.5,0.4-2.5,0.4
			c-0.9,0-1.7-0.1-2.4-0.4c-0.7-0.3-1.2-0.6-1.5-1.1c-0.3-0.4-0.5-0.9-0.5-1.3c0-0.3,0.1-0.5,0.3-0.7c0.2-0.2,0.5-0.3,0.8-0.3
			c0.3,0,0.5,0.1,0.6,0.2c0.1,0.1,0.3,0.3,0.4,0.6c0.3,0.5,0.6,0.8,1,1c0.4,0.2,0.9,0.3,1.5,0.3c0.5,0,0.9-0.1,1.3-0.3
			c0.3-0.2,0.5-0.5,0.5-0.8c0-0.5-0.2-0.8-0.5-1c-0.3-0.2-0.9-0.4-1.7-0.6c-0.9-0.2-1.6-0.5-2.2-0.7c-0.6-0.2-1-0.6-1.3-1
			c-0.3-0.4-0.5-0.9-0.5-1.5c0-0.5,0.2-1,0.5-1.5c0.3-0.5,0.8-0.8,1.4-1.1c0.6-0.3,1.3-0.4,2.2-0.4c0.7,0,1.3,0.1,1.8,0.2
			c0.5,0.1,1,0.3,1.3,0.6c0.4,0.2,0.6,0.5,0.8,0.8c0.2,0.3,0.3,0.6,0.3,0.8c0,0.3-0.1,0.5-0.3,0.7c-0.2,0.2-0.5,0.3-0.9,0.3
			c-0.3,0-0.5-0.1-0.7-0.2c-0.2-0.2-0.4-0.4-0.6-0.7c-0.2-0.3-0.4-0.5-0.7-0.6c-0.3-0.2-0.6-0.2-1.1-0.2c-0.5,0-0.9,0.1-1.2,0.3
			c-0.3,0.2-0.5,0.4-0.5,0.7c0,0.3,0.1,0.5,0.3,0.7c0.2,0.2,0.5,0.3,0.9,0.4c0.4,0.1,0.9,0.3,1.6,0.4c0.8,0.2,1.5,0.4,2,0.7
			c0.5,0.3,0.9,0.6,1.2,1C145.5,685.4,145.6,685.8,145.6,686.3z"/>
		<path class="st8" d="M148.3,677.9c-0.4,0-0.7-0.1-0.9-0.3c-0.3-0.2-0.4-0.5-0.4-0.9c0-0.4,0.1-0.7,0.4-0.9
			c0.3-0.2,0.6-0.4,0.9-0.4c0.3,0,0.6,0.1,0.9,0.3c0.3,0.2,0.4,0.5,0.4,0.9c0,0.4-0.1,0.7-0.4,0.9
			C148.9,677.8,148.6,677.9,148.3,677.9L148.3,677.9z M149.5,680.6L149.5,680.6v7.5c0,0.5-0.1,0.9-0.4,1.2c-0.2,0.3-0.6,0.4-0.9,0.4
			c-0.4,0-0.7-0.1-0.9-0.4c-0.2-0.3-0.4-0.7-0.4-1.2v-7.4c0-0.5,0.1-0.9,0.4-1.2c0.2-0.3,0.5-0.4,0.9-0.4c0.4,0,0.7,0.1,0.9,0.4
			C149.4,679.8,149.5,680.2,149.5,680.6z"/>
		<path class="st8" d="M160.9,681v7.5c0,0.9-0.1,1.6-0.3,2.2c-0.2,0.6-0.5,1.1-0.9,1.5c-0.4,0.4-0.9,0.7-1.6,0.9
			c-0.6,0.2-1.4,0.3-2.3,0.3v-1.8c0.6,0,1-0.1,1.3-0.3c0.4-0.2,0.6-0.4,0.8-0.8c0.1-0.3,0.2-0.7,0.3-1.1c0-0.4,0-1,0.1-1.8
			c-0.4,0.6-0.9,1-1.4,1.3c-0.3,0.2-0.7,0.3-1.1,0.4v-1.9c0.4,0,0.8-0.1,1.2-0.3c0.4-0.2,0.7-0.6,0.9-1c0.2-0.5,0.4-1,0.4-1.7
			c0-1.1-0.2-1.9-0.7-2.5c-0.5-0.6-1.1-0.9-1.8-0.9v-1.9c0.4,0.1,0.8,0.2,1.1,0.4c0.5,0.3,1,0.7,1.5,1.3v-0.4c0-0.5,0.1-0.8,0.3-1
			c0.2-0.2,0.5-0.4,0.9-0.4c0.5,0,0.8,0.2,1,0.5C160.8,680,160.9,680.4,160.9,681z M155.9,693.5l-0.2,0c-0.9,0-1.7-0.1-2.4-0.4
			c-0.7-0.3-1.2-0.6-1.6-1c-0.4-0.4-0.6-0.8-0.6-1.2c0-0.3,0.1-0.6,0.3-0.8c0.2-0.2,0.5-0.3,0.8-0.3c0.4,0,0.7,0.2,1,0.5
			c0.1,0.2,0.3,0.3,0.4,0.5c0.1,0.2,0.3,0.3,0.5,0.4c0.2,0.1,0.4,0.2,0.7,0.3c0.3,0.1,0.5,0.1,0.9,0.1c0.1,0,0.1,0,0.2,0V693.5
			L155.9,693.5z M155.9,689.4c-0.3,0-0.5,0.1-0.8,0.1c-0.9,0-1.6-0.2-2.3-0.7c-0.6-0.4-1.1-1.1-1.5-1.9c-0.3-0.8-0.5-1.7-0.5-2.8
			c0-0.8,0.1-1.5,0.3-2.1c0.2-0.6,0.5-1.2,0.9-1.6c0.4-0.4,0.8-0.8,1.4-1c0.5-0.2,1.1-0.3,1.7-0.3c0.3,0,0.6,0,0.8,0.1v1.9l0,0
			c-0.7,0-1.3,0.3-1.8,0.8c-0.4,0.6-0.7,1.4-0.7,2.4l0,0c0,1.1,0.2,1.8,0.7,2.4c0.5,0.5,1.1,0.8,1.8,0.8h0V689.4z"/>
		<path class="st8" d="M165,680.6v0.3c0.5-0.6,1-1,1.5-1.3c0.5-0.3,1.2-0.4,1.9-0.4c0.7,0,1.3,0.1,1.8,0.4c0.5,0.3,0.9,0.7,1.2,1.3
			c0.2,0.3,0.3,0.7,0.3,1c0.1,0.4,0.1,0.8,0.1,1.4v4.8c0,0.5-0.1,0.9-0.4,1.2c-0.2,0.3-0.5,0.4-0.9,0.4c-0.4,0-0.7-0.1-0.9-0.4
			c-0.2-0.3-0.4-0.7-0.4-1.2v-4.3c0-0.9-0.1-1.5-0.4-2c-0.2-0.5-0.7-0.7-1.4-0.7c-0.5,0-0.9,0.1-1.3,0.4c-0.4,0.3-0.7,0.7-0.8,1.1
			c-0.1,0.4-0.2,1.1-0.2,2.2v3.3c0,0.5-0.1,0.9-0.4,1.2c-0.2,0.3-0.6,0.4-0.9,0.4c-0.4,0-0.7-0.1-0.9-0.4c-0.2-0.3-0.4-0.7-0.4-1.2
			v-7.5c0-0.5,0.1-0.9,0.3-1.1c0.2-0.2,0.5-0.4,0.9-0.4c0.2,0,0.4,0.1,0.6,0.2c0.2,0.1,0.3,0.3,0.4,0.5C165,680,165,680.3,165,680.6
			z"/>
		<path class="st8" d="M180.8,685.1h-2.7v-1.5h2.4c-0.1-0.9-0.3-1.5-0.7-2c-0.4-0.4-1-0.7-1.6-0.7v-1.8h0.1c1,0,1.9,0.2,2.6,0.6
			c0.7,0.4,1.3,1,1.6,1.7c0.4,0.7,0.5,1.4,0.5,2.1c0,0.7-0.2,1.1-0.6,1.3C182,685,181.5,685.1,180.8,685.1L180.8,685.1z M178.1,688
			c0.1,0,0.1,0,0.2,0c0.3,0,0.6,0,0.9-0.1c0.3-0.1,0.5-0.2,0.7-0.3c0.2-0.2,0.5-0.3,0.7-0.5c0.2-0.2,0.5-0.4,0.8-0.7
			c0.1-0.1,0.3-0.2,0.6-0.2c0.3,0,0.5,0.1,0.6,0.2c0.2,0.1,0.2,0.4,0.2,0.6c0,0.2-0.1,0.5-0.3,0.8c-0.2,0.3-0.5,0.6-0.8,0.9
			c-0.4,0.3-0.8,0.5-1.4,0.7c-0.6,0.2-1.2,0.3-1.9,0.3c-0.1,0-0.2,0-0.3,0V688z M178.1,685.1h-2.4c0,0.6,0.1,1.1,0.4,1.6
			c0.2,0.5,0.5,0.8,0.9,1c0.3,0.2,0.7,0.3,1.1,0.3v1.7c-1.5-0.1-2.7-0.5-3.6-1.4c-0.9-0.9-1.4-2.2-1.4-3.9c0-0.8,0.1-1.5,0.3-2.1
			c0.2-0.7,0.6-1.2,1-1.7c0.4-0.5,1-0.8,1.6-1.1c0.6-0.2,1.3-0.4,2-0.4v1.8h0c-0.6,0-1.2,0.2-1.6,0.7c-0.4,0.4-0.7,1.1-0.8,2l0,0
			h2.4V685.1z"/>
		<path class="st8" d="M191.4,688.2V688c-0.3,0.4-0.7,0.7-1,1c-0.3,0.3-0.7,0.4-1.1,0.6c-0.2,0.1-0.3,0.1-0.5,0.1v-1.9
			c0.5,0,0.9-0.1,1.2-0.4c0.4-0.2,0.7-0.6,0.9-1.1c0.2-0.5,0.3-1.1,0.3-1.8c0-0.7-0.1-1.3-0.3-1.8c-0.2-0.5-0.5-0.9-0.9-1.1
			c-0.4-0.3-0.8-0.4-1.2-0.4v-1.9c0.4,0.1,0.8,0.2,1.1,0.3c0.5,0.3,1,0.7,1.5,1.2v-3.8c0-0.5,0.1-0.9,0.3-1.2
			c0.2-0.3,0.5-0.4,0.9-0.4c0.4,0,0.7,0.1,0.9,0.4c0.2,0.3,0.3,0.6,0.3,1.1v11.4c0,0.5-0.1,0.9-0.3,1.1c-0.2,0.2-0.5,0.4-0.9,0.4
			c-0.4,0-0.6-0.1-0.9-0.4C191.5,689,191.4,688.7,191.4,688.2z M188.7,689.6c-0.3,0-0.5,0.1-0.8,0.1c-0.6,0-1.2-0.1-1.7-0.4
			c-0.5-0.3-1-0.6-1.4-1.1c-0.4-0.5-0.7-1.1-0.9-1.7c-0.2-0.7-0.3-1.4-0.3-2.1c0-1.6,0.4-2.9,1.2-3.8c0.8-0.9,1.8-1.4,3.1-1.4
			c0.3,0,0.5,0,0.8,0.1v1.9h0c-0.5,0-0.9,0.1-1.3,0.4c-0.4,0.3-0.7,0.7-0.9,1.2c-0.2,0.5-0.3,1.1-0.3,1.8l0,0c0,0.7,0.1,1.3,0.3,1.8
			c0.2,0.5,0.5,0.9,0.9,1.1c0.4,0.3,0.8,0.4,1.2,0.4h0V689.6z"/>
		<path class="st8" d="M204.6,679.2c0.2,0,0.5-0.1,0.8-0.1c0.9,0,1.6,0.2,2.3,0.6c0.6,0.4,1.2,1,1.5,1.8c0.4,0.8,0.5,1.7,0.5,2.8
			c0,0.8-0.1,1.5-0.3,2.2c-0.2,0.7-0.5,1.2-0.9,1.7c-0.4,0.5-0.8,0.9-1.4,1.1c-0.5,0.3-1.1,0.4-1.8,0.4c-0.3,0-0.5,0-0.7-0.1v-1.9
			h0.1c0.7,0,1.2-0.3,1.7-0.8c0.5-0.6,0.7-1.4,0.7-2.4c0-0.7-0.1-1.3-0.3-1.8c-0.2-0.5-0.5-0.9-0.8-1.1c-0.4-0.3-0.8-0.4-1.3-0.4
			l-0.1,0V679.2z M202,676.8v4c0.5-0.5,1-0.9,1.5-1.2c0.3-0.2,0.7-0.3,1.1-0.3v1.9c-0.5,0-0.9,0.2-1.2,0.4c-0.4,0.3-0.7,0.7-0.9,1.2
			c-0.2,0.5-0.3,1.1-0.3,1.8l0,0c0,1,0.2,1.8,0.7,2.4c0.5,0.5,1,0.8,1.8,0.8v1.9c-0.1,0-0.3-0.1-0.4-0.1c-0.4-0.1-0.7-0.2-0.9-0.4
			c-0.2-0.2-0.5-0.3-0.6-0.5c-0.2-0.2-0.4-0.4-0.7-0.7v0.3c0,0.5-0.1,0.9-0.4,1.1c-0.2,0.3-0.5,0.4-0.9,0.4c-0.4,0-0.7-0.1-0.9-0.4
			c-0.2-0.3-0.3-0.6-0.3-1.1v-11.3c0-0.5,0.1-0.9,0.3-1.2c0.2-0.3,0.5-0.4,0.9-0.4c0.4,0,0.7,0.1,0.9,0.4
			C201.9,675.9,202,676.3,202,676.8z"/>
		<path class="st8" d="M213,690l0.2-0.6l-3.2-8c-0.2-0.5-0.3-0.8-0.3-1c0-0.2,0.1-0.4,0.2-0.6c0.1-0.2,0.3-0.3,0.5-0.5
			c0.2-0.1,0.4-0.2,0.6-0.2c0.4,0,0.7,0.1,0.8,0.4c0.2,0.2,0.4,0.6,0.5,1l2.2,6.4l2.1-5.9c0.2-0.5,0.3-0.9,0.4-1.1
			c0.1-0.3,0.3-0.5,0.4-0.5c0.1-0.1,0.4-0.1,0.6-0.1c0.2,0,0.4,0.1,0.6,0.2c0.2,0.1,0.3,0.2,0.4,0.4c0.1,0.2,0.1,0.4,0.1,0.6
			c0,0.1-0.1,0.3-0.1,0.5c-0.1,0.2-0.1,0.4-0.2,0.7l-3.4,8.9c-0.3,0.8-0.6,1.4-0.9,1.8c-0.3,0.4-0.6,0.8-1.1,1
			c-0.5,0.2-1.1,0.4-1.9,0.4c-0.8,0-1.3-0.1-1.7-0.2c-0.4-0.2-0.6-0.5-0.6-0.9c0-0.3,0.1-0.5,0.3-0.7c0.2-0.2,0.4-0.2,0.8-0.2
			c0.1,0,0.3,0,0.4,0.1c0.2,0,0.3,0.1,0.4,0.1c0.3,0,0.5,0,0.7-0.1s0.3-0.2,0.5-0.5C212.7,690.8,212.8,690.4,213,690z"/>
		<path class="st8" d="M250.6,679.4h0.6v-0.8c0-0.8,0.1-1.5,0.3-1.9c0.2-0.5,0.6-0.8,1-1c0.5-0.2,1.2-0.3,2-0.3
			c1.5,0,2.3,0.4,2.3,1.1c0,0.2-0.1,0.4-0.2,0.6c-0.2,0.2-0.3,0.3-0.6,0.3c-0.1,0-0.3,0-0.5-0.1c-0.2,0-0.5-0.1-0.6-0.1
			c-0.5,0-0.8,0.1-0.9,0.4c-0.1,0.3-0.2,0.7-0.2,1.2v0.6h0.6c1,0,1.5,0.3,1.5,0.9c0,0.4-0.1,0.7-0.4,0.8c-0.3,0.1-0.6,0.2-1.1,0.2
			h-0.6v6.9c0,0.5-0.1,0.9-0.4,1.2c-0.2,0.3-0.6,0.4-0.9,0.4c-0.4,0-0.7-0.1-0.9-0.4c-0.2-0.3-0.4-0.7-0.4-1.2v-6.9h-0.7
			c-0.4,0-0.7-0.1-0.9-0.3c-0.2-0.2-0.3-0.4-0.3-0.7C249.3,679.7,249.7,679.4,250.6,679.4z"/>
		<path class="st8" d="M259.1,685.9v2.2c0,0.5-0.1,0.9-0.4,1.2c-0.2,0.3-0.6,0.4-0.9,0.4c-0.4,0-0.7-0.1-0.9-0.4
			c-0.2-0.3-0.4-0.7-0.4-1.2v-7.2c0-1.2,0.4-1.8,1.3-1.8c0.4,0,0.7,0.1,0.9,0.4c0.2,0.3,0.3,0.7,0.3,1.2c0.3-0.5,0.6-0.9,0.9-1.2
			c0.3-0.3,0.8-0.4,1.3-0.4c0.5,0,1.1,0.1,1.6,0.4c0.5,0.3,0.8,0.6,0.8,1.1c0,0.3-0.1,0.6-0.3,0.8c-0.2,0.2-0.5,0.3-0.7,0.3
			c-0.1,0-0.3-0.1-0.7-0.2c-0.4-0.1-0.7-0.2-1-0.2c-0.4,0-0.7,0.1-0.9,0.3c-0.2,0.2-0.4,0.5-0.6,0.9c-0.1,0.4-0.2,0.9-0.3,1.4
			C259.1,684.5,259.1,685.2,259.1,685.9z"/>
		<path class="st8" d="M271,685.1h-2.7v-1.5h2.4c-0.1-0.9-0.3-1.5-0.7-2c-0.4-0.4-1-0.7-1.6-0.7v-1.8h0.1c1,0,1.9,0.2,2.6,0.6
			c0.7,0.4,1.3,1,1.6,1.7c0.4,0.7,0.5,1.4,0.5,2.1c0,0.7-0.2,1.1-0.6,1.3C272.2,685,271.7,685.1,271,685.1L271,685.1z M268.3,688
			c0.1,0,0.1,0,0.2,0c0.3,0,0.6,0,0.8-0.1c0.3-0.1,0.5-0.2,0.7-0.3c0.2-0.2,0.5-0.3,0.7-0.5c0.2-0.2,0.5-0.4,0.8-0.7
			c0.1-0.1,0.3-0.2,0.6-0.2c0.3,0,0.5,0.1,0.6,0.2c0.2,0.1,0.2,0.4,0.2,0.6c0,0.2-0.1,0.5-0.3,0.8c-0.2,0.3-0.5,0.6-0.8,0.9
			c-0.4,0.3-0.8,0.5-1.4,0.7c-0.6,0.2-1.2,0.3-1.9,0.3c-0.1,0-0.2,0-0.3,0V688z M268.3,685.1h-2.3c0,0.6,0.1,1.1,0.4,1.6
			c0.2,0.4,0.5,0.8,0.9,1c0.3,0.2,0.7,0.3,1.1,0.3v1.7c-1.5-0.1-2.7-0.5-3.6-1.4c-0.9-1-1.4-2.2-1.4-3.9c0-0.8,0.1-1.5,0.3-2.1
			c0.2-0.7,0.6-1.2,1-1.7c0.4-0.5,1-0.8,1.6-1.1c0.6-0.2,1.3-0.4,2-0.4v1.8h0c-0.6,0-1.2,0.2-1.6,0.7c-0.4,0.4-0.7,1.1-0.8,2l0,0
			h2.3V685.1z"/>
		<path class="st8" d="M281.8,685.1H279v-1.5h2.3c-0.1-0.9-0.3-1.5-0.7-2c-0.4-0.4-1-0.7-1.6-0.7v-1.8h0.1c1,0,1.9,0.2,2.6,0.6
			c0.7,0.4,1.3,1,1.6,1.7c0.4,0.7,0.5,1.4,0.5,2.1c0,0.7-0.2,1.1-0.6,1.3C283,685,282.4,685.1,281.8,685.1L281.8,685.1z M279,688
			c0.1,0,0.1,0,0.2,0c0.3,0,0.6,0,0.8-0.1c0.3-0.1,0.5-0.2,0.8-0.3c0.2-0.2,0.5-0.3,0.7-0.5c0.2-0.2,0.5-0.4,0.8-0.7
			c0.1-0.1,0.3-0.2,0.6-0.2c0.3,0,0.5,0.1,0.7,0.2c0.2,0.1,0.2,0.4,0.2,0.6c0,0.2-0.1,0.5-0.3,0.8c-0.2,0.3-0.5,0.6-0.8,0.9
			c-0.4,0.3-0.8,0.5-1.4,0.7c-0.6,0.2-1.2,0.3-1.9,0.3c-0.1,0-0.2,0-0.3,0V688z M279,685.1h-2.3c0,0.6,0.1,1.1,0.4,1.6
			c0.2,0.4,0.5,0.8,0.9,1c0.3,0.2,0.7,0.3,1.1,0.3v1.7c-1.5,0-2.7-0.5-3.6-1.4c-0.9-1-1.4-2.2-1.4-3.9c0-0.8,0.1-1.5,0.3-2.1
			c0.2-0.7,0.6-1.2,1-1.7c0.4-0.5,1-0.8,1.6-1.1c0.6-0.2,1.3-0.4,2-0.4v1.8h0c-0.6,0-1.2,0.2-1.6,0.7c-0.4,0.4-0.7,1.1-0.8,2l0,0
			h2.3V685.1z"/>
		<path class="st8" d="M290.1,679.2c0.2,0,0.5-0.1,0.7-0.1c0.8,0,1.5,0.2,2.2,0.6c0.7,0.4,1.2,1,1.6,1.8c0.4,0.8,0.6,1.7,0.6,2.8
			c0,0.8-0.1,1.5-0.3,2.2c-0.2,0.7-0.5,1.2-0.9,1.7c-0.4,0.5-0.9,0.8-1.4,1c-0.5,0.2-1.1,0.4-1.7,0.4c-0.2,0-0.5,0-0.7-0.1v-2h0.1
			c0.4,0,0.8-0.1,1.2-0.4c0.4-0.3,0.7-0.6,0.9-1.1c0.2-0.5,0.3-1.1,0.3-1.8l0,0c0-0.7-0.1-1.3-0.3-1.8c-0.2-0.5-0.5-0.9-0.9-1.1
			c-0.4-0.3-0.8-0.4-1.2-0.4l-0.1,0V679.2z M287.4,680.6v0.3c0.5-0.6,1-1,1.5-1.3c0.3-0.2,0.7-0.3,1.1-0.4v1.9
			c-0.7,0-1.3,0.3-1.7,0.8c-0.5,0.6-0.7,1.4-0.7,2.5c0,1,0.2,1.8,0.7,2.4c0.5,0.6,1,0.8,1.7,0.9v2c-0.4-0.1-0.8-0.2-1.2-0.4
			c-0.5-0.3-1-0.7-1.4-1.3v3.9c0,1.1-0.4,1.7-1.2,1.7c-0.5,0-0.8-0.1-1-0.4c-0.2-0.3-0.2-0.7-0.2-1.3v-11.2c0-0.5,0.1-0.9,0.3-1.1
			c0.2-0.2,0.5-0.4,0.9-0.4c0.4,0,0.7,0.1,0.9,0.4C287.3,679.8,287.4,680.1,287.4,680.6z"/>
		<path class="st8" d="M297.8,677.9c-0.4,0-0.7-0.1-0.9-0.3c-0.3-0.2-0.4-0.5-0.4-0.9c0-0.4,0.1-0.7,0.4-0.9
			c0.3-0.2,0.6-0.4,0.9-0.4c0.3,0,0.6,0.1,0.9,0.3c0.3,0.2,0.4,0.5,0.4,0.9c0,0.4-0.1,0.7-0.4,0.9
			C298.4,677.8,298.1,677.9,297.8,677.9L297.8,677.9z M299,680.6L299,680.6v7.5c0,0.5-0.1,0.9-0.4,1.2c-0.3,0.3-0.6,0.4-0.9,0.4
			c-0.4,0-0.7-0.1-0.9-0.4c-0.2-0.3-0.4-0.7-0.4-1.2v-7.4c0-0.5,0.1-0.9,0.4-1.2c0.2-0.3,0.5-0.4,0.9-0.4c0.4,0,0.7,0.1,0.9,0.4
			C298.9,679.8,299,680.2,299,680.6z"/>
		<path class="st8" d="M307.4,688.5l-2.3-3.8l-1.4,1.3v2.1c0,0.5-0.1,0.9-0.4,1.1c-0.3,0.3-0.6,0.4-0.9,0.4c-0.4,0-0.7-0.1-0.9-0.4
			c-0.2-0.3-0.3-0.7-0.3-1.2v-11.1c0-0.6,0.1-1,0.3-1.3c0.2-0.3,0.5-0.5,1-0.5c0.4,0,0.7,0.1,0.9,0.4c0.2,0.3,0.4,0.7,0.4,1.2v6.3
			l2.9-3.1c0.4-0.4,0.6-0.6,0.8-0.8c0.2-0.1,0.4-0.2,0.7-0.2c0.3,0,0.6,0.1,0.8,0.3c0.2,0.2,0.3,0.5,0.3,0.8c0,0.4-0.4,0.9-1.1,1.5
			l-1.4,1.3l2.7,4.2c0.2,0.3,0.3,0.5,0.4,0.7c0.1,0.2,0.1,0.3,0.1,0.5c0,0.4-0.1,0.7-0.3,1c-0.2,0.2-0.5,0.4-0.9,0.4
			c-0.3,0-0.6-0.1-0.7-0.3C307.9,689.3,307.7,688.9,307.4,688.5z"/>
		<path class="st8" d="M313,689.7c-0.4,0-0.7-0.1-1-0.4c-0.3-0.3-0.4-0.6-0.4-1.1c0-0.4,0.1-0.7,0.4-1c0.3-0.3,0.6-0.4,1-0.4
			c0.4,0,0.7,0.1,1,0.4c0.3,0.3,0.4,0.6,0.4,1c0,0.5-0.1,0.8-0.4,1.1C313.7,689.6,313.4,689.7,313,689.7z"/>
		<path class="st8" d="M325.9,686.5c0,0.3-0.1,0.7-0.3,1c-0.2,0.4-0.5,0.7-0.9,1c-0.4,0.3-0.9,0.6-1.5,0.8c-0.6,0.2-1.3,0.3-2,0.3
			c-1.6,0-2.9-0.5-3.8-1.4c-0.9-0.9-1.3-2.2-1.3-3.8c0-1.1,0.2-2,0.6-2.8c0.4-0.8,1-1.4,1.8-1.9c0.8-0.4,1.7-0.7,2.8-0.7
			c0.7,0,1.3,0.1,1.9,0.3c0.6,0.2,1,0.5,1.4,0.8c0.4,0.3,0.7,0.6,0.9,1c0.2,0.4,0.3,0.7,0.3,1c0,0.3-0.1,0.6-0.3,0.8
			c-0.2,0.2-0.5,0.3-0.8,0.3c-0.2,0-0.4-0.1-0.5-0.2c-0.1-0.1-0.3-0.3-0.5-0.5c-0.3-0.5-0.6-0.8-1-1.1c-0.3-0.2-0.8-0.4-1.3-0.4
			c-0.8,0-1.4,0.3-1.9,0.9c-0.5,0.6-0.7,1.4-0.7,2.5c0,0.5,0.1,0.9,0.2,1.3c0.1,0.4,0.3,0.8,0.5,1c0.2,0.3,0.5,0.5,0.8,0.7
			c0.3,0.2,0.7,0.2,1.1,0.2c0.5,0,1-0.1,1.3-0.4c0.4-0.2,0.7-0.6,1-1.1c0.2-0.3,0.3-0.5,0.5-0.7c0.2-0.2,0.4-0.2,0.7-0.2
			c0.3,0,0.6,0.1,0.8,0.4C325.8,685.9,325.9,686.2,325.9,686.5z"/>
		<path class="st8" d="M337.1,684.4c0,0.8-0.1,1.5-0.4,2.1c-0.2,0.7-0.6,1.2-1.1,1.7c-0.5,0.5-1,0.8-1.6,1.1
			c-0.6,0.2-1.3,0.4-2.1,0.4v-1.9c0.8,0,1.4-0.3,1.9-0.9c0.5-0.6,0.7-1.4,0.7-2.5l0,0c0-1.1-0.2-1.9-0.7-2.5
			c-0.5-0.6-1.1-0.9-1.9-0.9v-1.9c0.8,0,1.5,0.1,2.1,0.4c0.6,0.3,1.2,0.6,1.6,1.1c0.5,0.5,0.8,1,1,1.7
			C337,682.9,337.1,683.6,337.1,684.4z M332,689.7L332,689.7c-0.8,0-1.5-0.1-2.1-0.4c-0.6-0.3-1.2-0.6-1.6-1.1
			c-0.5-0.5-0.8-1-1.1-1.7c-0.2-0.6-0.4-1.4-0.4-2.1c0-0.8,0.1-1.5,0.4-2.2c0.2-0.7,0.6-1.2,1-1.7c0.5-0.5,1-0.8,1.6-1.1
			c0.6-0.3,1.3-0.4,2.1-0.4h0v1.9h0c-0.5,0-1,0.1-1.3,0.4c-0.4,0.3-0.7,0.7-0.9,1.2c-0.2,0.5-0.3,1.1-0.3,1.8c0,0.7,0.1,1.3,0.3,1.8
			c0.2,0.5,0.5,0.9,0.9,1.2c0.4,0.3,0.8,0.4,1.4,0.4h0V689.7z"/>
		<path class="st8" d="M347,684.6v3.4c0,0.5-0.1,1-0.4,1.2c-0.3,0.3-0.6,0.4-1,0.4c-0.4,0-0.7-0.1-1-0.4c-0.2-0.3-0.4-0.7-0.4-1.2
			v-4.1c0-0.7,0-1.2-0.1-1.5c0-0.4-0.2-0.7-0.4-0.9c-0.2-0.2-0.5-0.4-0.9-0.4c-0.9,0-1.4,0.3-1.7,0.9c-0.3,0.6-0.4,1.4-0.4,2.5v3.5
			c0,0.5-0.1,0.9-0.4,1.2c-0.2,0.3-0.6,0.4-1,0.4c-0.4,0-0.7-0.1-1-0.4c-0.3-0.3-0.4-0.7-0.4-1.2v-7.4c0-0.5,0.1-0.9,0.3-1.1
			c0.2-0.3,0.5-0.4,0.9-0.4c0.4,0,0.7,0.1,0.9,0.4c0.2,0.2,0.4,0.6,0.4,1v0.2c0.5-0.5,0.9-0.9,1.4-1.2c0.5-0.3,1.1-0.4,1.7-0.4
			c0.7,0,1.2,0.1,1.7,0.4c0.5,0.3,0.9,0.7,1.2,1.2c0.4-0.5,0.9-0.9,1.4-1.2c0.5-0.3,1.1-0.4,1.7-0.4c0.7,0,1.3,0.1,1.8,0.4
			c0.5,0.3,0.9,0.7,1.1,1.2c0.2,0.5,0.3,1.2,0.3,2.2v5.1c0,0.5-0.1,1-0.4,1.2c-0.2,0.3-0.6,0.4-1,0.4c-0.4,0-0.7-0.1-1-0.4
			c-0.3-0.3-0.4-0.7-0.4-1.2v-4.4c0-0.6,0-1-0.1-1.3c0-0.3-0.2-0.6-0.4-0.8c-0.2-0.2-0.5-0.3-1-0.3c-0.3,0-0.7,0.1-1,0.3
			c-0.3,0.2-0.5,0.5-0.7,0.8C347.1,682.7,347,683.5,347,684.6z"/>
		<path class="st8" d="M226.3,683.8C226.3,683.8,226.3,683.8,226.3,683.8C226.3,683.8,226.3,683.8,226.3,683.8z"/>
		<path class="st8" d="M226.4,684.6L226.4,684.6c0-0.2-0.1-0.5-0.1-0.7C226.4,684.1,226.4,684.4,226.4,684.6z"/>
		<path class="st8" d="M227.3,687C227.3,687,227.3,687,227.3,687C227.3,687,227.3,687,227.3,687z"/>
		<path class="st8" d="M227.2,686.9c0,0,0-0.1-0.1-0.1C227.2,686.8,227.2,686.8,227.2,686.9z"/>
		<path class="st8" d="M226.7,685.5c0.1,0.4,0.3,0.8,0.5,1.2C227,686.3,226.8,685.9,226.7,685.5L226.7,685.5z"/>
		<path class="st8" d="M236.3,673.9c0.5,0,0.9,0,1.3,0.1l0.1-0.8c0,0-1.2-0.4-2.7-0.2l-0.1-0.4c0.5-0.1,0.8-0.5,0.8-1
			c0-0.6-0.5-1.1-1.1-1.1c-0.6,0-1.1,0.5-1.1,1.1c0,0.5,0.4,0.9,0.8,1l0.1,0.5c-1.6,0.2-2.9,0.9-2.9,0.9l0.2,0.7
			c1-0.3,1.8-0.5,2.6-0.6C235.3,673.9,235.9,673.9,236.3,673.9z"/>
		<path class="st8" d="M227.3,677.7L227.3,677.7c0-0.1,0.1-0.1,0.1-0.2l-0.3-0.2l-0.5-0.4c0,0-0.8,0.7-1.4,2c0,0-0.1-0.1-0.1-0.1
			c-0.2-0.2-0.4-0.3-0.8-0.3h0c-0.2,0-0.3-0.1-0.4-0.1c0.1-0.1,0.1-0.3,0.1-0.4c0-0.4-0.3-0.7-0.7-0.7c-0.4,0-0.7,0.3-0.7,0.7
			c0,0.4,0.3,0.7,0.7,0.7c0.1,0,0.1,0,0.2,0c0.2,0.2,0.4,0.3,0.8,0.3c0.2,0,0.3,0,0.4,0.2c0.1,0.1,0.1,0.3,0.2,0.4c0,0,0,0,0,0
			c-0.4,1.2-0.3,2.7-0.3,2.7l1.1,0c0-0.5,0.1-1.5,0.4-2.2C226.6,678.7,227.2,677.7,227.3,677.7z"/>
		<path class="st8" d="M245.5,674.7c-0.4,0-0.7,0.3-0.7,0.7c0,0.1,0,0.1,0,0.2c-0.2,0.2-0.3,0.4-0.3,0.8c0,0.2,0,0.3-0.2,0.4
			c-0.1,0.1-0.2,0.1-0.3,0.1c-0.8-1.1-1.8-1.8-1.8-1.8l-0.8,0.8c0.6,0.5,1.2,1.2,1.7,2c0.4,0.6,0.8,1.3,1.1,2l1-0.5
			c0,0-0.5-1.2-1.1-2.2c0.1,0,0.2-0.1,0.3-0.2c0.2-0.2,0.3-0.4,0.3-0.8c0-0.2,0.1-0.3,0.1-0.4c0.1,0.1,0.3,0.1,0.4,0.1
			c0.4,0,0.7-0.3,0.7-0.7C246.2,675,245.9,674.7,245.5,674.7z"/>
		<path class="st8" d="M242.9,683.9c-1.4,0.7-3.7,1.6-6.8,2c-1.2,0.2-2.4,0.2-3.4,0.2c-1.4,0-2.6-0.1-3.6-0.2
			c-1.1-0.1-1.9-0.3-2.4-0.4c0.1,0.4,0.3,0.8,0.5,1.2c0,0,0,0,0,0c0,0,0,0.1,0.1,0.1c0,0,0,0.1,0.1,0.1c0,0,0,0,0,0
			c0.3,0.6,0.7,1.1,1.1,1.6c1.4,1.6,2.9,1.8,2.9,1.8l0,0l0,0c0,0,1.3,0.4,3.3,0.4c1.9,0,3.9-0.4,5.7-1.2c1.3-0.7,2.6-1.7,3.3-2.7
			c0.5-0.7,0.8-1.5,1.1-2.3c0.1-0.4,0.2-1.1,0.1-1.8C244.4,683.1,243.7,683.5,242.9,683.9z"/>
		<path class="st8" d="M240,684.2c1-0.3,1.8-0.7,2.5-1c1.1-0.5,1.8-1,2.1-1.2c-0.3-1-1-2.6-1.7-3.6c-1-1.4-2-2.3-2.9-2.8v1.9
			c1,0,1.7,0.8,1.7,1.7c0,1-0.8,1.7-1.7,1.7V684.2z M231.8,685.3c1.3,0,2.7,0,4.2-0.2c1.5-0.2,2.9-0.6,4-0.9v-3.3h0
			c-1,0-1.7-0.8-1.7-1.7c0-1,0.8-1.7,1.7-1.7l0,0h0v-1.9c-1-0.6-1.8-0.9-2.4-1c-0.4-0.1-0.8-0.1-1.2-0.1c-0.4,0-1,0-1.7,0.1
			c-0.7,0.1-1.6,0.3-2.5,0.6c-0.1,0-0.2,0.1-0.3,0.1v2.1c1.6,0,2.8,1.3,2.8,2.8c0,1.6-1.3,2.8-2.8,2.8V685.3z M227.7,678
			c0,0.1-0.7,0.9-1.1,2.3c-0.4,1-0.3,2.4-0.3,2.5v0c0,0.3,0,0.7,0.1,1c0,0,0,0,0,0c0,0,0,0.1,0,0.1c0,0.2,0.1,0.5,0.1,0.7
			c0.5,0.1,2.6,0.6,5.3,0.7v-2.4h0c-1.6,0-2.8-1.3-2.8-2.8c0-1.6,1.3-2.8,2.8-2.8l0,0h0v-2.1c-1.2,0.5-2.3,1.1-3.2,1.9l0,0
			C228.4,677.3,228.1,677.6,227.7,678z"/>
	</g>
	<path class="st0" d="M273.3,371.1L273.3,371.1c-10.4,5.8-14.1,19-8.3,29.4l48.2,86.1c5.8,10.4,19,14.1,29.4,8.3l0,0
		c10.4-5.8,14.1-19,8.3-29.4l-48.2-86.1C296.9,369.1,283.7,365.3,273.3,371.1z"/>
	<polygon class="st4" points="148.7,506.1 221.8,476.4 289.8,506.1 271.2,612.3 167.3,612.3 	"/>
	<path class="st0" d="M181.7,359.8H256c18.6,0,33.8,15.2,33.8,33.8v112.6H147.9V393.5C147.9,374.9,163.1,359.8,181.7,359.8z"/>
	<path class="st0" d="M180.4,371.1L180.4,371.1c10.4,5.8,14.1,19,8.3,29.4l-48.2,86.1c-5.8,10.4-19,14.1-29.4,8.3l0,0
		c-10.4-5.8-14.1-19-8.3-29.4l48.2-86.1C156.8,369.1,170.1,365.3,180.4,371.1z"/>
	<polygon class="st3" points="181.7,359.8 218.8,430.7 256,359.8 	"/>
	<path class="st9" d="M218.8,377.7c20.5,0,37.1-9,37.1-20c0-11-16.7-20-37.1-20c-20.5,0-37.1,9-37.1,20
		C181.7,368.7,198.4,377.7,218.8,377.7z"/>
	<g>
		<path class="st0" d="M176.7,224.4H261c14,0,25.5,11.5,25.5,25.5v56c0,14-11.5,25.5-25.5,25.5h-84.3c-14,0-25.5-11.5-25.5-25.5v-56
			C151.2,235.8,162.7,224.4,176.7,224.4z"/>
		<path class="st10" d="M185.5,237.8h66.8c16.7,0,30.3,13.7,30.3,30.3v66.8c0,16.7-13.7,30.3-30.3,30.3h-66.8
			c-16.7,0-30.3-13.7-30.3-30.3v-66.8C155.1,251.5,168.8,237.8,185.5,237.8z"/>
		<g>
			
				<ellipse transform="matrix(-0.2942 -0.9558 0.9558 -0.2942 -99.0541 542.6647)" class="st10" cx="150.9" cy="307.9" rx="20.8" ry="10.9"/>
			
				<ellipse transform="matrix(0.2942 -0.9557 0.9557 0.2942 -91.827 491.474)" class="st10" cx="286.8" cy="307.9" rx="20.8" ry="10.9"/>
		</g>
		<path class="st11" d="M250.3,316.3c6.5,0,11.7-3.6,11.7-8s-5.3-8-11.7-8c-6.5,0-11.7,3.6-11.7,8S243.9,316.3,250.3,316.3z"/>
		<path class="st0" d="M207.2,291.9c-5.7-11.9-25.7-12.5-31.6-3.3C184.4,284.9,197.6,285.7,207.2,291.9z"/>
		<path class="st11" d="M187.4,316.3c6.5,0,11.7-3.6,11.7-8s-5.3-8-11.7-8c-6.5,0-11.7,3.6-11.7,8S180.9,316.3,187.4,316.3z"/>
		<path class="st3" d="M241.2,324.4c-0.1,15.4-10.1,27.8-22.4,27.8c-12.3,0-22.3-12.4-22.4-27.8c6.2,3.8,13.9,6,22.4,6
			C227.3,330.5,235.1,328.2,241.2,324.4z"/>
		<path class="st0" d="M230.5,291.9c5.7-11.9,25.7-12.5,31.6-3.3C253.3,284.9,240.1,285.7,230.5,291.9z"/>
		<path class="st0" d="M155.2,266.1c2.4-46.3,146,14.7,133.2-57.1C274.8,248,138.6,196.4,155.2,266.1z"/>
	</g>
	<path class="st10" d="M342.7,624.1c23.2,0,42.2-36.7,42.2-81.7s-19-81.7-42.2-81.7s-42.2,36.7-42.2,81.7S319.5,624.1,342.7,624.1z"
		/>
	<path class="st9" d="M342.7,624.6c0.1-36.1,4.7-85.2,14.6-128.5c-2,8.7-7.8,15-14.6,15c-6.9,0-12.7-6.3-14.7-15.1
		C338,539.2,342.6,588.5,342.7,624.6z"/>
	<polygon class="st1" points="272.2,546.6 413.3,546.6 370.2,400.7 315.2,400.7 	"/>
	<path class="st9" d="M342.7,423.8c16.3,0,29.6-8.3,29.6-18.4c0-10.1-13.3-18.4-29.6-18.4c-16.3,0-29.6,8.3-29.6,18.4
		C313.1,415.6,326.4,423.8,342.7,423.8z"/>
	<g>
		<path class="st6" d="M346.6,280.1c67.2,0,46.3,68.8,85.6,63.9c0,85.8-178.9,85.8-178.9,0C287.7,343.7,279.4,280.1,346.6,280.1z"/>
		<path class="st10" d="M342.7,412.8c33.4,0,60.7-27.3,60.7-60.7s-27.3-60.7-60.7-60.7S282,318.7,282,352.1S309.3,412.8,342.7,412.8
			z"/>
		<g>
			<path class="st0" d="M357.2,355.1c12.9-14.7,22.4,0.4,31.6-4.6C383.6,360.2,371.2,346.3,357.2,355.1z"/>
			<path class="st11" d="M374.2,374.9c6.5,0,11.7-3.6,11.7-8c0-4.4-5.3-8-11.7-8c-6.5,0-11.7,3.6-11.7,8
				C362.5,371.3,367.7,374.9,374.2,374.9z"/>
			<path class="st12" d="M328.3,355.1c-12.9-14.7-22.4,0.4-31.6-4.6C301.8,360.2,314.2,346.3,328.3,355.1z"/>
			<path class="st11" d="M311.2,374.9c6.5,0,11.7-3.6,11.7-8c0-4.4-5.3-8-11.7-8c-6.5,0-11.7,3.6-11.7,8
				C299.5,371.3,304.8,374.9,311.2,374.9z"/>
		</g>
		
			<ellipse transform="matrix(-0.2942 -0.9557 0.9557 -0.2942 21.7301 739.3464)" class="st10" cx="283.9" cy="361.6" rx="20.8" ry="10.9"/>
		
			<ellipse transform="matrix(0.2942 -0.9557 0.9557 0.2942 -63.2101 637.7051)" class="st10" cx="400.2" cy="361.6" rx="20.8" ry="10.9"/>
		<path class="st6" d="M391.9,307.5c-10.1,24.3-62.7,63.7-124.4,48.6C282.5,301.2,336.4,259.1,391.9,307.5z"/>
		<path class="st13" d="M354.2,384c-0.1,7.9-5.2,14.2-11.4,14.2c-6.3,0-11.4-6.4-11.4-14.2c3.1,1.9,7.1,3.1,11.4,3.1
			C347,387.1,351,385.9,354.2,384z"/>
	</g>
	<path class="st0" d="M263.6,579.6c24.5,0,44.3,14.7,44.3,32.8c0,0.2,0,0.3,0,0.5h-88.7c0-0.2,0-0.3,0-0.5
		C219.2,594.3,239.1,579.6,263.6,579.6z"/>
	<path class="st0" d="M174.9,579.6c-24.5,0-44.3,14.7-44.3,32.8c0,0.2,0,0.3,0,0.5h88.7c0-0.2,0-0.3,0-0.5
		C219.2,594.3,199.4,579.6,174.9,579.6z"/>
	<path class="st14" d="M126.5,624.1c25.4,0,46.2-9,46.2-20c0-11-20.7-20-46.2-20s-46.2,9-46.2,20
		C80.4,615.1,101.1,624.1,126.5,624.1z"/>
	<path class="st14" d="M96.4,601.2c-21.3-13.8-34.6-31.5-30.6-57.9c7.6,24.6,11.4,35.7,35.3,48.4c2.6,1.3,3.7,4.5,2.4,7.1
		C102.2,601.4,99,602.5,96.4,601.2z"/>
	<path class="st15" d="M126.5,624.1c22.4,0,40.7-24.8,40.7-55.2c0-30.4-18.3-55.2-40.7-55.2c-22.4,0-40.7,24.8-40.7,55.2
		C85.9,599.3,104.1,624.1,126.5,624.1z"/>
	<path class="st0" d="M126.5,513.6c15.5,0,29,11.9,35.9,29.3c-9.1,12.7-22.7,21.1-36.6,21.1c-13.5,0-26.6-7.9-35.7-19.9
		C96.9,526,110.6,513.6,126.5,513.6z"/>
	<g>
		<path class="st15" d="M170.5,503.2c0,27.7-21.8,52.3-44.7,52.3c-22.9,0-44.7-24.6-44.7-52.3C81.1,451.8,170.5,451.8,170.5,503.2z"
			/>
		<path class="st14" d="M81.9,466.2c-3.5-6.3-14.8-4-25.2,5.2c-10.5,9.2-16.2,21.7-12.7,28c3.5,6.3,14.8,4,25.2-5.2
			C79.7,485,85.4,472.5,81.9,466.2z"/>
		<path class="st14" d="M71.6,464c-3.2,3.3-0.1,11.9,6.9,19.1c7,7.3,15.4,10.5,18.6,7.2c3.2-3.3,0.1-11.9-6.9-19.1
			C83.1,463.9,74.8,460.7,71.6,464z"/>
		<path class="st14" d="M85,523.3c-2.5-6.3-3.9-13.1-3.9-20.2c0-24.5,20.4-37.3,41.7-38.4c3.2,5.9,5,12.9,5,20.3
			c0,21.7-15.7,39.3-35,39.3C90.1,524.3,87.5,524,85,523.3z"/>
		<line class="st16" x1="125.8" y1="521.5" x2="125.8" y2="538.7"/>
		<path class="st17" d="M117.3,518.9c2.7-0.7,5.5-1.1,8.5-1.1c2.9,0,5.8,0.4,8.5,1.1c-0.9,5.5-4.4,9.7-8.5,9.7
			C121.7,528.6,118.2,524.5,117.3,518.9z"/>
		<path class="st16" d="M141.3,531.2c-6,10-25.4,9.9-31,0"/>
		<path class="st15" d="M171.1,466.2c3.5-6.3,14.8-4,25.2,5.2c10.5,9.2,16.2,21.7,12.7,28c-3.5,6.3-14.8,4-25.2-5.2
			C173.4,485,167.7,472.5,171.1,466.2z"/>
		<path class="st15" d="M181.5,464c3.2,3.3,0.1,11.9-6.9,19.1c-7,7.3-15.4,10.5-18.6,7.2c-3.2-3.3-0.1-11.9,6.9-19.1
			C169.9,463.9,178.2,460.7,181.5,464z"/>
	</g>
	<g>
		<path class="st12" d="M117.8,510.5c-3.6-7.6-16.4-8-20.2-2.1C103.2,506.1,111.7,506.6,117.8,510.5z"/>
		<path class="st12" d="M135.2,510.5c3.6-7.6,16.4-8,20.2-2.1C149.8,506.1,141.3,506.6,135.2,510.5z"/>
	</g>
	<path class="st15" d="M147.2,608.6c11.4,0,20.7,6.8,20.7,15.3c0,0.1,0,0.2,0,0.2h-41.4c0-0.1,0-0.2,0-0.2
		C126.5,615.4,135.8,608.6,147.2,608.6z"/>
	<path class="st15" d="M105.8,608.6c-11.4,0-20.7,6.8-20.7,15.3c0,0.1,0,0.2,0,0.2h41.4c0-0.1,0-0.2,0-0.2
		C126.5,615.4,117.3,608.6,105.8,608.6z"/>
	<path class="st14" d="M126.5,624.1c0.1-10,4.4-23.6,13.7-35.5c-1.9,2.4-7.3,4.1-13.7,4.1c-6.4,0-11.8-1.8-13.7-4.2
		C122.1,600.5,126.5,614.1,126.5,624.1z"/>
	<path class="st18" d="M219.2,612.8c0.1-19.7,8.6-46.6,27-70.2c-3.7,4.7-14.4,8.2-27,8.2c-12.7,0-23.4-3.5-27.1-8.3
		C210.5,566.2,219.1,593.1,219.2,612.8z"/>
	<path class="st1" d="M369.6,603.9c14.8,0,26.9,8.9,26.9,19.9c0,0.1,0,0.2,0,0.3h-53.7c0-0.1,0-0.2,0-0.3
		C342.7,612.8,354.8,603.9,369.6,603.9z"/>
	<path class="st1" d="M315.9,603.9c-14.8,0-26.9,8.9-26.9,19.9c0,0.1,0,0.2,0,0.3h53.7c0-0.1,0-0.2,0-0.3
		C342.7,612.8,330.7,603.9,315.9,603.9z"/>
	<path class="st10" d="M382.7,519.5c25.9-6.2,34.7-29.4,31.1-56c-3.6-27.1-11.4-49.5-38.5-52.8c1.2,0.6-0.9,0.2-2,0.3l18.5,62.6
		c-2.8,16.5,3.6,33.8-30.3,41.4C361.8,522.6,371.3,522.2,382.7,519.5z"/>
	<g>
		
			<ellipse transform="matrix(0.8526 -0.5226 0.5226 0.8526 -189.1775 257.9232)" class="st19" cx="362.5" cy="464.3" rx="72.2" ry="46.3"/>
		
			<ellipse transform="matrix(0.8526 -0.5226 0.5226 0.8526 -174.2711 271.705)" class="st3" cx="394.4" cy="444.7" rx="29.7" ry="33.6"/>
		
			<ellipse transform="matrix(0.8526 -0.5226 0.5226 0.8526 -174.2708 271.7021)" class="st10" cx="394.4" cy="444.7" rx="24.1" ry="27.2"/>
		<g>
			
				<ellipse transform="matrix(0.8527 -0.5224 0.5224 0.8527 -179.6492 275.2892)" class="st11" cx="398.3" cy="456.2" rx="4.5" ry="6.6"/>
			<path class="st12" d="M395.1,439.2c2.7-4.2-1-10.7-5.1-10.8C392.8,430.5,395.1,434.9,395.1,439.2z"/>
			<path class="st20" d="M389.4,457.6c-4.6-1.8-8.8-9.2-8.8-14.3C382.6,447.9,386.2,453.8,389.4,457.6z"/>
			<path class="st12" d="M399.6,446.6c4.9-0.5,9,5.8,7.3,9.4C406.3,452.6,403.5,448.5,399.6,446.6z"/>
			<path class="st20" d="M384.6,455.3c-2.1-0.8-4.1-4.3-4.1-6.6C381.4,450.8,383.1,453.5,384.6,455.3z"/>
			
				<ellipse transform="matrix(0.8525 -0.5227 0.5227 0.8525 -171.0054 266.044)" class="st11" cx="386" cy="436.1" rx="4.5" ry="6.6"/>
		</g>
		<g>
			
				<ellipse transform="matrix(0.9339 -0.3576 0.3576 0.9339 -140.3087 177.0739)" class="st10" cx="408.6" cy="467.9" rx="7.7" ry="4.1"/>
			
				<ellipse transform="matrix(0.7424 -0.6699 0.6699 0.7424 -184.461 363.2865)" class="st10" cx="380.2" cy="421.5" rx="7.7" ry="4.1"/>
		</g>
		<path class="st3" d="M343.6,475.9c9.1-5.4,25.1-6.8,44.1-0.2c-3.8-1.4-10.1-8.1-15.7-17.2c-5.6-9.1-8.8-17.8-8.2-21.8
			C361.1,456.6,352.5,470.3,343.6,475.9z"/>
	</g>
	<path class="st10" d="M314.3,526.1c-26.6-3.2-44.5-31.1-44.5-59.2c0-28.6,19.5-52.6,45.9-59.6c-1.1,0.8-2.2,1.6-3.2,2.4l-20.8,70.6
		c5,16.8,8.4,34.8,43.1,38.4C335.4,526.8,325.9,527.5,314.3,526.1z"/>
	<path class="st10" d="M322.1,526.5c7.5,0,13.6-4.5,13.6-10c0-5.5-6.1-10-13.6-10c-7.5,0-13.6,4.5-13.6,10
		C308.5,522,314.6,526.5,322.1,526.5z"/>
	<path class="st10" d="M372,521.3c7.5,0,13.6-4.5,13.6-10c0-5.5-6.1-10-13.6-10c-7.5,0-13.6,4.5-13.6,10
		C358.4,516.9,364.5,521.3,372,521.3z"/>
	<g>
		<path class="st6" d="M55,90.6c18.1,0,32.8-14.8,32.8-32.8S73,24.9,55,24.9S22.1,39.7,22.1,57.8S36.9,90.6,55,90.6z"/>
		<path class="st6" d="M55,0l5,18.5c-1.6-0.2-3.3-0.3-5-0.3c-1.7,0-3.3,0.1-5,0.3L55,0L55,0z M74,23.1l14.9-12l-6.9,17.9
			C79.6,26.6,77,24.7,74,23.1L74,23.1z M90.8,40.9l19.1-1l-16,10.4C93.2,47,92.2,43.9,90.8,40.9L90.8,40.9z M93.9,65.2l16,10.4
			l-19.1-1C92.2,71.7,93.2,68.5,93.9,65.2L93.9,65.2z M82.1,86.7l6.9,17.9L74,92.5C77,90.9,79.7,88.9,82.1,86.7L82.1,86.7z
			 M59.9,97.1l-5,18.5l-5-18.5c1.6,0.2,3.3,0.3,5,0.3C56.6,97.4,58.3,97.3,59.9,97.1L59.9,97.1z M35.9,92.5l-14.9,12l6.9-17.9
			C30.3,88.9,32.9,90.9,35.9,92.5L35.9,92.5z M19.1,74.6L0,75.6l16-10.4C16.7,68.5,17.7,71.7,19.1,74.6L19.1,74.6z M16,50.4L0,39.9
			l19.1,1C17.7,43.9,16.7,47,16,50.4L16,50.4z M27.8,28.9L21,11l14.9,12C32.9,24.7,30.3,26.6,27.8,28.9z"/>
	</g>
	<g>
		<path class="st21" d="M409.1,87.6c10.5,0,19-6.2,19-13.8c0-7.6-8.5-13.8-19-13.8c-10.5,0-19,6.2-19,13.8
			C390.1,81.5,398.6,87.6,409.1,87.6z"/>
		<path class="st21" d="M424.5,92c8,0,14.6-4.7,14.6-10.5c0-5.8-6.5-10.5-14.6-10.5c-8,0-14.6,4.7-14.6,10.5
			C410,87.2,416.5,92,424.5,92z"/>
		<path class="st21" d="M391.2,90.4c7.1,0,12.9-4.2,12.9-9.3c0-5.1-5.8-9.3-12.9-9.3c-7.1,0-12.9,4.2-12.9,9.3
			C378.3,86.2,384.1,90.4,391.2,90.4z"/>
		<path class="st21" d="M403.2,94.2c5.2,0,9.4-3.1,9.4-6.8c0-3.7-4.2-6.8-9.4-6.8c-5.2,0-9.4,3.1-9.4,6.8
			C393.8,91.2,398,94.2,403.2,94.2z"/>
	</g>
	<g>
		<path class="st21" d="M178.8,97.7c10.5,0,19.1-6.2,19.1-13.8c0-7.6-8.6-13.8-19.1-13.8c-10.5,0-19.1,6.2-19.1,13.8
			C159.8,91.5,168.3,97.7,178.8,97.7z"/>
		<path class="st21" d="M159.9,104.3c8,0,14.6-4.7,14.6-10.6c0-5.8-6.6-10.6-14.6-10.6c-8,0-14.6,4.7-14.6,10.6
			C145.3,99.5,151.9,104.3,159.9,104.3z"/>
		<path class="st21" d="M200.7,99.4c7.1,0,13-4.2,13-9.4c0-5.2-5.8-9.4-13-9.4c-7.1,0-13,4.2-13,9.4
			C187.8,95.2,193.6,99.4,200.7,99.4z"/>
		<path class="st21" d="M182,112c9.4,0,17.1-5.5,17.1-12.3c0-6.8-7.7-12.3-17.1-12.3c-9.4,0-17.1,5.5-17.1,12.3
			C164.9,106.4,172.6,112,182,112z"/>
	</g>
	<g>
		
			<ellipse transform="matrix(-0.1736 -0.9848 0.9848 -0.1736 -144.4868 244.1872)" class="st21" cx="30.2" cy="182.7" rx="12.5" ry="17.3"/>
		
			<ellipse transform="matrix(-0.1736 -0.9848 0.9848 -0.1736 -136.9275 269.9114)" class="st21" cx="44.8" cy="192.4" rx="12.8" ry="17.7"/>
		
			<ellipse transform="matrix(-0.1736 -0.9848 0.9848 -0.1736 -174.9946 236.3026)" class="st21" cx="11.6" cy="191.6" rx="8.5" ry="11.7"/>
		
			<ellipse transform="matrix(-0.1737 -0.9848 0.9848 -0.1737 -164.1944 261.4283)" class="st21" cx="27.6" cy="199.6" rx="9.2" ry="12.7"/>
	</g>
</g>
</svg>
