<?xml version="1.0" encoding="utf-8"?>
<!-- Generator: Adobe Illustrator 19.0.1, SVG Export Plug-In . SVG Version: 6.00 Build 0)  -->
<svg version="1.1" xmlns="http://www.w3.org/2000/svg" xmlns:xlink="http://www.w3.org/1999/xlink" x="0px" y="0px"
	 viewBox="0 0 477.1 564.5" style="enable-background:new 0 0 477.1 564.5;" xml:space="preserve">
<style type="text/css">
	.st0{fill-rule:evenodd;clip-rule:evenodd;fill:#312B2E;}
	.st1{fill-rule:evenodd;clip-rule:evenodd;fill:#428465;}
	.st2{fill-rule:evenodd;clip-rule:evenodd;fill:#325B47;}
	.st3{fill-rule:evenodd;clip-rule:evenodd;fill:#EEEEEE;}
	.st4{fill-rule:evenodd;clip-rule:evenodd;fill:#0E566E;}
	.st5{fill-rule:evenodd;clip-rule:evenodd;fill:#8CC63C;}
	.st6{fill-rule:evenodd;clip-rule:evenodd;fill:#E25A40;}
	.st7{fill-rule:evenodd;clip-rule:evenodd;fill:#86DBF7;}
	.st8{fill:#FFFFFF;}
	.st9{fill-rule:evenodd;clip-rule:evenodd;fill:#E09D89;}
	.st10{fill-rule:evenodd;clip-rule:evenodd;fill:#F1B6A4;}
	.st11{fill-rule:evenodd;clip-rule:evenodd;fill:#E8998B;}
	.st12{fill-rule:evenodd;clip-rule:evenodd;fill:#1A1A1A;}
	.st13{fill-rule:evenodd;clip-rule:evenodd;fill:#CC2908;}
	.st14{fill-rule:evenodd;clip-rule:evenodd;fill:#666666;}
	.st15{fill-rule:evenodd;clip-rule:evenodd;fill:#CCCCCC;}
	
		.st16{fill-rule:evenodd;clip-rule:evenodd;fill:#2D2D2D;stroke:#312B2E;stroke-width:2.4001;stroke-linecap:round;stroke-linejoin:round;stroke-miterlimit:22.9256;}
	.st17{fill-rule:evenodd;clip-rule:evenodd;fill:#2D2D2D;}
	.st18{fill-rule:evenodd;clip-rule:evenodd;fill:#073545;}
	.st19{fill-rule:evenodd;clip-rule:evenodd;fill:#C0EDFC;}
	.st20{fill-rule:evenodd;clip-rule:evenodd;fill:#D1917D;}
</style>
<g id="Background">
</g>
<g id="Objects">
	<g>
		<path class="st0" d="M126.4,176h-9.3v70.3c3.3,2.4,6.4,2.6,9.3,0V176z"/>
		<ellipse class="st1" cx="121.8" cy="145.7" rx="26.5" ry="42.8"/>
	</g>
	<g>
		<path class="st0" d="M106.7,189.4h-7.6v57.3c2.7,1.9,5.2,2.1,7.6,0V189.4z"/>
		<ellipse class="st2" cx="103" cy="164.7" rx="21.6" ry="34.8"/>
	</g>
	<g>
		<rect x="244.2" y="130.7" class="st1" width="211.1" height="126.8"/>
		<polygon class="st2" points="455.3,77.2 244.2,77.2 222.4,147.9 477.1,147.9 		"/>
		<rect x="311.9" y="173.9" class="st2" width="40.5" height="46.2"/>
		<rect x="318.3" y="179.7" class="st3" width="27.7" height="34.5"/>
		<rect x="328.9" y="173.9" class="st2" width="6.4" height="46.2"/>
		<rect x="259.6" y="173.9" class="st2" width="40.5" height="46.2"/>
		<rect x="266" y="179.7" class="st3" width="27.7" height="34.5"/>
		<rect x="276.7" y="173.9" class="st4" width="6.4" height="46.2"/>
		<rect x="258.4" y="214.3" class="st0" width="94" height="5.9"/>
		<path class="st5" d="M314.1,219.8c5.3,0,9.6-2.5,9.6-5.6c0-3.1-4.3-5.6-9.6-5.6c-5.3,0-9.6,2.5-9.6,5.6
			C304.5,217.3,308.8,219.8,314.1,219.8z"/>
		<path class="st5" d="M328.2,216.9c5.3,0,9.6-2.5,9.6-5.6c0-3.1-4.3-5.6-9.6-5.6c-5.3,0-9.6,2.5-9.6,5.6
			C318.6,214.4,322.9,216.9,328.2,216.9z"/>
		<path class="st5" d="M342.8,219.8c5.3,0,9.6-2.5,9.6-5.6c0-3.1-4.3-5.6-9.6-5.6c-5.3,0-9.6,2.5-9.6,5.6
			C333.3,217.3,337.6,219.8,342.8,219.8z"/>
		<path class="st5" d="M284.6,219c5.3,0,9.6-2.5,9.6-5.6c0-3.1-4.3-5.6-9.6-5.6c-5.3,0-9.6,2.5-9.6,5.6
			C275,216.5,279.3,219,284.6,219z"/>
		<path class="st5" d="M267.9,217.4c5.3,0,9.6-2.5,9.6-5.6c0-3.1-4.3-5.6-9.6-5.6s-9.6,2.5-9.6,5.6
			C258.3,214.9,262.6,217.4,267.9,217.4z"/>
		<rect x="381.6" y="176.7" class="st2" width="44.1" height="80.8"/>
		<rect x="376.7" y="173.9" class="st4" width="54.1" height="4.9"/>
		<rect x="293.3" y="51.9" class="st1" width="51.8" height="39"/>
		<rect x="286.5" y="32.3" class="st2" width="65.5" height="19.6"/>
		<rect x="376.7" y="173.9" class="st2" width="54.1" height="5.9"/>
		<path class="st5" d="M299.6,216.5c5.3,0,9.6-2.5,9.6-5.6c0-3.1-4.3-5.6-9.6-5.6c-5.3,0-9.6,2.5-9.6,5.6
			C290,214,294.3,216.5,299.6,216.5z"/>
		<path class="st6" d="M343.4,218.7c2.1,0,3.8-1.7,3.8-3.8c0-2.1-1.7-3.8-3.8-3.8c-2.1,0-3.8,1.7-3.8,3.8
			C339.6,216.9,341.3,218.7,343.4,218.7z"/>
		<path class="st6" d="M328.9,218.1c2.1,0,3.8-1.7,3.8-3.8c0-2.1-1.7-3.8-3.8-3.8c-2.1,0-3.8,1.7-3.8,3.8
			C325.1,216.4,326.8,218.1,328.9,218.1z"/>
		<path class="st6" d="M318.6,215.2c2.1,0,3.8-1.7,3.8-3.8c0-2.1-1.7-3.8-3.8-3.8c-2.1,0-3.8,1.7-3.8,3.8
			C314.8,213.5,316.5,215.2,318.6,215.2z"/>
		<path class="st6" d="M305.4,221c2.1,0,3.8-1.7,3.8-3.8c0-2.1-1.7-3.8-3.8-3.8c-2.1,0-3.8,1.7-3.8,3.8
			C301.6,219.3,303.3,221,305.4,221z"/>
		<path class="st6" d="M299.6,214.7c2.1,0,3.8-1.7,3.8-3.8c0-2.1-1.7-3.8-3.8-3.8c-2.1,0-3.8,1.7-3.8,3.8
			C295.8,213,297.5,214.7,299.6,214.7z"/>
		<path class="st6" d="M289.4,218.1c2.1,0,3.8-1.7,3.8-3.8c0-2.1-1.7-3.8-3.8-3.8c-2.1,0-3.8,1.7-3.8,3.8
			C285.6,216.4,287.3,218.1,289.4,218.1z"/>
		<path class="st6" d="M278.8,221.7c2.1,0,3.8-1.7,3.8-3.8c0-2.1-1.7-3.8-3.8-3.8c-2.1,0-3.8,1.7-3.8,3.8
			C275,220,276.7,221.7,278.8,221.7z"/>
		<path class="st6" d="M267.9,215.6c2.1,0,3.8-1.7,3.8-3.8c0-2.1-1.7-3.8-3.8-3.8c-2.1,0-3.8,1.7-3.8,3.8
			C264.1,213.9,265.8,215.6,267.9,215.6z"/>
	</g>
	<g>
		<polygon class="st3" points="69.2,257.5 60.2,257.5 60.2,212.6 64.7,205.8 69.2,212.6 		"/>
		<polygon class="st3" points="50.2,257.5 41.2,257.5 41.2,212.6 45.7,205.8 50.2,212.6 		"/>
		<polygon class="st3" points="31.3,257.5 22.2,257.5 22.2,212.6 26.7,205.8 31.3,212.6 		"/>
		<polygon class="st3" points="12.3,257.5 3.2,257.5 3.2,212.6 7.8,205.8 12.3,212.6 		"/>
		<polygon class="st3" points="126.2,257.5 117.2,257.5 117.2,212.6 121.7,205.8 126.2,212.6 		"/>
		<polygon class="st3" points="107.2,257.5 98.2,257.5 98.2,212.6 102.7,205.8 107.2,212.6 		"/>
		<polygon class="st3" points="88.2,257.5 79.2,257.5 79.2,212.6 83.7,205.8 88.2,212.6 		"/>
		<polygon class="st7" points="183.2,257.5 174.2,257.5 174.2,212.6 178.7,205.8 183.2,212.6 		"/>
		<polygon class="st7" points="164.2,257.5 155.2,257.5 155.2,212.6 159.7,205.8 164.2,212.6 		"/>
		<polygon class="st3" points="145.2,257.5 136.2,257.5 136.2,212.6 140.7,205.8 145.2,212.6 		"/>
		<polygon class="st7" points="240.2,257.5 231.2,257.5 231.2,212.6 235.7,205.8 240.2,212.6 		"/>
		<polygon class="st7" points="221.2,257.5 212.2,257.5 212.2,212.6 216.7,205.8 221.2,212.6 		"/>
		<polygon class="st7" points="202.2,257.5 193.2,257.5 193.2,212.6 197.7,205.8 202.2,212.6 		"/>
		<g>
			<rect x="0" y="241.9" class="st3" width="245.9" height="9"/>
			<rect x="0" y="223.2" class="st3" width="245.9" height="9"/>
		</g>
	</g>
	<g>
		<path class="st8" d="M122.4,628.1v-0.3c-0.3,0.4-0.7,0.7-1,1c-0.3,0.3-0.7,0.4-1.1,0.6c-0.2,0.1-0.3,0.1-0.5,0.1v-1.9
			c0.5,0,0.9-0.1,1.2-0.4c0.4-0.2,0.7-0.6,0.9-1.1c0.2-0.5,0.3-1.1,0.3-1.8c0-0.7-0.1-1.3-0.3-1.8c-0.2-0.5-0.5-0.9-0.9-1.1
			c-0.4-0.3-0.8-0.4-1.2-0.4v-1.9c0.4,0.1,0.8,0.2,1.1,0.3c0.5,0.3,1,0.7,1.5,1.2v-3.8c0-0.5,0.1-0.9,0.3-1.2
			c0.2-0.3,0.5-0.4,0.9-0.4c0.4,0,0.7,0.1,0.9,0.4c0.2,0.3,0.3,0.6,0.3,1.1v11.4c0,0.5-0.1,0.9-0.3,1.1c-0.2,0.2-0.5,0.4-0.9,0.4
			c-0.4,0-0.6-0.1-0.9-0.4C122.5,628.9,122.4,628.6,122.4,628.1z M119.7,629.5c-0.3,0-0.5,0.1-0.8,0.1c-0.6,0-1.2-0.1-1.7-0.4
			c-0.5-0.3-1-0.6-1.4-1.1c-0.4-0.5-0.7-1.1-0.9-1.7c-0.2-0.7-0.3-1.4-0.3-2.1c0-1.6,0.4-2.9,1.2-3.8c0.8-0.9,1.8-1.4,3.1-1.4
			c0.3,0,0.5,0,0.8,0.1v1.9h0c-0.5,0-0.9,0.1-1.3,0.4c-0.4,0.3-0.7,0.7-0.9,1.2c-0.2,0.5-0.3,1.1-0.3,1.8l0,0c0,0.7,0.1,1.3,0.3,1.8
			c0.2,0.5,0.5,0.9,0.9,1.1c0.4,0.3,0.8,0.4,1.2,0.4h0V629.5z"/>
		<path class="st8" d="M133.8,624.9h-2.7v-1.5h2.4c-0.1-0.9-0.3-1.5-0.7-2c-0.4-0.4-1-0.7-1.6-0.7V619h0.1c1,0,1.9,0.2,2.6,0.6
			c0.7,0.4,1.3,1,1.6,1.7c0.4,0.7,0.5,1.4,0.5,2.1c0,0.7-0.2,1.1-0.6,1.3C135,624.8,134.5,624.9,133.8,624.9L133.8,624.9z
			 M131.1,627.8c0.1,0,0.1,0,0.2,0c0.3,0,0.6,0,0.9-0.1c0.3-0.1,0.5-0.2,0.7-0.3c0.2-0.2,0.5-0.3,0.7-0.5c0.2-0.2,0.5-0.4,0.8-0.7
			c0.1-0.1,0.3-0.2,0.6-0.2c0.3,0,0.5,0.1,0.6,0.2c0.2,0.1,0.2,0.4,0.2,0.6c0,0.2-0.1,0.5-0.3,0.8c-0.2,0.3-0.5,0.6-0.8,0.9
			c-0.4,0.3-0.8,0.5-1.4,0.7c-0.6,0.2-1.2,0.3-1.9,0.3c-0.1,0-0.2,0-0.3,0V627.8z M131.1,624.9h-2.4c0,0.6,0.1,1.1,0.4,1.6
			c0.2,0.5,0.5,0.8,0.9,1c0.3,0.2,0.7,0.3,1.1,0.3v1.7c-1.5-0.1-2.7-0.5-3.6-1.4c-0.9-0.9-1.4-2.2-1.4-3.9c0-0.8,0.1-1.5,0.3-2.1
			c0.2-0.7,0.6-1.2,1-1.7c0.4-0.5,1-0.8,1.6-1.1c0.6-0.2,1.3-0.4,2-0.4v1.8h0c-0.6,0-1.2,0.2-1.6,0.7c-0.4,0.4-0.7,1.1-0.8,2l0,0
			h2.4V624.9z"/>
		<path class="st8" d="M145.6,626.2c0,0.7-0.2,1.3-0.5,1.8c-0.3,0.5-0.9,0.9-1.5,1.2c-0.7,0.3-1.5,0.4-2.5,0.4
			c-0.9,0-1.7-0.1-2.4-0.4c-0.7-0.3-1.2-0.6-1.5-1.1c-0.3-0.4-0.5-0.9-0.5-1.3c0-0.3,0.1-0.5,0.3-0.7c0.2-0.2,0.5-0.3,0.8-0.3
			c0.3,0,0.5,0.1,0.6,0.2c0.1,0.1,0.3,0.3,0.4,0.6c0.3,0.5,0.6,0.8,1,1c0.4,0.2,0.9,0.3,1.5,0.3c0.5,0,0.9-0.1,1.3-0.3
			c0.3-0.2,0.5-0.5,0.5-0.8c0-0.5-0.2-0.8-0.5-1c-0.3-0.2-0.9-0.4-1.7-0.6c-0.9-0.2-1.6-0.5-2.2-0.7c-0.6-0.2-1-0.6-1.3-1
			c-0.3-0.4-0.5-0.9-0.5-1.5c0-0.5,0.2-1,0.5-1.5c0.3-0.5,0.8-0.8,1.4-1.1c0.6-0.3,1.3-0.4,2.2-0.4c0.7,0,1.3,0.1,1.8,0.2
			c0.5,0.1,1,0.3,1.3,0.6c0.4,0.2,0.6,0.5,0.8,0.8c0.2,0.3,0.3,0.6,0.3,0.8c0,0.3-0.1,0.5-0.3,0.7c-0.2,0.2-0.5,0.3-0.9,0.3
			c-0.3,0-0.5-0.1-0.7-0.2c-0.2-0.2-0.4-0.4-0.6-0.7c-0.2-0.3-0.4-0.5-0.7-0.6c-0.3-0.2-0.6-0.2-1.1-0.2c-0.5,0-0.9,0.1-1.2,0.3
			c-0.3,0.2-0.5,0.4-0.5,0.7c0,0.3,0.1,0.5,0.3,0.7c0.2,0.2,0.5,0.3,0.9,0.4c0.4,0.1,0.9,0.3,1.6,0.4c0.8,0.2,1.5,0.4,2,0.7
			c0.5,0.3,0.9,0.6,1.2,1C145.5,625.3,145.6,625.7,145.6,626.2z"/>
		<path class="st8" d="M148.3,617.8c-0.4,0-0.7-0.1-0.9-0.3c-0.3-0.2-0.4-0.5-0.4-0.9c0-0.4,0.1-0.7,0.4-0.9
			c0.3-0.2,0.6-0.4,0.9-0.4c0.3,0,0.6,0.1,0.9,0.3c0.3,0.2,0.4,0.5,0.4,0.9c0,0.4-0.1,0.7-0.4,0.9
			C148.9,617.7,148.6,617.8,148.3,617.8L148.3,617.8z M149.5,620.5L149.5,620.5v7.5c0,0.5-0.1,0.9-0.4,1.2c-0.2,0.3-0.6,0.4-0.9,0.4
			c-0.4,0-0.7-0.1-0.9-0.4c-0.2-0.3-0.4-0.7-0.4-1.2v-7.4c0-0.5,0.1-0.9,0.4-1.2c0.2-0.3,0.5-0.4,0.9-0.4c0.4,0,0.7,0.1,0.9,0.4
			C149.4,619.7,149.5,620,149.5,620.5z"/>
		<path class="st8" d="M160.9,620.9v7.5c0,0.9-0.1,1.6-0.3,2.2c-0.2,0.6-0.5,1.1-0.9,1.5c-0.4,0.4-0.9,0.7-1.6,0.9
			c-0.6,0.2-1.4,0.3-2.3,0.3v-1.8c0.6,0,1-0.1,1.3-0.3c0.4-0.2,0.6-0.4,0.8-0.8c0.1-0.3,0.2-0.7,0.3-1.1c0-0.4,0-1,0.1-1.8
			c-0.4,0.6-0.9,1-1.4,1.3c-0.3,0.2-0.7,0.3-1.1,0.4v-1.9c0.4,0,0.8-0.1,1.2-0.3c0.4-0.2,0.7-0.6,0.9-1c0.2-0.5,0.4-1,0.4-1.7
			c0-1.1-0.2-1.9-0.7-2.5c-0.5-0.6-1.1-0.9-1.8-0.9v-1.9c0.4,0.1,0.8,0.2,1.1,0.4c0.5,0.3,1,0.7,1.5,1.3v-0.4c0-0.5,0.1-0.8,0.3-1
			c0.2-0.2,0.5-0.4,0.9-0.4c0.5,0,0.8,0.2,1,0.5C160.8,619.8,160.9,620.3,160.9,620.9z M155.9,633.4l-0.2,0c-0.9,0-1.7-0.1-2.4-0.4
			c-0.7-0.3-1.2-0.6-1.6-1c-0.4-0.4-0.6-0.8-0.6-1.2c0-0.3,0.1-0.6,0.3-0.8c0.2-0.2,0.5-0.3,0.8-0.3c0.4,0,0.7,0.2,1,0.5
			c0.1,0.2,0.3,0.3,0.4,0.5c0.1,0.2,0.3,0.3,0.5,0.4c0.2,0.1,0.4,0.2,0.7,0.3c0.3,0.1,0.5,0.1,0.9,0.1c0.1,0,0.1,0,0.2,0V633.4
			L155.9,633.4z M155.9,629.3c-0.3,0-0.5,0.1-0.8,0.1c-0.9,0-1.6-0.2-2.3-0.7c-0.6-0.4-1.1-1.1-1.5-1.9c-0.3-0.8-0.5-1.7-0.5-2.8
			c0-0.8,0.1-1.5,0.3-2.1c0.2-0.6,0.5-1.2,0.9-1.6c0.4-0.4,0.8-0.8,1.4-1c0.5-0.2,1.1-0.3,1.7-0.3c0.3,0,0.6,0,0.8,0.1v1.9l0,0
			c-0.7,0-1.3,0.3-1.8,0.8c-0.4,0.6-0.7,1.4-0.7,2.4l0,0c0,1.1,0.2,1.8,0.7,2.4c0.5,0.5,1.1,0.8,1.8,0.8h0V629.3z"/>
		<path class="st8" d="M165,620.5v0.3c0.5-0.6,1-1,1.5-1.3c0.5-0.3,1.2-0.4,1.9-0.4c0.7,0,1.3,0.1,1.8,0.4c0.5,0.3,0.9,0.7,1.2,1.3
			c0.2,0.3,0.3,0.7,0.3,1c0.1,0.4,0.1,0.8,0.1,1.4v4.8c0,0.5-0.1,0.9-0.4,1.2c-0.2,0.3-0.5,0.4-0.9,0.4c-0.4,0-0.7-0.1-0.9-0.4
			c-0.2-0.3-0.4-0.7-0.4-1.2v-4.3c0-0.9-0.1-1.5-0.4-2c-0.2-0.5-0.7-0.7-1.4-0.7c-0.5,0-0.9,0.1-1.3,0.4c-0.4,0.3-0.7,0.7-0.8,1.1
			c-0.1,0.4-0.2,1.1-0.2,2.2v3.3c0,0.5-0.1,0.9-0.4,1.2c-0.2,0.3-0.6,0.4-0.9,0.4c-0.4,0-0.7-0.1-0.9-0.4c-0.2-0.3-0.4-0.7-0.4-1.2
			v-7.5c0-0.5,0.1-0.9,0.3-1.1c0.2-0.2,0.5-0.4,0.9-0.4c0.2,0,0.4,0.1,0.6,0.2c0.2,0.1,0.3,0.3,0.4,0.5
			C165,619.9,165,620.1,165,620.5z"/>
		<path class="st8" d="M180.8,624.9h-2.7v-1.5h2.4c-0.1-0.9-0.3-1.5-0.7-2c-0.4-0.4-1-0.7-1.6-0.7V619h0.1c1,0,1.9,0.2,2.6,0.6
			c0.7,0.4,1.3,1,1.6,1.7c0.4,0.7,0.5,1.4,0.5,2.1c0,0.7-0.2,1.1-0.6,1.3C182,624.8,181.5,624.9,180.8,624.9L180.8,624.9z
			 M178.1,627.8c0.1,0,0.1,0,0.2,0c0.3,0,0.6,0,0.9-0.1c0.3-0.1,0.5-0.2,0.7-0.3c0.2-0.2,0.5-0.3,0.7-0.5c0.2-0.2,0.5-0.4,0.8-0.7
			c0.1-0.1,0.3-0.2,0.6-0.2c0.3,0,0.5,0.1,0.6,0.2c0.2,0.1,0.2,0.4,0.2,0.6c0,0.2-0.1,0.5-0.3,0.8c-0.2,0.3-0.5,0.6-0.8,0.9
			c-0.4,0.3-0.8,0.5-1.4,0.7c-0.6,0.2-1.2,0.3-1.9,0.3c-0.1,0-0.2,0-0.3,0V627.8z M178.1,624.9h-2.4c0,0.6,0.1,1.1,0.4,1.6
			c0.2,0.5,0.5,0.8,0.9,1c0.3,0.2,0.7,0.3,1.1,0.3v1.7c-1.5-0.1-2.7-0.5-3.6-1.4c-0.9-0.9-1.4-2.2-1.4-3.9c0-0.8,0.1-1.5,0.3-2.1
			c0.2-0.7,0.6-1.2,1-1.7c0.4-0.5,1-0.8,1.6-1.1c0.6-0.2,1.3-0.4,2-0.4v1.8h0c-0.6,0-1.2,0.2-1.6,0.7c-0.4,0.4-0.7,1.1-0.8,2l0,0
			h2.4V624.9z"/>
		<path class="st8" d="M191.4,628.1v-0.3c-0.3,0.4-0.7,0.7-1,1c-0.3,0.3-0.7,0.4-1.1,0.6c-0.2,0.1-0.3,0.1-0.5,0.1v-1.9
			c0.5,0,0.9-0.1,1.2-0.4c0.4-0.2,0.7-0.6,0.9-1.1c0.2-0.5,0.3-1.1,0.3-1.8c0-0.7-0.1-1.3-0.3-1.8c-0.2-0.5-0.5-0.9-0.9-1.1
			c-0.4-0.3-0.8-0.4-1.2-0.4v-1.9c0.4,0.1,0.8,0.2,1.1,0.3c0.5,0.3,1,0.7,1.5,1.2v-3.8c0-0.5,0.1-0.9,0.3-1.2
			c0.2-0.3,0.5-0.4,0.9-0.4c0.4,0,0.7,0.1,0.9,0.4c0.2,0.3,0.3,0.6,0.3,1.1v11.4c0,0.5-0.1,0.9-0.3,1.1c-0.2,0.2-0.5,0.4-0.9,0.4
			c-0.4,0-0.6-0.1-0.9-0.4C191.5,628.9,191.4,628.6,191.4,628.1z M188.7,629.5c-0.3,0-0.5,0.1-0.8,0.1c-0.6,0-1.2-0.1-1.7-0.4
			c-0.5-0.3-1-0.6-1.4-1.1c-0.4-0.5-0.7-1.1-0.9-1.7c-0.2-0.7-0.3-1.4-0.3-2.1c0-1.6,0.4-2.9,1.2-3.8c0.8-0.9,1.8-1.4,3.1-1.4
			c0.3,0,0.5,0,0.8,0.1v1.9h0c-0.5,0-0.9,0.1-1.3,0.4c-0.4,0.3-0.7,0.7-0.9,1.2c-0.2,0.5-0.3,1.1-0.3,1.8l0,0c0,0.7,0.1,1.3,0.3,1.8
			c0.2,0.5,0.5,0.9,0.9,1.1c0.4,0.3,0.8,0.4,1.2,0.4h0V629.5z"/>
		<path class="st8" d="M204.6,619.1c0.2,0,0.5-0.1,0.8-0.1c0.9,0,1.6,0.2,2.3,0.6c0.6,0.4,1.2,1,1.5,1.8c0.4,0.8,0.5,1.7,0.5,2.8
			c0,0.8-0.1,1.5-0.3,2.2c-0.2,0.7-0.5,1.2-0.9,1.7c-0.4,0.5-0.8,0.9-1.4,1.1c-0.5,0.3-1.1,0.4-1.8,0.4c-0.3,0-0.5,0-0.7-0.1v-1.9
			h0.1c0.7,0,1.2-0.3,1.7-0.8c0.5-0.6,0.7-1.4,0.7-2.4c0-0.7-0.1-1.3-0.3-1.8c-0.2-0.5-0.5-0.9-0.8-1.1c-0.4-0.3-0.8-0.4-1.3-0.4
			l-0.1,0V619.1z M202,616.6v4c0.5-0.5,1-0.9,1.5-1.2c0.3-0.2,0.7-0.3,1.1-0.3v1.9c-0.5,0-0.9,0.2-1.2,0.4c-0.4,0.3-0.7,0.7-0.9,1.2
			c-0.2,0.5-0.3,1.1-0.3,1.8l0,0c0,1,0.2,1.8,0.7,2.4c0.5,0.5,1,0.8,1.8,0.8v1.9c-0.1,0-0.3-0.1-0.4-0.1c-0.4-0.1-0.7-0.2-0.9-0.4
			c-0.2-0.2-0.5-0.3-0.6-0.5c-0.2-0.2-0.4-0.4-0.7-0.7v0.3c0,0.5-0.1,0.9-0.4,1.1c-0.2,0.3-0.5,0.4-0.9,0.4c-0.4,0-0.7-0.1-0.9-0.4
			c-0.2-0.3-0.3-0.6-0.3-1.1v-11.3c0-0.5,0.1-0.9,0.3-1.2c0.2-0.3,0.5-0.4,0.9-0.4c0.4,0,0.7,0.1,0.9,0.4
			C201.9,615.8,202,616.2,202,616.6z"/>
		<path class="st8" d="M213,629.9l0.2-0.6l-3.2-8c-0.2-0.5-0.3-0.8-0.3-1c0-0.2,0.1-0.4,0.2-0.6c0.1-0.2,0.3-0.3,0.5-0.5
			c0.2-0.1,0.4-0.2,0.6-0.2c0.4,0,0.7,0.1,0.8,0.4c0.2,0.2,0.4,0.6,0.5,1l2.2,6.4l2.1-5.9c0.2-0.5,0.3-0.9,0.4-1.1
			c0.1-0.3,0.3-0.5,0.4-0.5c0.1-0.1,0.4-0.1,0.6-0.1c0.2,0,0.4,0.1,0.6,0.2c0.2,0.1,0.3,0.2,0.4,0.4c0.1,0.2,0.1,0.4,0.1,0.6
			c0,0.1-0.1,0.3-0.1,0.5c-0.1,0.2-0.1,0.4-0.2,0.7l-3.4,8.9c-0.3,0.8-0.6,1.4-0.9,1.8c-0.3,0.4-0.6,0.8-1.1,1
			c-0.5,0.2-1.1,0.4-1.9,0.4c-0.8,0-1.3-0.1-1.7-0.2c-0.4-0.2-0.6-0.5-0.6-0.9c0-0.3,0.1-0.5,0.3-0.7c0.2-0.2,0.4-0.2,0.8-0.2
			c0.1,0,0.3,0,0.4,0.1c0.2,0,0.3,0.1,0.4,0.1c0.3,0,0.5,0,0.7-0.1s0.3-0.2,0.5-0.5C212.7,630.6,212.8,630.3,213,629.9z"/>
		<path class="st8" d="M250.6,619.2h0.6v-0.8c0-0.8,0.1-1.5,0.3-1.9c0.2-0.5,0.6-0.8,1-1c0.5-0.2,1.2-0.3,2-0.3
			c1.5,0,2.3,0.4,2.3,1.1c0,0.2-0.1,0.4-0.2,0.6c-0.2,0.2-0.3,0.3-0.6,0.3c-0.1,0-0.3,0-0.5-0.1c-0.2,0-0.5-0.1-0.6-0.1
			c-0.5,0-0.8,0.1-0.9,0.4c-0.1,0.3-0.2,0.7-0.2,1.2v0.6h0.6c1,0,1.5,0.3,1.5,0.9c0,0.4-0.1,0.7-0.4,0.8c-0.3,0.1-0.6,0.2-1.1,0.2
			h-0.6v6.9c0,0.5-0.1,0.9-0.4,1.2c-0.2,0.3-0.6,0.4-0.9,0.4c-0.4,0-0.7-0.1-0.9-0.4c-0.2-0.3-0.4-0.7-0.4-1.2v-6.9h-0.7
			c-0.4,0-0.7-0.1-0.9-0.3c-0.2-0.2-0.3-0.4-0.3-0.7C249.3,619.6,249.7,619.2,250.6,619.2z"/>
		<path class="st8" d="M259.1,625.8v2.2c0,0.5-0.1,0.9-0.4,1.2c-0.2,0.3-0.6,0.4-0.9,0.4c-0.4,0-0.7-0.1-0.9-0.4
			c-0.2-0.3-0.4-0.7-0.4-1.2v-7.2c0-1.2,0.4-1.8,1.3-1.8c0.4,0,0.7,0.1,0.9,0.4c0.2,0.3,0.3,0.7,0.3,1.2c0.3-0.5,0.6-0.9,0.9-1.2
			c0.3-0.3,0.8-0.4,1.3-0.4c0.5,0,1.1,0.1,1.6,0.4c0.5,0.3,0.8,0.6,0.8,1.1c0,0.3-0.1,0.6-0.3,0.8c-0.2,0.2-0.5,0.3-0.7,0.3
			c-0.1,0-0.3-0.1-0.7-0.2c-0.4-0.1-0.7-0.2-1-0.2c-0.4,0-0.7,0.1-0.9,0.3c-0.2,0.2-0.4,0.5-0.6,0.9c-0.1,0.4-0.2,0.9-0.3,1.4
			C259.1,624.4,259.1,625,259.1,625.8z"/>
		<path class="st8" d="M271,624.9h-2.7v-1.5h2.4c-0.1-0.9-0.3-1.5-0.7-2c-0.4-0.4-1-0.7-1.6-0.7V619h0.1c1,0,1.9,0.2,2.6,0.6
			c0.7,0.4,1.3,1,1.6,1.7c0.4,0.7,0.5,1.4,0.5,2.1c0,0.7-0.2,1.1-0.6,1.3C272.2,624.8,271.7,624.9,271,624.9L271,624.9z
			 M268.3,627.8c0.1,0,0.1,0,0.2,0c0.3,0,0.6,0,0.8-0.1c0.3-0.1,0.5-0.2,0.7-0.3c0.2-0.2,0.5-0.3,0.7-0.5c0.2-0.2,0.5-0.4,0.8-0.7
			c0.1-0.1,0.3-0.2,0.6-0.2c0.3,0,0.5,0.1,0.6,0.2c0.2,0.1,0.2,0.4,0.2,0.6c0,0.2-0.1,0.5-0.3,0.8c-0.2,0.3-0.5,0.6-0.8,0.9
			c-0.4,0.3-0.8,0.5-1.4,0.7c-0.6,0.2-1.2,0.3-1.9,0.3c-0.1,0-0.2,0-0.3,0V627.8z M268.3,624.9h-2.3c0,0.6,0.1,1.1,0.4,1.6
			c0.2,0.4,0.5,0.8,0.9,1c0.3,0.2,0.7,0.3,1.1,0.3v1.7c-1.5-0.1-2.7-0.5-3.6-1.4c-0.9-1-1.4-2.2-1.4-3.9c0-0.8,0.1-1.5,0.3-2.1
			c0.2-0.7,0.6-1.2,1-1.7c0.4-0.5,1-0.8,1.6-1.1c0.6-0.2,1.3-0.4,2-0.4v1.8h0c-0.6,0-1.2,0.2-1.6,0.7c-0.4,0.4-0.7,1.1-0.8,2l0,0
			h2.3V624.9z"/>
		<path class="st8" d="M281.8,624.9H279v-1.5h2.3c-0.1-0.9-0.3-1.5-0.7-2c-0.4-0.4-1-0.7-1.6-0.7V619h0.1c1,0,1.9,0.2,2.6,0.6
			c0.7,0.4,1.3,1,1.6,1.7c0.4,0.7,0.5,1.4,0.5,2.1c0,0.7-0.2,1.1-0.6,1.3C283,624.8,282.4,624.9,281.8,624.9L281.8,624.9z
			 M279,627.8c0.1,0,0.1,0,0.2,0c0.3,0,0.6,0,0.8-0.1c0.3-0.1,0.5-0.2,0.8-0.3c0.2-0.2,0.5-0.3,0.7-0.5c0.2-0.2,0.5-0.4,0.8-0.7
			c0.1-0.1,0.3-0.2,0.6-0.2c0.3,0,0.5,0.1,0.7,0.2c0.2,0.1,0.2,0.4,0.2,0.6c0,0.2-0.1,0.5-0.3,0.8c-0.2,0.3-0.5,0.6-0.8,0.9
			c-0.4,0.3-0.8,0.5-1.4,0.7c-0.6,0.2-1.2,0.3-1.9,0.3c-0.1,0-0.2,0-0.3,0V627.8z M279,624.9h-2.3c0,0.6,0.1,1.1,0.4,1.6
			c0.2,0.4,0.5,0.8,0.9,1c0.3,0.2,0.7,0.3,1.1,0.3v1.7c-1.5,0-2.7-0.5-3.6-1.4c-0.9-1-1.4-2.2-1.4-3.9c0-0.8,0.1-1.5,0.3-2.1
			c0.2-0.7,0.6-1.2,1-1.7c0.4-0.5,1-0.8,1.6-1.1c0.6-0.2,1.3-0.4,2-0.4v1.8h0c-0.6,0-1.2,0.2-1.6,0.7c-0.4,0.4-0.7,1.1-0.8,2l0,0
			h2.3V624.9z"/>
		<path class="st8" d="M290.1,619.1c0.2,0,0.5-0.1,0.7-0.1c0.8,0,1.5,0.2,2.2,0.6c0.7,0.4,1.2,1,1.6,1.8c0.4,0.8,0.6,1.7,0.6,2.8
			c0,0.8-0.1,1.5-0.3,2.2c-0.2,0.7-0.5,1.2-0.9,1.7c-0.4,0.5-0.9,0.8-1.4,1c-0.5,0.2-1.1,0.4-1.7,0.4c-0.2,0-0.5,0-0.7-0.1v-2h0.1
			c0.4,0,0.8-0.1,1.2-0.4c0.4-0.3,0.7-0.6,0.9-1.1c0.2-0.5,0.3-1.1,0.3-1.8l0,0c0-0.7-0.1-1.3-0.3-1.8c-0.2-0.5-0.5-0.9-0.9-1.1
			c-0.4-0.3-0.8-0.4-1.2-0.4l-0.1,0V619.1z M287.4,620.5v0.3c0.5-0.6,1-1,1.5-1.3c0.3-0.2,0.7-0.3,1.1-0.4v1.9
			c-0.7,0-1.3,0.3-1.7,0.8c-0.5,0.6-0.7,1.4-0.7,2.5c0,1,0.2,1.8,0.7,2.4c0.5,0.6,1,0.8,1.7,0.9v2c-0.4-0.1-0.8-0.2-1.2-0.4
			c-0.5-0.3-1-0.7-1.4-1.3v3.9c0,1.1-0.4,1.7-1.2,1.7c-0.5,0-0.8-0.1-1-0.4c-0.2-0.3-0.2-0.7-0.2-1.3v-11.2c0-0.5,0.1-0.9,0.3-1.1
			c0.2-0.2,0.5-0.4,0.9-0.4c0.4,0,0.7,0.1,0.9,0.4C287.3,619.6,287.4,620,287.4,620.5z"/>
		<path class="st8" d="M297.8,617.8c-0.4,0-0.7-0.1-0.9-0.3c-0.3-0.2-0.4-0.5-0.4-0.9c0-0.4,0.1-0.7,0.4-0.9
			c0.3-0.2,0.6-0.4,0.9-0.4c0.3,0,0.6,0.1,0.9,0.3c0.3,0.2,0.4,0.5,0.4,0.9c0,0.4-0.1,0.7-0.4,0.9
			C298.4,617.7,298.1,617.8,297.8,617.8L297.8,617.8z M299,620.5L299,620.5v7.5c0,0.5-0.1,0.9-0.4,1.2c-0.3,0.3-0.6,0.4-0.9,0.4
			c-0.4,0-0.7-0.1-0.9-0.4c-0.2-0.3-0.4-0.7-0.4-1.2v-7.4c0-0.5,0.1-0.9,0.4-1.2c0.2-0.3,0.5-0.4,0.9-0.4c0.4,0,0.7,0.1,0.9,0.4
			C298.9,619.7,299,620,299,620.5z"/>
		<path class="st8" d="M307.4,628.4l-2.3-3.8l-1.4,1.3v2.1c0,0.5-0.1,0.9-0.4,1.1c-0.3,0.3-0.6,0.4-0.9,0.4c-0.4,0-0.7-0.1-0.9-0.4
			c-0.2-0.3-0.3-0.7-0.3-1.2v-11.1c0-0.6,0.1-1,0.3-1.3c0.2-0.3,0.5-0.5,1-0.5c0.4,0,0.7,0.1,0.9,0.4c0.2,0.3,0.4,0.7,0.4,1.2v6.3
			l2.9-3.1c0.4-0.4,0.6-0.6,0.8-0.8c0.2-0.1,0.4-0.2,0.7-0.2c0.3,0,0.6,0.1,0.8,0.3c0.2,0.2,0.3,0.5,0.3,0.8c0,0.4-0.4,0.9-1.1,1.5
			l-1.4,1.3l2.7,4.2c0.2,0.3,0.3,0.5,0.4,0.7c0.1,0.2,0.1,0.3,0.1,0.5c0,0.4-0.1,0.7-0.3,1c-0.2,0.2-0.5,0.4-0.9,0.4
			c-0.3,0-0.6-0.1-0.7-0.3C307.9,629.1,307.7,628.8,307.4,628.4z"/>
		<path class="st8" d="M313,629.6c-0.4,0-0.7-0.1-1-0.4c-0.3-0.3-0.4-0.6-0.4-1.1c0-0.4,0.1-0.7,0.4-1c0.3-0.3,0.6-0.4,1-0.4
			c0.4,0,0.7,0.1,1,0.4c0.3,0.3,0.4,0.6,0.4,1c0,0.5-0.1,0.8-0.4,1.1C313.7,629.4,313.4,629.6,313,629.6z"/>
		<path class="st8" d="M325.9,626.4c0,0.3-0.1,0.7-0.3,1c-0.2,0.4-0.5,0.7-0.9,1c-0.4,0.3-0.9,0.6-1.5,0.8c-0.6,0.2-1.3,0.3-2,0.3
			c-1.6,0-2.9-0.5-3.8-1.4c-0.9-0.9-1.3-2.2-1.3-3.8c0-1.1,0.2-2,0.6-2.8c0.4-0.8,1-1.4,1.8-1.9c0.8-0.4,1.7-0.7,2.8-0.7
			c0.7,0,1.3,0.1,1.9,0.3c0.6,0.2,1,0.5,1.4,0.8c0.4,0.3,0.7,0.6,0.9,1c0.2,0.4,0.3,0.7,0.3,1c0,0.3-0.1,0.6-0.3,0.8
			c-0.2,0.2-0.5,0.3-0.8,0.3c-0.2,0-0.4-0.1-0.5-0.2c-0.1-0.1-0.3-0.3-0.5-0.5c-0.3-0.5-0.6-0.8-1-1.1c-0.3-0.2-0.8-0.4-1.3-0.4
			c-0.8,0-1.4,0.3-1.9,0.9c-0.5,0.6-0.7,1.4-0.7,2.5c0,0.5,0.1,0.9,0.2,1.3c0.1,0.4,0.3,0.8,0.5,1c0.2,0.3,0.5,0.5,0.8,0.7
			c0.3,0.2,0.7,0.2,1.1,0.2c0.5,0,1-0.1,1.3-0.4c0.4-0.2,0.7-0.6,1-1.1c0.2-0.3,0.3-0.5,0.5-0.7c0.2-0.2,0.4-0.2,0.7-0.2
			c0.3,0,0.6,0.1,0.8,0.4C325.8,625.8,325.9,626.1,325.9,626.4z"/>
		<path class="st8" d="M337.1,624.3c0,0.8-0.1,1.5-0.4,2.1c-0.2,0.7-0.6,1.2-1.1,1.7c-0.5,0.5-1,0.8-1.6,1.1
			c-0.6,0.2-1.3,0.4-2.1,0.4v-1.9c0.8,0,1.4-0.3,1.9-0.9c0.5-0.6,0.7-1.4,0.7-2.5l0,0c0-1.1-0.2-1.9-0.7-2.5
			c-0.5-0.6-1.1-0.9-1.9-0.9V619c0.8,0,1.5,0.1,2.1,0.4c0.6,0.3,1.2,0.6,1.6,1.1c0.5,0.5,0.8,1,1,1.7
			C337,622.8,337.1,623.5,337.1,624.3z M332,629.6L332,629.6c-0.8,0-1.5-0.1-2.1-0.4c-0.6-0.3-1.2-0.6-1.6-1.1
			c-0.5-0.5-0.8-1-1.1-1.7c-0.2-0.6-0.4-1.4-0.4-2.1c0-0.8,0.1-1.5,0.4-2.2c0.2-0.7,0.6-1.2,1-1.7c0.5-0.5,1-0.8,1.6-1.1
			c0.6-0.3,1.3-0.4,2.1-0.4h0v1.9h0c-0.5,0-1,0.1-1.3,0.4c-0.4,0.3-0.7,0.7-0.9,1.2c-0.2,0.5-0.3,1.1-0.3,1.8c0,0.7,0.1,1.3,0.3,1.8
			c0.2,0.5,0.5,0.9,0.9,1.2c0.4,0.3,0.8,0.4,1.4,0.4h0V629.6z"/>
		<path class="st8" d="M347,624.5v3.4c0,0.5-0.1,1-0.4,1.2c-0.3,0.3-0.6,0.4-1,0.4c-0.4,0-0.7-0.1-1-0.4c-0.2-0.3-0.4-0.7-0.4-1.2
			v-4.1c0-0.7,0-1.2-0.1-1.5c0-0.4-0.2-0.7-0.4-0.9c-0.2-0.2-0.5-0.4-0.9-0.4c-0.9,0-1.4,0.3-1.7,0.9c-0.3,0.6-0.4,1.4-0.4,2.5v3.5
			c0,0.5-0.1,0.9-0.4,1.2c-0.2,0.3-0.6,0.4-1,0.4c-0.4,0-0.7-0.1-1-0.4c-0.3-0.3-0.4-0.7-0.4-1.2v-7.4c0-0.5,0.1-0.9,0.3-1.1
			c0.2-0.3,0.5-0.4,0.9-0.4c0.4,0,0.7,0.1,0.9,0.4c0.2,0.2,0.4,0.6,0.4,1v0.2c0.5-0.5,0.9-0.9,1.4-1.2c0.5-0.3,1.1-0.4,1.7-0.4
			c0.7,0,1.2,0.1,1.7,0.4c0.5,0.3,0.9,0.7,1.2,1.2c0.4-0.5,0.9-0.9,1.4-1.2c0.5-0.3,1.1-0.4,1.7-0.4c0.7,0,1.3,0.1,1.8,0.4
			c0.5,0.3,0.9,0.7,1.1,1.2c0.2,0.5,0.3,1.2,0.3,2.2v5.1c0,0.5-0.1,1-0.4,1.2c-0.2,0.3-0.6,0.4-1,0.4c-0.4,0-0.7-0.1-1-0.4
			c-0.3-0.3-0.4-0.7-0.4-1.2v-4.4c0-0.6,0-1-0.1-1.3c0-0.3-0.2-0.6-0.4-0.8c-0.2-0.2-0.5-0.3-1-0.3c-0.3,0-0.7,0.1-1,0.3
			c-0.3,0.2-0.5,0.5-0.7,0.8C347.1,622.6,347,623.4,347,624.5z"/>
		<path class="st8" d="M226.3,623.7C226.3,623.7,226.3,623.7,226.3,623.7C226.3,623.7,226.3,623.7,226.3,623.7z"/>
		<path class="st8" d="M226.4,624.5L226.4,624.5c0-0.2-0.1-0.5-0.1-0.7C226.4,624,226.4,624.3,226.4,624.5z"/>
		<path class="st8" d="M227.3,626.9C227.3,626.9,227.3,626.9,227.3,626.9C227.3,626.9,227.3,626.9,227.3,626.9z"/>
		<path class="st8" d="M227.2,626.7c0,0,0-0.1-0.1-0.1C227.2,626.7,227.2,626.7,227.2,626.7z"/>
		<path class="st8" d="M226.7,625.4c0.1,0.4,0.3,0.8,0.5,1.2C227,626.2,226.8,625.8,226.7,625.4L226.7,625.4z"/>
		<path class="st8" d="M236.3,613.7c0.5,0,0.9,0,1.3,0.1l0.1-0.8c0,0-1.2-0.4-2.7-0.2l-0.1-0.4c0.5-0.1,0.8-0.5,0.8-1
			c0-0.6-0.5-1.1-1.1-1.1c-0.6,0-1.1,0.5-1.1,1.1c0,0.5,0.4,0.9,0.8,1l0.1,0.5c-1.6,0.2-2.9,0.9-2.9,0.9l0.2,0.7
			c1-0.3,1.8-0.5,2.6-0.6C235.3,613.8,235.9,613.7,236.3,613.7z"/>
		<path class="st8" d="M227.3,617.6L227.3,617.6c0-0.1,0.1-0.1,0.1-0.2l-0.3-0.2l-0.5-0.4c0,0-0.8,0.7-1.4,2c0,0-0.1-0.1-0.1-0.1
			c-0.2-0.2-0.4-0.3-0.8-0.3h0c-0.2,0-0.3-0.1-0.4-0.1c0.1-0.1,0.1-0.3,0.1-0.4c0-0.4-0.3-0.7-0.7-0.7c-0.4,0-0.7,0.3-0.7,0.7
			c0,0.4,0.3,0.7,0.7,0.7c0.1,0,0.1,0,0.2,0c0.2,0.2,0.4,0.3,0.8,0.3c0.2,0,0.3,0,0.4,0.2c0.1,0.1,0.1,0.3,0.2,0.4c0,0,0,0,0,0
			c-0.4,1.2-0.3,2.7-0.3,2.7l1.1,0c0-0.5,0.1-1.5,0.4-2.2C226.6,618.5,227.2,617.6,227.3,617.6z"/>
		<path class="st8" d="M245.5,614.6c-0.4,0-0.7,0.3-0.7,0.7c0,0.1,0,0.1,0,0.2c-0.2,0.2-0.3,0.4-0.3,0.8c0,0.2,0,0.3-0.2,0.4
			c-0.1,0.1-0.2,0.1-0.3,0.1c-0.8-1.1-1.8-1.8-1.8-1.8l-0.8,0.8c0.6,0.5,1.2,1.2,1.7,2c0.4,0.6,0.8,1.3,1.1,2l1-0.5
			c0,0-0.5-1.2-1.1-2.2c0.1,0,0.2-0.1,0.3-0.2c0.2-0.2,0.3-0.4,0.3-0.8c0-0.2,0.1-0.3,0.1-0.4c0.1,0.1,0.3,0.1,0.4,0.1
			c0.4,0,0.7-0.3,0.7-0.7C246.2,614.9,245.9,614.6,245.5,614.6z"/>
		<path class="st8" d="M242.9,623.8c-1.4,0.7-3.7,1.6-6.8,2c-1.2,0.2-2.4,0.2-3.4,0.2c-1.4,0-2.6-0.1-3.6-0.2
			c-1.1-0.1-1.9-0.3-2.4-0.4c0.1,0.4,0.3,0.8,0.5,1.2c0,0,0,0,0,0c0,0,0,0.1,0.1,0.1c0,0,0,0.1,0.1,0.1c0,0,0,0,0,0
			c0.3,0.6,0.7,1.1,1.1,1.6c1.4,1.6,2.9,1.8,2.9,1.8l0,0l0,0c0,0,1.3,0.4,3.3,0.4c1.9,0,3.9-0.4,5.7-1.2c1.3-0.7,2.6-1.7,3.3-2.7
			c0.5-0.7,0.8-1.5,1.1-2.3c0.1-0.4,0.2-1.1,0.1-1.8C244.4,623,243.7,623.4,242.9,623.8z"/>
		<path class="st8" d="M240,624.1c1-0.3,1.8-0.7,2.5-1c1.1-0.5,1.8-1,2.1-1.2c-0.3-1-1-2.6-1.7-3.6c-1-1.4-2-2.3-2.9-2.8v1.9
			c1,0,1.7,0.8,1.7,1.7c0,1-0.8,1.7-1.7,1.7V624.1z M231.8,625.2c1.3,0,2.7,0,4.2-0.2c1.5-0.2,2.9-0.6,4-0.9v-3.3h0
			c-1,0-1.7-0.8-1.7-1.7c0-1,0.8-1.7,1.7-1.7l0,0h0v-1.9c-1-0.6-1.8-0.9-2.4-1c-0.4-0.1-0.8-0.1-1.2-0.1c-0.4,0-1,0-1.7,0.1
			c-0.7,0.1-1.6,0.3-2.5,0.6c-0.1,0-0.2,0.1-0.3,0.1v2.1c1.6,0,2.8,1.3,2.8,2.8c0,1.6-1.3,2.8-2.8,2.8V625.2z M227.7,617.9
			c0,0.1-0.7,0.9-1.1,2.3c-0.4,1-0.3,2.4-0.3,2.5v0c0,0.3,0,0.7,0.1,1c0,0,0,0,0,0c0,0,0,0.1,0,0.1c0,0.2,0.1,0.5,0.1,0.7
			c0.5,0.1,2.6,0.6,5.3,0.7v-2.4h0c-1.6,0-2.8-1.3-2.8-2.8c0-1.6,1.3-2.8,2.8-2.8l0,0h0v-2.1c-1.2,0.5-2.3,1.1-3.2,1.9l0,0
			C228.4,617.2,228.1,617.5,227.7,617.9z"/>
	</g>
	<path class="st0" d="M273.3,311L273.3,311c-10.4,5.8-14.1,19-8.3,29.4l48.2,86.1c5.8,10.4,19,14.1,29.4,8.3l0,0
		c10.4-5.8,14.1-19,8.3-29.4l-48.2-86.1C296.9,308.9,283.7,305.2,273.3,311z"/>
	<polygon class="st4" points="148.7,446 221.8,416.3 289.8,446 271.2,552.2 167.3,552.2 	"/>
	<path class="st0" d="M181.7,299.6H256c18.6,0,33.8,15.2,33.8,33.8V446H147.9V333.4C147.9,314.8,163.1,299.6,181.7,299.6z"/>
	<path class="st0" d="M180.4,311L180.4,311c10.4,5.8,14.1,19,8.3,29.4l-48.2,86.1c-5.8,10.4-19,14.1-29.4,8.3l0,0
		c-10.4-5.8-14.1-19-8.3-29.4l48.2-86.1C156.8,308.9,170.1,305.2,180.4,311z"/>
	<polygon class="st3" points="181.7,299.6 218.8,370.5 256,299.6 	"/>
	<path class="st9" d="M218.8,317.5c20.5,0,37.1-9,37.1-20c0-11-16.7-20-37.1-20c-20.5,0-37.1,9-37.1,20
		C181.7,308.6,198.4,317.5,218.8,317.5z"/>
	<g>
		<path class="st0" d="M176.7,164.3H261c14,0,25.5,11.5,25.5,25.5v56c0,14-11.5,25.5-25.5,25.5h-84.3c-14,0-25.5-11.5-25.5-25.5v-56
			C151.2,175.7,162.7,164.3,176.7,164.3z"/>
		<path class="st10" d="M185.5,177.7h66.8c16.7,0,30.3,13.7,30.3,30.3v66.8c0,16.7-13.7,30.3-30.3,30.3h-66.8
			c-16.7,0-30.3-13.7-30.3-30.3v-66.8C155.1,191.4,168.8,177.7,185.5,177.7z"/>
		<g>
			
				<ellipse transform="matrix(-0.2942 -0.9558 0.9558 -0.2942 -41.5921 464.8569)" class="st10" cx="150.9" cy="247.8" rx="20.8" ry="10.9"/>
			
				<ellipse transform="matrix(0.2942 -0.9557 0.9557 0.2942 -34.3654 449.0388)" class="st10" cx="286.8" cy="247.8" rx="20.8" ry="10.9"/>
		</g>
		<path class="st11" d="M250.3,256.2c6.5,0,11.7-3.6,11.7-8c0-4.4-5.3-8-11.7-8c-6.5,0-11.7,3.6-11.7,8
			C238.6,252.5,243.9,256.2,250.3,256.2z"/>
		<path class="st0" d="M207.2,231.8c-5.7-11.9-25.7-12.5-31.6-3.3C184.4,224.8,197.6,225.6,207.2,231.8z"/>
		<path class="st11" d="M187.4,256.2c6.5,0,11.7-3.6,11.7-8c0-4.4-5.3-8-11.7-8c-6.5,0-11.7,3.6-11.7,8
			C175.6,252.5,180.9,256.2,187.4,256.2z"/>
		<path class="st3" d="M241.2,264.3c-0.1,15.4-10.1,27.8-22.4,27.8c-12.3,0-22.3-12.4-22.4-27.8c6.2,3.8,13.9,6,22.4,6
			C227.3,270.3,235.1,268.1,241.2,264.3z"/>
		<path class="st0" d="M230.5,231.8c5.7-11.9,25.7-12.5,31.6-3.3C253.3,224.8,240.1,225.6,230.5,231.8z"/>
		<path class="st0" d="M155.2,206c2.4-46.3,146,14.7,133.2-57.1C274.8,187.9,138.6,136.3,155.2,206z"/>
	</g>
	<path class="st10" d="M342.7,564c23.2,0,42.2-36.7,42.2-81.7s-19-81.7-42.2-81.7s-42.2,36.7-42.2,81.7S319.5,564,342.7,564z"/>
	<path class="st9" d="M342.7,564.5c0.1-36.1,4.7-85.2,14.6-128.5c-2,8.7-7.8,15-14.6,15c-6.9,0-12.7-6.3-14.7-15.1
		C338,479.1,342.6,528.4,342.7,564.5z"/>
	<polygon class="st1" points="272.2,486.5 413.3,486.5 370.2,340.5 315.2,340.5 	"/>
	<path class="st9" d="M342.7,363.7c16.3,0,29.6-8.3,29.6-18.4c0-10.1-13.3-18.4-29.6-18.4c-16.3,0-29.6,8.3-29.6,18.4
		C313.1,355.5,326.4,363.7,342.7,363.7z"/>
	<g>
		<path class="st6" d="M346.6,220c67.2,0,46.3,68.8,85.6,63.9c0,85.8-178.9,85.8-178.9,0C287.7,283.6,279.4,220,346.6,220z"/>
		<path class="st10" d="M342.7,352.7c33.4,0,60.7-27.3,60.7-60.7s-27.3-60.7-60.7-60.7S282,258.6,282,292S309.3,352.7,342.7,352.7z"
			/>
		<g>
			<path class="st0" d="M357.2,295c12.9-14.7,22.4,0.4,31.6-4.6C383.6,300.1,371.2,286.2,357.2,295z"/>
			<path class="st11" d="M374.2,314.8c6.5,0,11.7-3.6,11.7-8c0-4.4-5.3-8-11.7-8c-6.5,0-11.7,3.6-11.7,8
				C362.5,311.1,367.7,314.8,374.2,314.8z"/>
			<path class="st12" d="M328.3,295c-12.9-14.7-22.4,0.4-31.6-4.6C301.8,300.1,314.2,286.2,328.3,295z"/>
			<path class="st11" d="M311.2,314.8c6.5,0,11.7-3.6,11.7-8c0-4.4-5.3-8-11.7-8c-6.5,0-11.7,3.6-11.7,8
				C299.5,311.1,304.8,314.8,311.2,314.8z"/>
		</g>
		
			<ellipse transform="matrix(-0.2942 -0.9557 0.9557 -0.2942 79.1916 661.537)" class="st10" cx="283.9" cy="301.5" rx="20.8" ry="10.9"/>
		
			<ellipse transform="matrix(0.2942 -0.9557 0.9557 0.2942 -5.7486 595.2704)" class="st10" cx="400.2" cy="301.5" rx="20.8" ry="10.9"/>
		<path class="st6" d="M391.9,247.3c-10.1,24.3-62.7,63.7-124.4,48.6C282.5,241.1,336.4,199,391.9,247.3z"/>
		<path class="st13" d="M354.2,323.9c-0.1,7.9-5.2,14.2-11.4,14.2c-6.3,0-11.4-6.4-11.4-14.2c3.1,1.9,7.1,3.1,11.4,3.1
			C347,327,351,325.8,354.2,323.9z"/>
	</g>
	<path class="st0" d="M263.6,519.5c24.5,0,44.3,14.7,44.3,32.8c0,0.2,0,0.3,0,0.5h-88.7c0-0.2,0-0.3,0-0.5
		C219.2,534.1,239.1,519.5,263.6,519.5z"/>
	<path class="st0" d="M174.9,519.5c-24.5,0-44.3,14.7-44.3,32.8c0,0.2,0,0.3,0,0.5h88.7c0-0.2,0-0.3,0-0.5
		C219.2,534.1,199.4,519.5,174.9,519.5z"/>
	<path class="st14" d="M126.5,564c25.4,0,46.2-9,46.2-20c0-11-20.7-20-46.2-20s-46.2,9-46.2,20C80.4,555,101.1,564,126.5,564z"/>
	<path class="st14" d="M96.4,541c-21.3-13.8-34.6-31.5-30.6-57.9c7.6,24.6,11.4,35.7,35.3,48.4c2.6,1.3,3.7,4.5,2.4,7.1
		C102.2,541.3,99,542.4,96.4,541z"/>
	<path class="st15" d="M126.5,564c22.4,0,40.7-24.8,40.7-55.2c0-30.4-18.3-55.2-40.7-55.2c-22.4,0-40.7,24.8-40.7,55.2
		C85.9,539.1,104.1,564,126.5,564z"/>
	<path class="st0" d="M126.5,453.5c15.5,0,29,11.9,35.9,29.3c-9.1,12.7-22.7,21.1-36.6,21.1c-13.5,0-26.6-7.9-35.7-19.9
		C96.9,465.9,110.6,453.5,126.5,453.5z"/>
	<g>
		<path class="st15" d="M170.5,443.1c0,27.7-21.8,52.3-44.7,52.3c-22.9,0-44.7-24.6-44.7-52.3C81.1,391.7,170.5,391.7,170.5,443.1z"
			/>
		<path class="st14" d="M81.9,406c-3.5-6.3-14.8-4-25.2,5.2c-10.5,9.2-16.2,21.7-12.7,28c3.5,6.3,14.8,4,25.2-5.2
			C79.7,424.9,85.4,412.4,81.9,406z"/>
		<path class="st14" d="M71.6,403.8c-3.2,3.3-0.1,11.9,6.9,19.1c7,7.3,15.4,10.5,18.6,7.2c3.2-3.3,0.1-11.9-6.9-19.1
			C83.1,403.8,74.8,400.5,71.6,403.8z"/>
		<path class="st14" d="M85,463.2c-2.5-6.3-3.9-13.1-3.9-20.2c0-24.5,20.4-37.3,41.7-38.4c3.2,5.9,5,12.9,5,20.3
			c0,21.7-15.7,39.3-35,39.3C90.1,464.2,87.5,463.9,85,463.2z"/>
		<line class="st16" x1="125.8" y1="461.4" x2="125.8" y2="478.6"/>
		<path class="st17" d="M117.3,458.8c2.7-0.7,5.5-1.1,8.5-1.1c2.9,0,5.8,0.4,8.5,1.1c-0.9,5.5-4.4,9.7-8.5,9.7
			C121.7,468.5,118.2,464.4,117.3,458.8z"/>
		<path class="st16" d="M141.3,471.1c-6,10-25.4,9.9-31,0"/>
		<path class="st15" d="M171.1,406c3.5-6.3,14.8-4,25.2,5.2c10.5,9.2,16.2,21.7,12.7,28c-3.5,6.3-14.8,4-25.2-5.2
			C173.4,424.9,167.7,412.4,171.1,406z"/>
		<path class="st15" d="M181.5,403.8c3.2,3.3,0.1,11.9-6.9,19.1c-7,7.3-15.4,10.5-18.6,7.2c-3.2-3.3-0.1-11.9,6.9-19.1
			C169.9,403.8,178.2,400.5,181.5,403.8z"/>
	</g>
	<g>
		<path class="st12" d="M117.8,450.4c-3.6-7.6-16.4-8-20.2-2.1C103.2,445.9,111.7,446.5,117.8,450.4z"/>
		<path class="st12" d="M135.2,450.4c3.6-7.6,16.4-8,20.2-2.1C149.8,445.9,141.3,446.5,135.2,450.4z"/>
	</g>
	<path class="st15" d="M147.2,548.4c11.4,0,20.7,6.8,20.7,15.3c0,0.1,0,0.2,0,0.2h-41.4c0-0.1,0-0.2,0-0.2
		C126.5,555.3,135.8,548.4,147.2,548.4z"/>
	<path class="st15" d="M105.8,548.4c-11.4,0-20.7,6.8-20.7,15.3c0,0.1,0,0.2,0,0.2h41.4c0-0.1,0-0.2,0-0.2
		C126.5,555.3,117.3,548.4,105.8,548.4z"/>
	<path class="st14" d="M126.5,564c0.1-10,4.4-23.6,13.7-35.5c-1.9,2.4-7.3,4.1-13.7,4.1c-6.4,0-11.8-1.8-13.7-4.2
		C122.1,540.3,126.5,554,126.5,564z"/>
	<path class="st18" d="M219.2,552.7c0.1-19.7,8.6-46.6,27-70.2c-3.7,4.7-14.4,8.2-27,8.2c-12.7,0-23.4-3.5-27.1-8.3
		C210.5,506.1,219.1,533,219.2,552.7z"/>
	<path class="st1" d="M369.6,543.8c14.8,0,26.9,8.9,26.9,19.9c0,0.1,0,0.2,0,0.3h-53.7c0-0.1,0-0.2,0-0.3
		C342.7,552.7,354.8,543.8,369.6,543.8z"/>
	<path class="st1" d="M315.9,543.8c-14.8,0-26.9,8.9-26.9,19.9c0,0.1,0,0.2,0,0.3h53.7c0-0.1,0-0.2,0-0.3
		C342.7,552.7,330.7,543.8,315.9,543.8z"/>
	<path class="st10" d="M382.7,459.3c25.9-6.2,34.7-29.4,31.1-56c-3.6-27.1-11.4-49.5-38.5-52.8c1.2,0.6-0.9,0.2-2,0.3l18.5,62.6
		c-2.8,16.5,3.6,33.8-30.3,41.4C361.8,462.5,371.3,462.1,382.7,459.3z"/>
	<g>
		
			<ellipse transform="matrix(0.8526 -0.5226 0.5226 0.8526 -157.7562 249.059)" class="st19" cx="362.5" cy="404.1" rx="72.2" ry="46.3"/>
		
			<ellipse transform="matrix(0.8526 -0.5226 0.5226 0.8526 -142.8493 262.8404)" class="st3" cx="394.4" cy="384.6" rx="29.7" ry="33.6"/>
		
			<ellipse transform="matrix(0.8526 -0.5226 0.5226 0.8526 -142.8492 262.8377)" class="st10" cx="394.4" cy="384.6" rx="24.1" ry="27.2"/>
		<g>
			
				<ellipse transform="matrix(0.8527 -0.5224 0.5224 0.8527 -148.239 266.4317)" class="st11" cx="398.3" cy="396.1" rx="4.5" ry="6.6"/>
			<path class="st12" d="M395.1,379.1c2.7-4.2-1-10.7-5.1-10.8C392.8,370.4,395.1,374.8,395.1,379.1z"/>
			<path class="st20" d="M389.4,397.5c-4.6-1.8-8.8-9.2-8.8-14.3C382.6,387.8,386.2,393.7,389.4,397.5z"/>
			<path class="st12" d="M399.6,386.5c4.9-0.5,9,5.8,7.3,9.4C406.3,392.4,403.5,388.4,399.6,386.5z"/>
			<path class="st20" d="M384.6,395.2c-2.1-0.8-4.1-4.3-4.1-6.6C381.4,390.7,383.1,393.4,384.6,395.2z"/>
			
				<ellipse transform="matrix(0.8525 -0.5227 0.5227 0.8525 -139.5804 257.1775)" class="st11" cx="386" cy="375.9" rx="4.5" ry="6.6"/>
		</g>
		<g>
			
				<ellipse transform="matrix(0.9339 -0.3576 0.3576 0.9339 -118.8085 173.0981)" class="st10" cx="408.6" cy="407.8" rx="7.7" ry="4.1"/>
			
				<ellipse transform="matrix(0.7424 -0.6699 0.6699 0.7424 -144.1826 347.7998)" class="st10" cx="380.2" cy="361.4" rx="7.7" ry="4.1"/>
		</g>
		<path class="st3" d="M343.6,415.8c9.1-5.4,25.1-6.8,44.1-0.2c-3.8-1.4-10.1-8.1-15.7-17.2c-5.6-9.1-8.8-17.8-8.2-21.8
			C361.1,396.4,352.5,410.2,343.6,415.8z"/>
	</g>
	<path class="st10" d="M314.3,466c-26.6-3.2-44.5-31.1-44.5-59.2c0-28.6,19.5-52.6,45.9-59.6c-1.1,0.8-2.2,1.6-3.2,2.4l-20.8,70.6
		c5,16.8,8.4,34.8,43.1,38.4C335.4,466.6,325.9,467.4,314.3,466z"/>
	<path class="st10" d="M322.1,466.4c7.5,0,13.6-4.5,13.6-10s-6.1-10-13.6-10c-7.5,0-13.6,4.5-13.6,10S314.6,466.4,322.1,466.4z"/>
	<path class="st10" d="M372,461.2c7.5,0,13.6-4.5,13.6-10s-6.1-10-13.6-10c-7.5,0-13.6,4.5-13.6,10S364.5,461.2,372,461.2z"/>
	<g>
		<path class="st3" d="M409.1,27.5c10.5,0,19-6.2,19-13.8c0-7.6-8.5-13.8-19-13.8c-10.5,0-19,6.2-19,13.8
			C390.1,21.3,398.6,27.5,409.1,27.5z"/>
		<path class="st3" d="M424.5,31.8c8,0,14.6-4.7,14.6-10.5c0-5.8-6.5-10.5-14.6-10.5c-8,0-14.6,4.7-14.6,10.5
			C410,27.1,416.5,31.8,424.5,31.8z"/>
		<path class="st3" d="M391.2,30.3c7.1,0,12.9-4.2,12.9-9.3c0-5.1-5.8-9.3-12.9-9.3c-7.1,0-12.9,4.2-12.9,9.3
			C378.3,26.1,384.1,30.3,391.2,30.3z"/>
		<path class="st3" d="M403.2,34.1c5.2,0,9.4-3.1,9.4-6.8c0-3.7-4.2-6.8-9.4-6.8c-5.2,0-9.4,3.1-9.4,6.8
			C393.8,31,398,34.1,403.2,34.1z"/>
	</g>
	<g>
		<path class="st3" d="M178.8,37.6c10.5,0,19.1-6.2,19.1-13.8c0-7.6-8.6-13.8-19.1-13.8c-10.5,0-19.1,6.2-19.1,13.8
			C159.8,31.4,168.3,37.6,178.8,37.6z"/>
		<path class="st3" d="M159.9,44.1c8,0,14.6-4.7,14.6-10.6c0-5.8-6.6-10.6-14.6-10.6c-8,0-14.6,4.7-14.6,10.6
			C145.3,39.4,151.9,44.1,159.9,44.1z"/>
		<path class="st3" d="M200.7,39.2c7.1,0,13-4.2,13-9.4c0-5.2-5.8-9.4-13-9.4c-7.1,0-13,4.2-13,9.4C187.8,35,193.6,39.2,200.7,39.2z
			"/>
		<path class="st3" d="M182,51.9c9.4,0,17.1-5.5,17.1-12.3c0-6.8-7.7-12.3-17.1-12.3c-9.4,0-17.1,5.5-17.1,12.3
			C164.9,46.3,172.6,51.9,182,51.9z"/>
	</g>
	<g>
		
			<ellipse transform="matrix(-0.1736 -0.9848 0.9848 -0.1736 -85.278 173.6258)" class="st3" cx="30.2" cy="122.6" rx="12.5" ry="17.3"/>
		
			<ellipse transform="matrix(-0.1736 -0.9848 0.9848 -0.1736 -77.7186 199.3499)" class="st3" cx="44.8" cy="132.3" rx="12.8" ry="17.7"/>
		
			<ellipse transform="matrix(-0.1736 -0.9848 0.9848 -0.1736 -115.7858 165.7408)" class="st3" cx="11.6" cy="131.4" rx="8.5" ry="11.7"/>
		
			<ellipse transform="matrix(-0.1737 -0.9848 0.9848 -0.1737 -104.986 190.8646)" class="st3" cx="27.6" cy="139.5" rx="9.2" ry="12.7"/>
	</g>
</g>
</svg>
