<?xml version="1.0" encoding="utf-8"?>
<!-- Generator: Adobe Illustrator 19.0.1, SVG Export Plug-In . SVG Version: 6.00 Build 0)  -->
<svg version="1.1" id="Layer_1" xmlns="http://www.w3.org/2000/svg" xmlns:xlink="http://www.w3.org/1999/xlink" x="0px" y="0px"
	 viewBox="0 0 107.5 50.9" enable-background="new 0 0 107.5 50.9" xml:space="preserve">
<g>
	<path fill="#312B2E" d="M187.8,187.7V67.2h40.4v13.5h-18.9v36.4H227v13.5h-17.7v43.6h18.9v13.4H187.8z"/>
	<path fill="#312B2E" d="M240.2,187.7V67.2h21.5l19.4,73l0,0.2l-1.7-28l-3-45.2h19.4v120.5h-20.7L257,114.3l0,0l1,26.7l1.6,46.7
		H240.2z"/>
	<path fill="#312B2E" d="M309.6,187.7V67.2h27.7c14.9,0,23,4.8,23,13.5v92.6c0,9.9-7,14.4-22.8,14.4H309.6z M331.1,78.9v96.4h3.4
		c3,0,4.3-1.5,4.3-5.2V83.6c0-2.7-1.7-4.7-4.3-4.7H331.1z"/>
	<path fill="#312B2E" d="M424.8,67.2v106.5c0,9.7-9.8,15.7-25.8,15.7c-15.8,0-24.9-5.7-24.9-15.4V67.2h21.5v104.1
		c0,2,1.5,3.5,3.6,3.5c2.3,0,4-1.3,4-3.2V67.2H424.8z"/>
	<path fill="#312B2E" d="M438.6,187.7V67.2h27.7c13.8,0,23,5.9,23,14.4v29.1c0,7.9-4,11.9-14.7,14.9c10.2,1.7,14.7,5.7,14.7,12.7
		v39.1c0,4.5,0.2,5.9,2.3,10.4h-22.4c-1.3-3-1.5-4.2-1.5-7.5v-42.8c0-3.7-1.1-5.2-4.5-5.2h-3.2v55.5H438.6z M460.1,80.2v38.9h3.2
		c2.8,0,4.5-2,4.5-4.7V84.6c0-2.3-1.7-4.3-3.8-4.3H460.1z"/>
	<path fill="#386351" d="M503.3,67.2h21.5v120.5h-21.5V67.2z"/>
	<path fill="#312B2E" d="M567.8,110V83.1c0-1.8-1.5-3.3-3.4-3.3c-2.3,0-4.3,1.5-4.3,3.3v18.1c0,3.5,0.4,5.9,1.1,7
		c0.2,0.7,1.7,1.8,3.8,3.8l16.4,15.2c2.3,2.2,4.3,4,5.1,5.3c1.7,2.3,2.8,6.4,2.8,10.5v29.8c0,10.4-10,16.5-26.4,16.5
		c-15.5,0-24.3-5.9-24.3-16v-34.9h21.5v33.3c0,1.8,1.5,3.2,3.6,3.2s4-1.3,4-3.2v-26.9c0-4-0.2-4.3-4.5-8.4l-16.2-15.7
		c-2.3-2.2-4-4.2-4.9-5.2c-2.6-2.8-3.6-5.9-3.6-10.9V80.9c0-7,4.9-12.5,12.1-14.2c3-0.7,7.5-1.3,13.4-1.3h1.9
		c15.1,0,23.2,5.7,23.2,16V110H567.8z"/>
</g>
<path display="none" fill="#386351" d="M500,71.5l1,1c-0.2-0.5-0.4-0.9-0.6-1.3L500,71.5z"/>
<path display="none" fill="#386351" d="M500.4,71.2c0.2,0.4,0.4,0.9,0.6,1.3l1.9,1.9c-0.1-1.7-0.3-3.5-0.5-5.2L500.4,71.2z"/>
<path display="none" fill="#386351" d="M524.4,58.7l-10.3-10.3l-11.8,11.8c0.2,1.7,0.4,3.5,0.5,5.2l11.3,11.3L526,64.8c0,0,0,0,0,0
	C525.5,62.8,524.9,60.7,524.4,58.7z"/>
<polygon display="none" fill="#386351" points="526,73.8 526,73.8 526,73.8 "/>
<path display="none" fill="#386351" d="M526,70.4c0,1.2,0,2.3,0,3.5c0,0,0,0,0,0l2.3-2.3l-3.9-3.9c0.5,2.1,1,4.1,1.6,6.2
	C526,72.7,526,71.5,526,70.4"/>
<line display="none" fill="none" x1="513" y1="53.1" x2="524.5" y2="67.4"/>
<polyline display="none" fill="none" points="492,53.4 513,53.4 524,67.4 503,67.4 513,53.1 "/>
<line display="none" fill="none" x1="510.9" y1="56.1" x2="510.9" y2="56.1"/>
<polyline display="none" fill="#386351" points="503.5,67.4 514.5,52.4 524.8,67.4 "/>
<polyline fill="#386351" points="503.3,67.2 513.8,56 524.7,67.2 "/>
<g>
	<path fill="#312B2E" d="M603.1,75.5c-6.5,0-11.8-4.6-11.8-10.3S596.6,55,603.1,55s11.8,4.6,11.8,10.3S609.6,75.5,603.1,75.5z
		 M593.4,65.2c0,4.6,4.3,8.4,9.7,8.4s9.7-3.8,9.7-8.4s-4.3-8.4-9.7-8.4S593.4,60.6,593.4,65.2z M608.4,70.5c0.1,0.1,0.1,0.3,0,0.4
		c-0.1,0.1-0.2,0.2-0.4,0.2h-2c-0.2,0-0.3-0.1-0.4-0.2l-2.5-4.2h-2v4c0,0.2-0.2,0.4-0.4,0.4h-1.8c-0.2,0-0.4-0.2-0.4-0.4v-11
		c0-0.2,0.2-0.4,0.4-0.4h3.9c1.4,0,2,0.1,2.5,0.3c1.5,0.5,2.4,1.8,2.4,3.3c0,1.4-0.8,2.6-2.1,3.1c0,0.1,0.1,0.1,0.1,0.2L608.4,70.5z
		 M604.2,61.6c-0.3-0.1-0.6-0.2-1.5-0.2h-1.6v3.2h2.1c1.2,0,1.8-0.6,1.8-1.6C605,62.3,604.8,61.9,604.2,61.6z"/>
</g>
<path fill="#386351" stroke="#2D2D2D" stroke-width="5" stroke-miterlimit="10" d="M33,159.4"/>
<polygon fill="#386351" stroke="#2D2D2D" stroke-width="5" stroke-miterlimit="10" points="54.6,3.5 -65.6,123.7 -23.8,166.3 
	-7.5,147.5 -7.5,84.4 -0.4,75.2 6.5,85 6.5,85 6.5,151.4 -14.6,175.5 2.7,193.1 32.5,160.4 32.5,84.4 39.7,73.4 46.5,84.7 
	46.5,84.7 46.5,164.4 12.6,202.6 30.1,220.5 73.5,173.1 73.5,87.4 80.8,74.9 87.5,87.3 87.5,87.3 87.6,177.4 40.3,230.3 54.3,244 
	174.7,123.7 "/>
<path fill="#FFFFFF" stroke="#FFFFFF" stroke-width="5" stroke-miterlimit="10" d="M89.2,92.2"/>
</svg>
