<?xml version="1.0" encoding="utf-8"?>
<!-- Generator: Adobe Illustrator 19.0.1, SVG Export Plug-In . SVG Version: 6.00 Build 0)  -->
<svg version="1.1" id="Layer_1" xmlns="http://www.w3.org/2000/svg" xmlns:xlink="http://www.w3.org/1999/xlink" x="0px" y="0px"
	 viewBox="0 0 52 5.5" enable-background="new 0 0 52 5.5" xml:space="preserve">
<polygon fill="#312B2E" points="-34.4,5 -14.4,2.8 -5.3,2.3 -1,2.1 8.4,0.2 22.4,1.7 36.4,3.3 45.6,0 55.8,2.1 66.5,2 84.3,3.7 
	92.8,5.1 101.8,3.2 122.8,5.5 130.2,5.2 140.4,3.9 149.8,4.8 156.4,6.6 167.4,6.7 "/>
<polygon fill="#312B2E" points="4.6,1 6.9,0 8.4,0.2 11.1,0 11.9,1.7 13.5,0 16.6,1.1 20.9,0.6 22.4,1.7 26.9,1.7 28.3,2.4 
	31.9,1.7 33.3,2.4 34.6,0.6 39,1.7 42.2,1.3 36.4,3.4 "/>
</svg>
