<?xml version="1.0" encoding="utf-8"?>
<!-- Generator: Adobe Illustrator 19.0.1, SVG Export Plug-In . SVG Version: 6.00 Build 0)  -->
<svg version="1.1" id="Layer_1" xmlns="http://www.w3.org/2000/svg" xmlns:xlink="http://www.w3.org/1999/xlink" x="0px" y="0px"
	 viewBox="0 0 232.5 8.5" enable-background="new 0 0 232.5 8.5" xml:space="preserve">
<polygon fill="#428465" points="20.6,8.5 37.6,2.5 43.3,4.5 48,4.5 51.8,2.5 54.6,5.5 57,2.5 63.9,2.5 66,0 75.3,4.4 77,5.5 
	83.5,2.5 91,2.5 93.8,4.4 96.7,5.1 104.7,2.2 110,5.5 112,5.5 117.4,2.2 121.5,4.4 122,1.8 124,0.5 131,0.5 134.2,4.4 135.9,2 
	135.6,0.5 139,0.5 147.2,4.5 150,2.3 158,4.2 158,0.5 165.3,2.8 168.8,2 176.5,2.5 179,4.5 183.3,1.8 190.3,4.5 195.5,2.5 
	202.3,5.5 211,1.5 230.7,6.1 275,4.5 294.6,6.4 299.3,8.6 "/>
</svg>
