<?xml version="1.0" encoding="utf-8"?>
<!-- Generator: Adobe Illustrator 19.0.1, SVG Export Plug-In . SVG Version: 6.00 Build 0)  -->
<svg version="1.1" id="Layer_1" xmlns="http://www.w3.org/2000/svg" xmlns:xlink="http://www.w3.org/1999/xlink" x="0px" y="0px"
	 viewBox="-337 156.3 284.9 249.7" style="enable-background:new -337 156.3 284.9 249.7;" xml:space="preserve">
<style type="text/css">
	.st0{fill:#315141;}
	.st1{filter:url(#Adobe_OpacityMaskFilter);}
	.st2{display:none;opacity:0.3;mask:url(#SVGID_1_);}
	.st3{display:inline;fill:#190C0C;}
</style>
<g>
	<g>
		<path class="st0" d="M-94.3,360.4c27.1-23,43.4-54.9,42-89.5c-2.5-66.2-68.3-117.5-146.9-114.5s-140.3,59.2-137.7,125.4
			c2.5,66.2,68.3,117.5,146.9,114.4c20.1-0.8,39-5,56.1-12c12.6,7.4,43.2,22.4,81.8,21.7C-52.1,406-81,400.5-94.3,360.4z
			 M-182.2,347.1c-7.1,1.5-14.2-3-15.6-10.1c-1.5-7.1,3.1-14.1,10.2-15.6c7-1.5,13.9,3,15.5,10.1
			C-170.6,338.7-175.1,345.6-182.2,347.1z M-184,288.2c-3.9,6.6-7.6,12.5-0.8,20l-1.2,1.3c-9.5-2-16.9-7.5-18.2-17.1
			c-2.3-15.8,16-23.7,11-46c-3.1-14.3-11.5-21-23-18.6c-12.1,2.6-17.6,13.2-13.6,31.4l-1.8,0.4l-10-17.7c3.3-10.6,14.4-19.6,30.8-23
			c25.4-5.4,42.2,3,46.3,22.5C-160.6,259.7-174.4,271.1-184,288.2z"/>
	</g>
	<defs>
		<filter id="Adobe_OpacityMaskFilter" filterUnits="userSpaceOnUse" x="-337" y="156.3" width="284.9" height="249.6">
			<feColorMatrix  type="matrix" values="1 0 0 0 0  0 1 0 0 0  0 0 1 0 0  0 0 0 1 0"/>
		</filter>
	</defs>
	<mask maskUnits="userSpaceOnUse" x="-337" y="156.3" width="284.9" height="249.6" id="SVGID_1_">
		<g class="st1">
			
				<image style="overflow:visible;enable-background:new    ;" width="290" height="254" xlink:href="FC6C4AEB.jpeg"  transform="matrix(1 0 0 1 -339.4047 154.1941)">
			</image>
		</g>
	</mask>
	<g class="st2">
		<path class="st3" d="M-94.3,360.4c27.1-23,43.4-54.9,42-89.5c-2.5-66.2-68.3-117.5-146.9-114.5s-140.3,59.2-137.7,125.4
			c2.5,66.2,68.3,117.5,146.9,114.4c20.1-0.8,39-5,56.1-12c12.6,7.4,43.2,22.4,81.8,21.7C-52.1,406-81,400.5-94.3,360.4z
			 M-182.2,347.1c-7.1,1.5-14.2-3-15.6-10.1c-1.5-7.1,3.1-14.1,10.2-15.6c7-1.5,13.9,3,15.5,10.1
			C-170.6,338.7-175.1,345.6-182.2,347.1z M-184,288.2c-3.9,6.6-7.6,12.5-0.8,20l-1.2,1.3c-9.5-2-16.9-7.5-18.2-17.1
			c-2.3-15.8,16-23.7,11-46c-3.1-14.3-11.5-21-23-18.6c-12.1,2.6-17.6,13.2-13.6,31.4l-1.8,0.4l-10-17.7c3.3-10.6,14.4-19.6,30.8-23
			c25.4-5.4,42.2,3,46.3,22.5C-160.6,259.7-174.4,271.1-184,288.2z"/>
	</g>
</g>
</svg>
