<?xml version="1.0" encoding="utf-8"?>
<!-- Generator: Adobe Illustrator 19.0.1, SVG Export Plug-In . SVG Version: 6.00 Build 0)  -->
<svg version="1.1" id="Layer_1" xmlns="http://www.w3.org/2000/svg" xmlns:xlink="http://www.w3.org/1999/xlink" x="0px" y="0px"
	 viewBox="0 0 25.6 19.4" enable-background="new 0 0 25.6 19.4" xml:space="preserve">
<g>
	<path fill="#376450" d="M1.1,9.2l10.6-0.4l6.5-7.5l6.2,9.3l1.2-0.2L18.3,0.1l-7.4,1.4V0.1L10.3,0L8.4,0.4v1.5L6,2.4L0,7.8v1.4
		C0,9.2,0.6,9.2,1.1,9.2L1.1,9.2z M1.1,9.2"/>
	<path fill="#376450" d="M18.2,1.9l-6.2,7.2L1.7,9.6v8.7l9.4,1.1v0l5.9-0.7v-6.7l2.7,0v6.4l4.3-0.5v-7.2L18.2,1.9z M5.7,15.5L3,15.3
		v-3.5h2.7V15.5z M10.3,15.8l-3.2-0.2v-3.7h3.2V15.8z M15.6,15.6l-3.3,0.2v-4l3.3,0V15.6z M23.2,15.2l-2.5,0.2v-3.4l2.5,0V15.2z
		 M23.2,15.2"/>
</g>
</svg>
