<?xml version="1.0" encoding="utf-8"?>
<!-- Generator: Adobe Illustrator 19.0.1, SVG Export Plug-In . SVG Version: 6.00 Build 0)  -->
<svg version="1.1" id="Layer_1" xmlns="http://www.w3.org/2000/svg" xmlns:xlink="http://www.w3.org/1999/xlink" x="0px" y="0px"
	 viewBox="0 0 516 167" enable-background="new 0 0 516 167" xml:space="preserve">
<g>
	<defs>
		<rect id="SVGID_1_" width="516" height="167"/>
	</defs>
	<clipPath id="SVGID_2_">
		<use xlink:href="#SVGID_1_"  overflow="visible"/>
	</clipPath>
	<polyline clip-path="url(#SVGID_2_)" fill="#7AC143" points="48,0.7 0,28.4 0,83.8 48,56.1 48,0.7 	"/>
</g>
<g>
	<defs>
		<rect id="SVGID_3_" y="0.7" width="515.7" height="166.3"/>
	</defs>
	<clipPath id="SVGID_4_">
		<use xlink:href="#SVGID_3_"  overflow="visible"/>
	</clipPath>
	<g clip-path="url(#SVGID_4_)">
		<defs>
			<rect id="SVGID_5_" width="516" height="167"/>
		</defs>
		<clipPath id="SVGID_6_">
			<use xlink:href="#SVGID_5_"  overflow="visible"/>
		</clipPath>
		<polyline clip-path="url(#SVGID_6_)" fill="#7AC143" points="0,83.8 0,139.3 48,111.5 0,83.8 0,83.8 		"/>
		<polyline clip-path="url(#SVGID_6_)" fill="#7AC143" points="48,111.5 48,167 96,139.3 96,83.8 48,111.5 		"/>
	</g>
</g>
<g>
	<defs>
		<rect id="SVGID_7_" width="516" height="167"/>
	</defs>
	<clipPath id="SVGID_8_">
		<use xlink:href="#SVGID_7_"  overflow="visible"/>
	</clipPath>
	<polyline clip-path="url(#SVGID_8_)" fill="#7AC143" points="48,56.1 96,83.8 96,28.4 48,56.1 	"/>
	<polyline clip-path="url(#SVGID_8_)" fill="#FFFFFF" points="0,83.8 48,111.5 48,56.1 0,83.8 	"/>
	<polyline clip-path="url(#SVGID_8_)" points="48,111.5 96,83.8 48,56.1 48,111.5 	"/>
	<path clip-path="url(#SVGID_8_)" d="M218.3,104.7c0-5.1,1-9.8,2.8-14.2c1.9-4.4,4.5-8.2,7.8-11.5c3.3-3.3,7.2-5.9,11.7-7.8
		c4.5-1.9,9.3-2.8,14.5-2.8c5.2,0,10,0.9,14.5,2.8c4.5,1.9,8.4,4.5,11.7,7.8c3.3,3.3,5.9,7.2,7.8,11.5c1.9,4.4,2.8,9.1,2.8,14.2
		c0,5.1-1,9.8-2.8,14.2c-1.9,4.4-4.5,8.3-7.8,11.5c-3.3,3.3-7.2,5.8-11.7,7.7c-4.5,1.9-9.3,2.8-14.5,2.8c-5.2,0-10-1-14.5-2.8
		c-4.5-1.9-8.4-4.5-11.7-7.7c-3.3-3.3-5.9-7.1-7.8-11.5C219.3,114.5,218.3,109.8,218.3,104.7 M232.3,104.7c0,3.5,0.5,6.7,1.6,9.7
		c1.1,3,2.6,5.5,4.5,7.6c1.9,2.1,4.3,3.8,7.2,5c2.8,1.2,6,1.8,9.5,1.8c3.5,0,6.7-0.6,9.5-1.8c2.8-1.2,5.2-2.9,7.2-5
		c1.9-2.1,3.5-4.6,4.5-7.6c1.1-3,1.6-6.2,1.6-9.7c0-3.5-0.5-6.7-1.6-9.7c-1.1-3-2.6-5.5-4.5-7.6c-2-2.1-4.3-3.7-7.2-5
		c-2.8-1.2-6-1.8-9.5-1.8c-3.5,0-6.7,0.6-9.5,1.8c-2.8,1.2-5.2,2.9-7.2,5c-2,2.1-3.5,4.6-4.5,7.6C232.9,98,232.3,101.2,232.3,104.7z
		"/>
	<polyline clip-path="url(#SVGID_8_)" points="387.3,127.5 426.6,81.5 388.6,81.5 388.6,70.1 442.6,70.1 442.6,81.8 403,128 
		444.7,128 444.7,139.4 387.3,139.4 387.3,127.5 	"/>
	<polyline clip-path="url(#SVGID_8_)" points="458.3,127.5 497.6,81.5 459.6,81.5 459.6,70.1 513.7,70.1 513.7,81.8 474.1,128 
		515.7,128 515.7,139.4 458.3,139.4 458.3,127.5 	"/>
	<path clip-path="url(#SVGID_8_)" d="M153.7,76.4c-0.2,0.2-0.4,0.2-0.4,0c0,0,0-47.9,0-47.9h-13.1v110.9h13.1v-36.9
		c0-11.5,4.9-20.9,17.5-20.9c12.5,0,18.9,9.6,18.9,20.9v36.9h13.1V97.2C202.9,66.8,168.7,61.4,153.7,76.4"/>
	<path clip-path="url(#SVGID_8_)" d="M354.4,121.7c-1.5,2-3.4,3.6-5.8,4.9c-2.4,1.3-5.4,1.9-8.9,1.9c-3.6,0-6.6-0.6-8.9-1.9
		c-2.4-1.3-4.4-2.9-5.8-4.9c-1.5-2-2.6-4.3-3.2-6.6c-0.7-2.4-1-4.8-1-7V70h-13v39.6c0,22.5,15.5,27.8,19.4,29.3
		c3.9,1.5,8.1,2.2,12.6,2.2c4.5,0,8.7-0.7,12.6-2.2c3.9-1.5,19.4-7,19.4-29.3V70.1h-13V108c0,2.3-0.3,4.6-1,7
		C357,117.4,356,119.6,354.4,121.7"/>
</g>
</svg>
