<?xml version="1.0" encoding="utf-8"?>
<!-- Generator: Adobe Illustrator 19.0.1, SVG Export Plug-In . SVG Version: 6.00 Build 0)  -->
<svg version="1.1" id="Layer_1" xmlns="http://www.w3.org/2000/svg" xmlns:xlink="http://www.w3.org/1999/xlink" x="0px" y="0px"
	 viewBox="0 0 173 132.6" style="enable-background:new 0 0 173 132.6;" xml:space="preserve">
<style type="text/css">
	.st0{fill:#376350;}
	.st1{fill:#FFFFFF;}
</style>
<path class="st0" d="M163.7,103.1c9.4-12.4,10.9-29.2,7.9-46.3c-3.5-19.6-11.6-30.3-31-37.6C118.5,10.9,97.3,5.7,74.1,1.7
	C56.7-1.4,37.6-1,22,9C13.8,14.4,8.7,22.3,6.1,31.7C4.7,36.8,1.2,60,0.4,66.4c-2.3,21.1,4.3,33.8,24.9,39.8
	c21.4,6.3,41.9,8.8,64.2,9.9c17.4,0.9,38.9,3.4,56.5-1.9c8.5,7.3,22.1,18.7,23.7,18.2c2.4-0.8-5.8-29.5-5.8-29.5L163.7,103.1z"/>
<g>
	<path class="st1" d="M87.3,16.5c8.4,0,14.9,2.4,19.6,7.3c4.6,4.9,7,11.6,7,20.2c0,9.1-1.9,17.4-5.6,24.9c-3.7,7.5-8.8,13-15.1,16.6
		l11.6,20.6H83.3l-7.9-16h-0.6c-8.4,0-14.9-2.4-19.6-7.3c-4.6-4.9-7-11.6-7-20.2c0-8.6,1.7-16.6,5-23.8C56.6,31.6,61.2,26,67,22.2
		C72.9,18.4,79.6,16.5,87.3,16.5z M85.7,32.5c-3.4,0-6.4,1.4-9.2,4.1c-2.8,2.7-5,6.4-6.5,11c-1.6,4.7-2.3,9.7-2.3,15.1
		c0,3.7,0.8,6.6,2.3,8.4c1.5,1.9,3.7,2.8,6.6,2.8c3.3,0,6.4-1.3,9.1-4c2.8-2.6,4.9-6.3,6.5-11c1.6-4.7,2.4-9.7,2.4-15.2
		c0-3.7-0.8-6.5-2.3-8.4C90.7,33.5,88.5,32.5,85.7,32.5z"/>
</g>
</svg>
