<?xml version="1.0" encoding="utf-8"?>
<!-- Generator: Adobe Illustrator 19.0.1, SVG Export Plug-In . SVG Version: 6.00 Build 0)  -->
<svg version="1.1" id="Layer_1" xmlns="http://www.w3.org/2000/svg" xmlns:xlink="http://www.w3.org/1999/xlink" x="0px" y="0px"
	 viewBox="0 0 121.2 114.2" style="enable-background:new 0 0 121.2 114.2;" xml:space="preserve">
<style type="text/css">
	.st0{opacity:0.1;fill:#EEEEEE;}
	.st1{fill:#428465;}
	.st2{fill:#325E48;}
</style>
<path class="st0" d="M121.2,109.2c0,2.7-27.1,4.9-60.6,4.9C27.1,114.2,0,112,0,109.2c0-2.7,27.1-4.9,60.6-4.9
	C94.1,104.3,121.2,106.5,121.2,109.2z"/>
<g>
	<g>
		<path class="st1" d="M6.7,33c-0.1,0.5-0.4,1.3-0.4,2.3c-0.1,0.9-0.3,2.2-0.2,3.5c0.1,1.3,0.3,2.7,0.7,4.2c0.4,1.5,1,3,1.7,4.5
			c0.7,1.6,1.7,2.9,2.8,4.4c1.1,1.4,2.3,2.7,3.7,3.9c1.4,1.2,2.8,2.2,4.4,3.1c1.6,0.8,3.1,1.7,4.8,2.2c1.6,0.6,3.3,1.1,5,1.3
			c3.3,0.6,6.6,0.5,9.4,0c1.4-0.3,2.7-0.6,3.9-1c1.2-0.4,2.2-0.9,3.1-1.3c0.4-0.2,0.8-0.4,1.1-0.6c-0.5-0.1-1.1-0.3-1.7-0.5
			c-3-0.9-7-2.3-10.8-4c-1.9-0.9-3.7-1.9-5.4-2.9c-0.8-0.5-1.6-1.1-2.3-1.6c-0.7-0.5-1.4-1.1-2-1.5c-0.6-0.5-1.1-1-1.6-1.4
			c-0.5-0.4-0.8-0.9-1.1-1.2c-0.6-0.7-0.9-1.1-0.9-1.1s0.4,0.4,1,1c0.3,0.3,0.7,0.7,1.2,1.1c0.5,0.4,1,0.8,1.7,1.3
			c0.7,0.4,1.3,0.9,2.1,1.4c0.8,0.4,1.6,0.9,2.4,1.3c1.7,0.9,3.6,1.7,5.5,2.4c3.8,1.4,7.8,2.5,10.8,3.1c0.8,0.2,1.6,0.3,2.3,0.4
			c-0.2-0.5-0.5-1.1-0.8-1.7c-0.4-0.8-1-1.8-1.6-2.8c-0.6-1-1.3-2.1-2.1-3.2c-0.8-1.1-1.6-2.1-2.5-3.2c-0.9-1.1-1.9-2-2.9-3
			c-1-0.9-2.1-1.9-3.2-2.7c-1.1-0.8-2.2-1.6-3.4-2.3c-2.3-1.4-4.7-2.5-7.2-3.3c-1.2-0.4-2.5-0.7-3.7-1c-1.2-0.3-2.5-0.5-3.7-0.8
			c-1.2-0.2-2.4-0.4-3.5-0.6c-1.2-0.2-2.2-0.4-3.1-0.5c-0.9-0.2-1.7-0.2-2.3-0.3c-0.6-0.1-0.9-0.1-0.9-0.1S6.8,32.5,6.7,33z"/>
		<path class="st2" d="M38.5,66.9c-0.9,1.9-1.9,3.7-2.9,5.4c-0.5,0.8-1.1,1.6-1.6,2.4c-0.5,0.7-1.1,1.4-1.5,2
			c-0.5,0.6-1,1.1-1.4,1.6c-0.4,0.5-0.9,0.8-1.2,1.1c-0.7,0.6-1.1,0.9-1.1,0.9s0.4-0.4,1-1c0.3-0.3,0.7-0.7,1.1-1.2
			c0.4-0.5,0.8-1,1.3-1.7c0.4-0.6,0.9-1.3,1.4-2.1c0.4-0.8,0.9-1.6,1.3-2.4c0.8-1.7,1.7-3.6,2.4-5.5c0.3-0.8,0.5-1.6,0.8-2.4
			c-3.9,0.5-7.9,0.4-11.6-0.2c-0.8,0.8-1.5,1.7-2.2,2.6c-0.8,1.1-1.6,2.2-2.3,3.4c-1.4,2.3-2.5,4.7-3.3,7.2c-0.4,1.2-0.7,2.5-1,3.7
			c-0.3,1.2-0.5,2.5-0.8,3.7c-0.2,1.2-0.4,2.4-0.6,3.5c-0.2,1.2-0.4,2.2-0.5,3.1c-0.2,0.9-0.2,1.7-0.3,2.3c-0.1,0.6-0.1,0.9-0.1,0.9
			s0.3,0.1,0.8,0.3c0.5,0.1,1.3,0.4,2.3,0.4c0.9,0.1,2.2,0.3,3.5,0.2c1.3-0.1,2.7-0.3,4.2-0.7c1.5-0.4,3-1,4.5-1.7
			c1.6-0.7,2.9-1.7,4.4-2.8c1.4-1.1,2.7-2.3,3.9-3.7c1.2-1.4,2.2-2.8,3.1-4.4c0.8-1.6,1.7-3.1,2.2-4.8c0.6-1.6,1.1-3.3,1.3-4.9
			c0.6-3.3,0.5-6.5,0-9.4c0-0.1-0.1-0.2-0.1-0.3c-1.9,0.7-3.9,1.1-6,1.5C39.4,64.8,39,65.8,38.5,66.9z"/>
	</g>
	<g>
		<path class="st2" d="M88.1,73.5L84.4,66l13.1-6.1l5.7,14.2h4.4l-6.1-15.6c-0.4-1.5-1.6-3-3.6-3c-0.6,0-1.3,0.2-1.8,0.5l-13.4,6.2
			c-0.7,0.3-2.1,0.9-2.6,2.4c-0.2,0.6-0.3,1.6,0.3,2.8l3.5,7.2l5.6-0.3C89.1,74,88.4,73.7,88.1,73.5z"/>
		<path class="st1" d="M108.8,77.2l-0.1-0.1c-0.1-0.5-0.3-0.9-0.5-1.2l-0.7-1.7h-4.4l0,0H89.6c0,0-0.1,0-0.1,0l-5.6,0.3l-10.9,0
			v-6.2c0-2.5-1.7-3.2-2.7-3.2c-1.3,0-2.5,1-3,1.6L49.8,84.7c-0.2,0.2-1.3,1.2-1.4,2.8c0,0.7,0.2,1.7,1.1,2.7
			C51.3,92,67.8,108,67.8,108c0.4,0.4,1.6,1.4,2.9,1.4c0.3,0,2.9-0.1,2.9-3.6v-5.5h26.9c0.3,0,1-0.1,1.7-0.5
			c0.5-0.4,1.4-1.2,1.4-2.8c0.1-0.7,1.3-4.5,2.2-7.6c1.8-5.6,2.6-8.5,2.9-10.1l0,0V79c0.1-0.4,0.1-0.7,0.1-1c0-0.3-0.1-0.5-0.1-0.7
			V77.2z"/>
	</g>
	<g>
		<path class="st2" d="M36.4,21.6c-0.2,0.2-1.4,1.5-1.3,3.2c0.1,0.8,0.5,1.9,1.7,2.7l12,8.5c0.8,0.6,1.7,1.1,2.8,1.1
			c0.7,0,2-0.2,2.8-1.7l4.4-6.4l-12-20.8L36.4,21.6z M56,25.7l-4.7,6.9l-11.8-8.4L49,12.1l6.9,12C56.1,24.4,56.1,25.3,56,25.7z"/>
		<path class="st1" d="M95.5,22.5c-0.9-1.2-2.5-1.4-4.4-0.4l-4.8,2.7L73,1.6C72.6,0.9,71.7,0,70.3,0c-0.6,0-1.2,0.2-1.7,0.5
			c-0.7,0.3-4.5,1.1-7.6,1.8C53.3,4,50.6,4.6,49.6,5.2c-1,0.6-1.5,1.3-1.8,1.9l-0.9,1.2l12,20.8l0.1-0.1l5.3,9.2l-5.3,3.1
			c-1.8,1-1.9,2.3-1.8,3c0.3,1.9,2.3,2.6,3.2,2.8l24.4,6.3c0.2,0.1,0.7,0.2,1.4,0.2c1.7,0,3.1-1.1,3.5-2.8
			c0.6-2.4,6.3-24.7,6.3-24.7C96.1,25.4,96.4,23.7,95.5,22.5z"/>
	</g>
</g>
</svg>
