<?xml version="1.0" encoding="utf-8"?>
<!-- Generator: Adobe Illustrator 19.0.1, SVG Export Plug-In . SVG Version: 6.00 Build 0)  -->
<svg version="1.1" id="Layer_1" xmlns="http://www.w3.org/2000/svg" xmlns:xlink="http://www.w3.org/1999/xlink" x="0px" y="0px"
	 viewBox="-181.9 193.8 102.7 109.4" style="enable-background:new -181.9 193.8 102.7 109.4;" xml:space="preserve">
<style type="text/css">
	.st0{fill:#428465;}
	.st1{fill:#325E48;}
</style>
<g>
	<g>
		<path class="st0" d="M-181.3,226.8c-0.1,0.5-0.4,1.3-0.4,2.3c-0.1,0.9-0.3,2.2-0.2,3.5c0.1,1.3,0.3,2.7,0.7,4.2
			c0.4,1.5,1,3,1.7,4.5c0.7,1.6,1.7,2.9,2.8,4.4c1.1,1.4,2.3,2.7,3.7,3.9c1.4,1.2,2.8,2.2,4.4,3.1c1.6,0.8,3.1,1.7,4.8,2.2
			c1.6,0.6,3.3,1.1,5,1.3c3.3,0.6,6.6,0.5,9.4,0c1.4-0.3,2.7-0.6,3.9-1c1.2-0.4,2.2-0.9,3.1-1.3c0.4-0.2,0.8-0.4,1.1-0.6
			c-0.5-0.1-1.1-0.3-1.7-0.5c-3-0.9-7-2.3-10.8-4c-1.9-0.9-3.7-1.9-5.4-2.9c-0.8-0.5-1.6-1.1-2.3-1.6c-0.7-0.5-1.4-1.1-2-1.5
			c-0.6-0.5-1.1-1-1.6-1.4c-0.5-0.4-0.8-0.9-1.1-1.2c-0.6-0.7-0.9-1.1-0.9-1.1s0.4,0.4,1,1c0.3,0.3,0.7,0.7,1.2,1.1
			c0.5,0.4,1,0.8,1.7,1.3c0.7,0.4,1.3,0.9,2.1,1.4c0.8,0.4,1.6,0.9,2.4,1.3c1.7,0.9,3.6,1.7,5.5,2.4c3.8,1.4,7.8,2.5,10.8,3.1
			c0.8,0.2,1.6,0.3,2.3,0.4c-0.2-0.5-0.5-1.1-0.8-1.7c-0.4-0.8-1-1.8-1.6-2.8c-0.6-1-1.3-2.1-2.1-3.2c-0.8-1.1-1.6-2.1-2.5-3.2
			c-0.9-1.1-1.9-2-2.9-3c-1-0.9-2.1-1.9-3.2-2.7c-1.1-0.8-2.2-1.6-3.4-2.3c-2.3-1.4-4.7-2.5-7.2-3.3c-1.2-0.4-2.5-0.7-3.7-1
			c-1.2-0.3-2.5-0.5-3.7-0.8c-1.2-0.2-2.4-0.4-3.5-0.6c-1.2-0.2-2.2-0.4-3.1-0.5c-0.9-0.2-1.7-0.2-2.3-0.3c-0.6-0.1-0.9-0.1-0.9-0.1
			S-181.2,226.3-181.3,226.8z"/>
		<path class="st1" d="M-149.5,260.7c-0.9,1.9-1.9,3.7-2.9,5.4c-0.5,0.8-1.1,1.6-1.6,2.4c-0.5,0.7-1.1,1.4-1.5,2
			c-0.5,0.6-1,1.1-1.4,1.6c-0.4,0.5-0.9,0.8-1.2,1.1c-0.7,0.6-1.1,0.9-1.1,0.9s0.4-0.4,1-1c0.3-0.3,0.7-0.7,1.1-1.2s0.8-1,1.3-1.7
			c0.4-0.6,0.9-1.3,1.4-2.1c0.4-0.8,0.9-1.6,1.3-2.4c0.8-1.7,1.7-3.6,2.4-5.5c0.3-0.8,0.5-1.6,0.8-2.4c-3.9,0.5-7.9,0.4-11.6-0.2
			c-0.8,0.8-1.5,1.7-2.2,2.6c-0.8,1.1-1.6,2.2-2.3,3.4c-1.4,2.3-2.5,4.7-3.3,7.2c-0.4,1.2-0.7,2.5-1,3.7c-0.3,1.2-0.5,2.5-0.8,3.7
			c-0.2,1.2-0.4,2.4-0.6,3.5c-0.2,1.2-0.4,2.2-0.5,3.1c-0.2,0.9-0.2,1.7-0.3,2.3c-0.1,0.6-0.1,0.9-0.1,0.9s0.3,0.1,0.8,0.3
			c0.5,0.1,1.3,0.4,2.3,0.4c0.9,0.1,2.2,0.3,3.5,0.2c1.3-0.1,2.7-0.3,4.2-0.7s3-1,4.5-1.7c1.6-0.7,2.9-1.7,4.4-2.8
			c1.4-1.1,2.7-2.3,3.9-3.7c1.2-1.4,2.2-2.8,3.1-4.4c0.8-1.6,1.7-3.1,2.2-4.8c0.6-1.6,1.1-3.3,1.3-4.9c0.6-3.3,0.5-6.5,0-9.4
			c0-0.1-0.1-0.2-0.1-0.3c-1.9,0.7-3.9,1.1-6,1.5C-148.6,258.6-149,259.6-149.5,260.7z"/>
	</g>
	<g>
		<path class="st1" d="M-99.9,267.3l-3.7-7.5l13.1-6.1l5.7,14.2h4.4l-6.1-15.6c-0.4-1.5-1.6-3-3.6-3c-0.6,0-1.3,0.2-1.8,0.5
			l-13.4,6.2c-0.7,0.3-2.1,0.9-2.6,2.4c-0.2,0.6-0.3,1.6,0.3,2.8l3.5,7.2l5.6-0.3C-98.9,267.8-99.6,267.5-99.9,267.3z"/>
		<path class="st0" d="M-79.2,271l-0.1-0.1c-0.1-0.5-0.3-0.9-0.5-1.2l-0.7-1.7h-4.4l0,0h-13.5h-0.1l-5.6,0.3H-115v-6.2
			c0-2.5-1.7-3.2-2.7-3.2c-1.3,0-2.5,1-3,1.6l-17.5,18c-0.2,0.2-1.3,1.2-1.4,2.8c0,0.7,0.2,1.7,1.1,2.7c1.8,1.8,18.3,17.8,18.3,17.8
			c0.4,0.4,1.6,1.4,2.9,1.4c0.3,0,2.9-0.1,2.9-3.6v-5.5h26.9c0.3,0,1-0.1,1.7-0.5c0.5-0.4,1.4-1.2,1.4-2.8c0.1-0.7,1.3-4.5,2.2-7.6
			c1.8-5.6,2.6-8.5,2.9-10.1l0,0v-0.3c0.1-0.4,0.1-0.7,0.1-1c0-0.3-0.1-0.5-0.1-0.7L-79.2,271L-79.2,271z"/>
	</g>
	<g>
		<path class="st1" d="M-151.6,215.4c-0.2,0.2-1.4,1.5-1.3,3.2c0.1,0.8,0.5,1.9,1.7,2.7l12,8.5c0.8,0.6,1.7,1.1,2.8,1.1
			c0.7,0,2-0.2,2.8-1.7l4.4-6.4l-12-20.8L-151.6,215.4z M-132,219.5l-4.7,6.9l-11.8-8.4l9.5-12.1l6.9,12
			C-131.9,218.2-131.9,219.1-132,219.5z"/>
		<path class="st0" d="M-92.5,216.3c-0.9-1.2-2.5-1.4-4.4-0.4l-4.8,2.7l-13.3-23.2c-0.4-0.7-1.3-1.6-2.7-1.6c-0.6,0-1.2,0.2-1.7,0.5
			c-0.7,0.3-4.5,1.1-7.6,1.8c-7.7,1.7-10.4,2.3-11.4,2.9c-1,0.6-1.5,1.3-1.8,1.9l-0.9,1.2l12,20.8l0.1-0.1l5.3,9.2l-5.3,3.1
			c-1.8,1-1.9,2.3-1.8,3c0.3,1.9,2.3,2.6,3.2,2.8l24.4,6.3c0.2,0.1,0.7,0.2,1.4,0.2c1.7,0,3.1-1.1,3.5-2.8
			c0.6-2.4,6.3-24.7,6.3-24.7C-91.9,219.2-91.6,217.5-92.5,216.3z"/>
	</g>
</g>
</svg>
