<?xml version="1.0" encoding="utf-8"?>
<!-- Generator: Adobe Illustrator 19.0.1, SVG Export Plug-In . SVG Version: 6.00 Build 0)  -->
<svg version="1.1" id="Layer_1" xmlns="http://www.w3.org/2000/svg" xmlns:xlink="http://www.w3.org/1999/xlink" x="0px" y="0px"
	 viewBox="-39.1 102.5 284 296.5" style="enable-background:new -39.1 102.5 284 296.5;" xml:space="preserve">
<style type="text/css">
	.st0{opacity:8.000000e-002;fill:url(#SVGID_1_);enable-background:new    ;}
	.st1{clip-path:url(#SVGID_3_);}
	.st2{fill:#FFFFFF;}
	.st3{fill:#D94C5A;}
	.st4{fill:#034C75;}
	.st5{opacity:0.1;enable-background:new    ;}
</style>
<g>
	<g>
		
			<linearGradient id="SVGID_1_" gradientUnits="userSpaceOnUse" x1="32.6109" y1="316.6219" x2="177.6091" y2="171.6237" gradientTransform="matrix(-1 0 0 -1 206.1167 503)">
			<stop  offset="0" style="stop-color:#000000"/>
			<stop  offset="1" style="stop-color:#000000;stop-opacity:0"/>
		</linearGradient>
		<path class="st0" d="M85.4,399c15.2-15.1,34.3-34.3,34.4-34.4c0.1-0.1,0.3-0.3,0.4-0.4c0.1-0.1,0.3-0.3,0.4-0.4
			c0.1-0.1,0.3-0.3,0.4-0.4c0.1-0.1,0.3-0.3,0.4-0.4c0.1-0.1,0.3-0.3,0.4-0.4c0.1-0.1,0.3-0.3,0.4-0.4c0.1-0.1,0.3-0.3,0.4-0.4
			c0.1-0.1,0.3-0.3,0.4-0.4c0.1-0.1,0.3-0.3,0.4-0.4c0.1-0.1,0.3-0.3,0.4-0.4c0.1-0.1,0.3-0.3,0.4-0.4c0.1-0.1,0.3-0.3,0.4-0.4
			c0.1-0.1,0.3-0.3,0.4-0.4c0.1-0.1,0.3-0.3,0.4-0.4c0.1-0.1,0.3-0.3,0.4-0.4c0.1-0.1,0.3-0.3,0.4-0.4c0.1-0.1,0.3-0.3,0.4-0.4
			c0.1-0.1,0.3-0.3,0.4-0.4c0.1-0.1,0.3-0.3,0.4-0.4c0.1-0.1,0.3-0.3,0.4-0.4c0.1-0.1,0.3-0.3,0.4-0.4c0.1-0.1,0.3-0.3,0.4-0.4
			c0.1-0.1,0.3-0.3,0.4-0.4c0.1-0.1,0.3-0.3,0.4-0.4c0.1-0.1,0.3-0.3,0.4-0.4c0.1-0.1,0.3-0.3,0.4-0.4c0.1-0.1,0.3-0.3,0.4-0.4
			c0.1-0.1,0.3-0.3,0.4-0.4c0.1-0.1,0.3-0.3,0.4-0.4c0.1-0.1,0.3-0.3,0.4-0.4c0.1-0.1,0.3-0.3,0.4-0.4c0.1-0.1,0.3-0.3,0.4-0.4
			c0.1-0.1,0.3-0.3,0.4-0.4c0.1-0.1,0.3-0.3,0.4-0.4c0.1-0.1,0.3-0.3,0.4-0.4c0.1-0.1,0.3-0.3,0.4-0.4c0.1-0.1,0.3-0.3,0.4-0.4
			c0.1-0.1,0.3-0.3,0.4-0.4c0.1-0.1,0.3-0.3,0.4-0.4c0.1-0.1,0.3-0.3,0.4-0.4c0.1-0.1,0.3-0.3,0.4-0.4c0.1-0.1,0.3-0.3,0.4-0.4
			c0.1-0.1,0.3-0.3,0.4-0.4c0.1-0.1,0.3-0.3,0.4-0.4c0.1-0.1,0.3-0.3,0.4-0.4c0.1-0.1,0.3-0.3,0.4-0.4c0.1-0.1,0.3-0.3,0.4-0.4
			c0.1-0.1,0.3-0.3,0.4-0.4c0.1-0.1,0.3-0.3,0.4-0.4c0.1-0.1,0.3-0.3,0.4-0.4c0.1-0.1,0.3-0.3,0.4-0.4c0.1-0.1,0.3-0.3,0.4-0.4
			c0.1-0.1,0.3-0.3,0.4-0.4c0.1-0.1,0.3-0.3,0.4-0.4c0.1-0.1,0.3-0.3,0.4-0.4c0.1-0.1,0.3-0.3,0.4-0.4c0.1-0.1,0.3-0.3,0.4-0.4
			c0.1-0.1,0.3-0.3,0.4-0.4c0.1-0.1,0.3-0.3,0.4-0.4c0.1-0.1,0.3-0.3,0.4-0.4c0.1-0.1,0.3-0.3,0.4-0.4c0.1-0.1,0.3-0.3,0.4-0.4
			c0.1-0.1,0.3-0.3,0.4-0.4c0.1-0.1,0.3-0.3,0.4-0.4c0.1-0.1,0.3-0.3,0.4-0.4c0.1-0.1,0.3-0.3,0.4-0.4c0.1-0.1,0.3-0.3,0.4-0.4
			c0.1-0.1,0.3-0.3,0.4-0.4c0.1-0.1,0.3-0.3,0.4-0.4c0.1-0.1,0.3-0.3,0.4-0.4c0.1-0.1,0.3-0.3,0.4-0.4c0.1-0.1,0.3-0.3,0.4-0.4
			c0.1-0.1,0.3-0.3,0.4-0.4c0.1-0.1,0.3-0.3,0.4-0.4c0.1-0.1,0.3-0.3,0.4-0.4c0.1-0.1,0.3-0.3,0.4-0.4c0.1-0.1,0.3-0.3,0.4-0.4
			c0.1-0.1,0.3-0.3,0.4-0.4c0.1-0.1,0.3-0.3,0.4-0.4c0.1-0.1,0.3-0.3,0.4-0.4c0.1-0.1,0.3-0.3,0.4-0.4c0.1-0.1,0.3-0.3,0.4-0.4
			c0.1-0.1,0.3-0.3,0.4-0.4c0.1-0.1,0.3-0.3,0.4-0.4c0.1-0.1,0.3-0.3,0.4-0.4c0.1-0.1,0.3-0.3,0.4-0.4c0.1-0.1,0.3-0.3,0.4-0.4
			c0.1-0.1,0.3-0.3,0.4-0.4c0.1-0.1,0.3-0.3,0.4-0.4c0.1-0.1,0.3-0.3,0.4-0.4c0.1-0.1,0.3-0.3,0.4-0.4c0.1-0.1,0.3-0.3,0.4-0.4
			c0.1-0.1,0.3-0.3,0.4-0.4c0.1-0.1,0.3-0.3,0.4-0.4c0.1-0.1,0.3-0.3,0.4-0.4c0.1-0.1,0.3-0.3,0.4-0.4c0.1-0.1,0.3-0.3,0.4-0.4
			c0.1-0.1,0.3-0.3,0.4-0.4c0.1-0.1,0.3-0.3,0.4-0.4c0.1-0.1,0.3-0.3,0.4-0.4c0.1-0.1,0.3-0.3,0.4-0.4c0.1-0.1,0.3-0.3,0.4-0.4
			c0.1-0.1,0.3-0.3,0.4-0.4c0.1-0.1,0.3-0.3,0.4-0.4c0.1-0.1,0.3-0.3,0.4-0.4c0.1-0.1,0.3-0.3,0.4-0.4c0.1-0.1,0.3-0.3,0.4-0.4
			c0.1-0.1,0.3-0.3,0.4-0.4c0.1-0.1,0.3-0.3,0.4-0.4c0.1-0.1,0.3-0.3,0.4-0.4c0.1-0.1,0.3-0.3,0.4-0.4c0.1-0.1,0.3-0.3,0.4-0.4
			c0.1-0.1,0.3-0.3,0.4-0.4c0.1-0.1,0.3-0.3,0.4-0.4c0.1-0.1,0.3-0.3,0.4-0.4c0.1-0.1,0.3-0.3,0.4-0.4c0.1-0.1,0.3-0.3,0.4-0.4
			c0.1-0.1,0.3-0.3,0.4-0.4c0.1-0.1,0.3-0.3,0.4-0.4c0.1-0.1,0.3-0.3,0.4-0.4c0.1-0.1,0.3-0.3,0.4-0.4c0.1-0.1,0.3-0.3,0.4-0.4
			c0.1-0.1,0.3-0.3,0.4-0.4c0.1-0.1,0.3-0.3,0.4-0.4c0.1-0.1,0.3-0.3,0.4-0.4c0.1-0.1,0.3-0.3,0.4-0.4c0.1-0.1,0.3-0.3,0.4-0.4
			c0.1-0.1,0.3-0.3,0.4-0.4c0.1-0.1,0.3-0.3,0.4-0.4c0.1-0.1,0.3-0.3,0.4-0.4c0.1-0.1,0.3-0.3,0.4-0.4c0.1-0.1,0.3-0.3,0.4-0.4
			c0.1-0.1,0.3-0.3,0.4-0.4c0.1-0.1,0.3-0.3,0.4-0.4c0.1-0.1,0.3-0.3,0.4-0.4c0.1-0.1,0.3-0.3,0.4-0.4c0.1-0.1,0.3-0.3,0.4-0.4
			c0.1-0.1,0.3-0.3,0.4-0.4c0.1-0.1,0.3-0.3,0.4-0.4c0.1-0.1,0.3-0.3,0.4-0.4c0.1-0.1,0.3-0.3,0.4-0.4c0.1-0.1,0.3-0.3,0.4-0.4
			c0.1-0.1,0.3-0.3,0.4-0.4c0.1-0.1,0.3-0.3,0.4-0.4c0.1-0.1,0.3-0.3,0.4-0.4c0.1-0.1,0.3-0.3,0.4-0.4c0.1-0.1,0.3-0.3,0.4-0.4
			c0.1-0.1,0.3-0.3,0.4-0.4c0.1-0.1,0.3-0.3,0.4-0.4c0.1-0.1,0.3-0.3,0.4-0.4c0.1-0.1,0.3-0.3,0.4-0.4c0.1-0.1,0.3-0.3,0.4-0.4
			c0.1-0.1,0.3-0.3,0.4-0.4c0.1-0.1,0.3-0.3,0.4-0.4c0.1-0.1,0.3-0.3,0.4-0.4c0.1-0.1,0.3-0.3,0.4-0.4c0.1-0.1,0.3-0.3,0.4-0.4
			c0.1-0.1,0.3-0.3,0.4-0.4c0.1-0.1,0.3-0.3,0.4-0.4c0.1-0.1,0.3-0.3,0.4-0.4c0.1-0.1,0.3-0.3,0.4-0.4c0.1-0.1,0.3-0.3,0.4-0.4
			c0.1-0.1,0.3-0.3,0.4-0.4c0.1-0.1,0.3-0.3,0.4-0.4c0.1-0.1,0.3-0.3,0.4-0.4c0.1-0.1,0.3-0.3,0.4-0.4c0.1-0.1,0.3-0.3,0.4-0.4
			c0.1-0.1,0.3-0.3,0.4-0.4c0.1-0.1,0.3-0.3,0.4-0.4c0.1-0.1,0.3-0.3,0.4-0.4c0.1-0.1,0.3-0.3,0.4-0.4c0.1-0.1,0.3-0.3,0.4-0.4
			c0.1-0.1,0.3-0.3,0.4-0.4c0.1-0.1,0.3-0.3,0.4-0.4c0.1-0.1,0.3-0.3,0.4-0.4c0.1-0.1,0.3-0.3,0.4-0.4c0.1-0.1,0.3-0.3,0.4-0.4
			c0.1-0.1,0.3-0.3,0.4-0.4c0.1-0.1,0.3-0.3,0.4-0.4c0.1-0.1,0.3-0.3,0.4-0.4c0.1-0.1,0.3-0.3,0.4-0.4c0.1-0.1,0.3-0.3,0.4-0.4
			c0.1-0.1,0.3-0.3,0.4-0.4c0.1-0.1,0.3-0.3,0.4-0.4c0.1-0.1,0.3-0.3,0.4-0.4c0.1-0.1,0.3-0.3,0.4-0.4c0.1-0.1,0.3-0.3,0.4-0.4
			c0.1-0.1,0.3-0.3,0.4-0.4c0.1-0.1,0.3-0.3,0.4-0.4c0.1-0.1,0.3-0.3,0.4-0.4c0.1-0.1,0.3-0.3,0.4-0.4c0.1-0.1,0.3-0.3,0.4-0.4
			c0.1-0.1,0.3-0.3,0.4-0.4c0.1-0.1,0.3-0.3,0.4-0.4c0.1-0.1,0.3-0.3,0.4-0.4c0.1-0.1,0.3-0.3,0.4-0.4c0.1-0.1,0.3-0.3,0.4-0.4
			c0.1-0.1,0.3-0.3,0.4-0.4c0.1-0.1,0.3-0.3,0.4-0.4c0.1-0.1,0.3-0.3,0.4-0.4c0.1-0.1,0.3-0.3,0.4-0.4c0.1-0.1,0.3-0.3,0.4-0.4
			c0.1-0.1,0.3-0.3,0.4-0.4c0.1-0.1,0.3-0.3,0.4-0.4c0.1-0.1,0.3-0.3,0.4-0.4c0.1-0.1,0.3-0.3,0.4-0.4c0.1-0.1,0.3-0.3,0.4-0.4
			c0.1-0.1,0.3-0.3,0.4-0.4c0.1-0.1,0.3-0.3,0.4-0.4c0.1-0.1,0.3-0.3,0.4-0.4c0.1-0.1,0.3-0.3,0.4-0.4c0.1-0.1,0.3-0.3,0.4-0.4
			c0.1-0.1,0.3-0.3,0.4-0.4c0.1-0.1,0.3-0.3,0.4-0.4c0.1-0.1,0.3-0.3,0.4-0.4c0.1-0.1,0.3-0.3,0.4-0.4c0.1-0.1,0.3-0.3,0.4-0.4
			c0.1-0.1,0.3-0.3,0.4-0.4c0.1-0.1,0.3-0.3,0.4-0.4c0.1-0.1,0.3-0.3,0.4-0.4c0.1-0.1,0.3-0.3,0.4-0.4c0.1-0.1,0.3-0.3,0.4-0.4
			c0.1-0.1,0.3-0.3,0.4-0.4c0.1-0.1,0.3-0.3,0.4-0.4c0.1-0.1,0.3-0.3,0.4-0.4c0.1-0.1,0.3-0.3,0.4-0.4c0.1-0.1,0.3-0.3,0.4-0.4
			c0.1-0.1,0.3-0.3,0.4-0.4c0.1-0.1,0.3-0.3,0.4-0.4c1.1-1,1.6-2.9,1.2-5.5l-7.7-44.8c-0.7-4,0.5-9.4,2.8-13.4l0,0l0.1-0.1l0.3-0.3
			l0.1-0.1l0.3-0.3l0.1-0.1l0.3-0.3l0.1-0.1l0.3-0.3l0.1-0.1l0.3-0.3l0.1-0.1l0.3-0.3l0.1-0.1l0.3-0.3l0.1-0.1l0.3-0.3l0.1-0.1
			l0.3-0.3l0.1-0.1l0.3-0.3l0.1-0.1l0.3-0.3l0.1-0.1l0.3-0.3l0.1-0.1l0.3-0.3l0.1-0.1l0.3-0.3l0.1-0.1l0.3-0.3l0.1-0.1l0.3-0.3
			l0.1-0.1l0.3-0.3l0.1-0.1l0.3-0.3l0.1-0.1l0.3-0.3l0.1-0.1l0.3-0.3l0.1-0.1l0.3-0.3l0.1-0.1l0.3-0.3l0.1-0.1l0.3-0.3l0.1-0.1
			l0.3-0.3l0.1-0.1l0.3-0.3l0.1-0.1l0.3-0.3l0.1-0.1l0.3-0.3l0.1-0.1l0.3-0.3l0.1-0.1l0.3-0.3l0.1-0.1l0.3-0.3l0.1-0.1l0.3-0.3
			l0.1-0.1l0.3-0.3l0.1-0.1l0.3-0.3l0.1-0.1l0.3-0.3l0.1-0.1l0.3-0.3l0.1-0.1l0.3-0.3l0.1-0.1l0.3-0.3l0.1-0.1l0.3-0.3l0.1-0.1
			l0.3-0.3l0.1-0.1l0.3-0.3l0.1-0.1l0.3-0.3l0.1-0.1l0.3-0.3l0.1-0.1l0.3-0.3l0.1-0.1l0.3-0.3l0.1-0.1l0.3-0.3l0.1-0.1l0.3-0.3
			l0.1-0.1l0.3-0.3l0.1-0.1l0.3-0.3l0.1-0.1l0.3-0.3l0.1-0.1l0.3-0.3l0.1-0.1l0.3-0.3l0.1-0.1l0.3-0.3l0.1-0.1l0.3-0.3l0.1-0.1
			l0.3-0.3l0.1-0.1l0.3-0.3l0.1-0.1l0.3-0.3l0.1-0.1l0.3-0.3l0.1-0.1l0.3-0.3l0.1-0.1l0.3-0.3l0.1-0.1l0.3-0.3l0.1-0.1l0.3-0.3
			l0.1-0.1l0.3-0.3l0.1-0.1l0.3-0.3l0.1-0.1l0.3-0.3l0.1-0.1l0.3-0.3l0.1-0.1l0.3-0.3l0.1-0.1l0.3-0.3l0.1-0.1l0.3-0.3l0.1-0.1
			l0.3-0.3l0.1-0.1l0.3-0.3l0.1-0.1l0.3-0.3l0.1-0.1l0.3-0.3l0.1-0.1l0.3-0.3l0.1-0.1l0.3-0.3l0.1-0.1l0.3-0.3l0.1-0.1l0.3-0.3
			l0.1-0.1l0.3-0.3l0.1-0.1l0.3-0.3l0.1-0.1l0.3-0.3l0.1-0.1l0.3-0.3l0.1-0.1l0.3-0.3l0.1-0.1l0.3-0.3l0.1-0.1l0.3-0.3l0.1-0.1
			l0.3-0.3l0.1-0.1l0.3-0.3l0.1-0.1l0.3-0.3l0.1-0.1l0.3-0.3l0.1-0.1l0.3-0.3c3.9-3.9,2.7-7.7-2.8-8.5l-45-6.5
			c-5.5-0.8-12-5.5-14.5-10.5l-20.1-40.8c-1.4-3-3.5-4.2-5.4-3.6l0,0l0,0c-0.2,0.1-0.3,0.1-0.5,0.2l0,0c-0.4,0.2-0.8,0.5-1.2,0.9
			l-0.1,0.1c-0.1,0.1-0.1,0.1-0.2,0.2s-0.1,0.1-0.1,0.1l-0.1,0.1c-0.1,0.1-0.1,0.1-0.2,0.2s-0.1,0.1-0.1,0.1l-0.1,0.1
			c-0.1,0.1-0.1,0.1-0.2,0.2s-0.1,0.1-0.1,0.1l-0.1,0.1c-0.1,0.1-0.1,0.1-0.2,0.2c-0.1,0.1-0.1,0.1-0.1,0.1l-0.1,0.1
			c-0.1,0.1-0.1,0.1-0.2,0.2c-0.1,0.1-0.1,0.1-0.1,0.1l-0.1,0.1c-0.1,0.1-0.1,0.1-0.2,0.2s-0.1,0.1-0.1,0.1l-0.1,0.1
			c-0.1,0.1-0.1,0.1-0.2,0.2s-0.1,0.1-0.1,0.1l-0.1,0.1c-0.1,0.1-0.1,0.1-0.2,0.2c-0.1,0.1-0.1,0.1-0.1,0.1l-0.1,0.1
			c-0.1,0.1-0.1,0.1-0.2,0.2c-0.1,0.1-0.1,0.1-0.1,0.1l-0.1,0.1c-0.1,0.1-0.1,0.1-0.2,0.2s-0.1,0.1-0.1,0.1l-0.1,0.1
			c-0.1,0.1-0.1,0.1-0.2,0.2s-0.1,0.1-0.1,0.1l-0.1,0.1c-0.1,0.1-0.1,0.1-0.2,0.2c-0.1,0.1-0.1,0.1-0.1,0.1l-0.1,0.1
			c-0.1,0.1-0.1,0.1-0.2,0.2c-0.1,0.1-0.1,0.1-0.1,0.1l-0.1,0.1c-0.1,0.1-0.1,0.1-0.2,0.2s-0.1,0.1-0.1,0.1l-0.1,0.1
			c-0.1,0.1-0.1,0.1-0.2,0.2s-0.1,0.1-0.1,0.1l-0.1,0.1c-0.1,0.1-0.1,0.1-0.2,0.2s-0.1,0.1-0.1,0.1l-0.1,0.1
			c-0.1,0.1-0.1,0.1-0.2,0.2s-0.1,0.1-0.1,0.1l-0.1,0.1c-0.1,0.1-0.1,0.1-0.2,0.2c-0.1,0.1-0.1,0.1-0.1,0.1l-0.1,0.1
			c-0.1,0.1-0.1,0.1-0.2,0.2c-0.1,0.1-0.1,0.1-0.1,0.1l-0.1,0.1c-0.1,0.1-0.1,0.1-0.2,0.2c-0.1,0.1-0.1,0.1-0.1,0.1l-0.1,0.1
			c-0.1,0.1-0.1,0.1-0.2,0.2c-0.1,0.1-0.1,0.1-0.1,0.1l-0.1,0.1c-0.1,0.1-0.1,0.1-0.2,0.2s-0.1,0.1-0.1,0.1l-0.1,0.1
			c-0.1,0.1-0.1,0.1-0.2,0.2s-0.1,0.1-0.1,0.1l-0.1,0.1c-0.1,0.1-0.1,0.1-0.2,0.2s-0.1,0.1-0.1,0.1l-0.1,0.1
			c-0.1,0.1-0.1,0.1-0.2,0.2s-0.1,0.1-0.1,0.1l-0.1,0.1c-0.1,0.1-0.1,0.1-0.2,0.2c-0.1,0.1-0.1,0.1-0.1,0.1l-0.1,0.1
			c-0.1,0.1-0.1,0.1-0.2,0.2c-0.1,0.1-0.1,0.1-0.1,0.1l-0.1,0.1c-0.1,0.1-0.1,0.1-0.2,0.2c-0.1,0.1-0.1,0.1-0.1,0.1l-0.1,0.1
			c-0.1,0.1-0.1,0.1-0.2,0.2c-0.1,0.1-0.1,0.1-0.1,0.1l-0.1,0.1c-0.1,0.1-0.1,0.1-0.2,0.2s-0.1,0.1-0.1,0.1l-0.1,0.1
			c-0.1,0.1-0.1,0.1-0.2,0.2s-0.1,0.1-0.1,0.1l-0.1,0.1c-0.1,0.1-0.1,0.1-0.2,0.2s-0.1,0.1-0.1,0.1l-0.1,0.1
			c-0.1,0.1-0.1,0.1-0.2,0.2s-0.1,0.1-0.1,0.1l-0.1,0.1c-0.1,0.1-0.1,0.1-0.2,0.2s-0.1,0.1-0.1,0.1l-0.1,0.1
			c-0.1,0.1-0.1,0.1-0.2,0.2s-0.1,0.1-0.1,0.1l-0.1,0.1c-0.1,0.1-0.1,0.1-0.2,0.2s-0.1,0.1-0.1,0.1l-0.1,0.1
			c-0.1,0.1-0.1,0.1-0.2,0.2s-0.1,0.1-0.1,0.1l-0.1,0.1c-0.1,0.1-0.1,0.1-0.2,0.2s-0.1,0.1-0.1,0.1l-0.1,0.1
			c-0.1,0.1-0.1,0.1-0.2,0.2s-0.1,0.1-0.1,0.1l-0.1,0.1c-0.1,0.1-0.1,0.1-0.2,0.2s-0.1,0.1-0.1,0.1l-0.1,0.1
			c-0.1,0.1-0.1,0.1-0.2,0.2s-0.1,0.1-0.1,0.1l-0.1,0.1c-0.1,0.1-0.1,0.1-0.2,0.2s-0.1,0.1-0.1,0.1l-0.1,0.1
			c-0.1,0.1-0.1,0.1-0.2,0.2s-0.1,0.1-0.1,0.1l-0.1,0.1c-0.1,0.1-0.1,0.1-0.2,0.2s-0.1,0.1-0.1,0.1l-0.1,0.1
			c-0.1,0.1-0.1,0.1-0.2,0.2s-0.1,0.1-0.1,0.1l-0.1,0.1c-0.1,0.1-0.1,0.1-0.2,0.2s-0.1,0.1-0.1,0.1l-0.1,0.1
			c-0.1,0.1-0.1,0.1-0.2,0.2s-0.1,0.1-0.1,0.1l-0.1,0.1c-0.1,0.1-0.1,0.1-0.2,0.2s-0.1,0.1-0.1,0.1l-0.1,0.1
			c-0.1,0.1-0.1,0.1-0.2,0.2s-0.1,0.1-0.1,0.1l-0.1,0.1c-0.1,0.1-0.1,0.1-0.2,0.2s-0.1,0.1-0.1,0.1l-0.1,0.1
			c-0.1,0.1-0.1,0.1-0.2,0.2s-0.1,0.1-0.1,0.1l-0.1,0.1c-0.1,0.1-0.1,0.1-0.2,0.2s-0.1,0.1-0.1,0.1l-0.1,0.1
			c-0.1,0.1-0.1,0.1-0.2,0.2s-0.1,0.1-0.1,0.1l-0.1,0.1c-0.1,0.1-0.1,0.1-0.2,0.2s-0.1,0.1-0.1,0.1l-0.1,0.1
			c-0.1,0.1-0.1,0.1-0.2,0.2s-0.1,0.1-0.1,0.1l-0.1,0.1c-0.1,0.1-0.1,0.1-0.2,0.2s-0.1,0.1-0.1,0.1l-0.1,0.1
			c-0.1,0.1-0.1,0.1-0.2,0.2c-0.1,0.1-0.1,0.1-0.1,0.1l-0.1,0.1c-0.1,0.1-0.1,0.1-0.2,0.2s-0.1,0.1-0.1,0.1l-0.1,0.1
			c-0.1,0.1-0.1,0.1-0.2,0.2c-0.1,0.1-0.1,0.1-0.1,0.1l-0.1,0.1c-0.1,0.1-0.1,0.1-0.2,0.2s-0.1,0.1-0.1,0.1l-0.1,0.1
			c-0.1,0.1-0.1,0.1-0.2,0.2c-0.1,0.1-0.1,0.1-0.1,0.1l-0.1,0.1c-0.1,0.1-0.1,0.1-0.2,0.2s-0.1,0.1-0.1,0.1l-0.1,0.1
			c-0.1,0.1-0.1,0.1-0.2,0.2c-0.1,0.1-0.1,0.1-0.1,0.1l-0.1,0.1c-0.1,0.1-0.1,0.1-0.2,0.2s-0.1,0.1-0.1,0.1l-0.1,0.1
			c-0.1,0.1-0.1,0.1-0.2,0.2c-0.1,0.1-0.1,0.1-0.1,0.1l-0.1,0.1c-0.1,0.1-0.1,0.1-0.2,0.2s-0.1,0.1-0.1,0.1l-0.1,0.1
			c-0.1,0.1-0.1,0.1-0.2,0.2c-0.1,0.1-0.1,0.1-0.1,0.1l-0.1,0.1c-0.1,0.1-0.1,0.1-0.2,0.2s-0.1,0.1-0.1,0.1l-0.1,0.1
			c-0.1,0.1-0.1,0.1-0.2,0.2c-0.1,0.1-0.1,0.1-0.1,0.1l-0.1,0.1c-0.1,0.1-0.1,0.1-0.2,0.2s-0.1,0.1-0.1,0.1l-0.1,0.1
			c-0.1,0.1-0.1,0.1-0.2,0.2c-0.1,0.1-0.1,0.1-0.1,0.1l-0.1,0.1c-0.1,0.1-0.1,0.1-0.2,0.2s-0.1,0.1-0.1,0.1l-0.1,0.1
			c-0.1,0.1-0.1,0.1-0.2,0.2c-0.1,0.1-0.1,0.1-0.1,0.1l-0.1,0.1c-0.1,0.1-0.1,0.1-0.2,0.2c-0.1,0.1-0.1,0.1-0.1,0.1l-0.1,0.1
			c-0.1,0.1-0.1,0.1-0.2,0.2c-0.1,0.1-0.1,0.1-0.1,0.1l-0.1,0.1c-0.1,0.1-0.1,0.1-0.2,0.2c-0.1,0.1-0.1,0.1-0.1,0.1l-0.1,0.1
			c-0.1,0.1-0.1,0.1-0.2,0.2c-0.1,0.1-0.1,0.1-0.1,0.1l-0.1,0.1c-0.1,0.1-0.1,0.1-0.2,0.2c-0.1,0.1-0.1,0.1-0.1,0.1l-0.1,0.1
			c-0.1,0.1-0.1,0.1-0.2,0.2c-0.1,0.1-0.1,0.1-0.1,0.1l-0.1,0.1c-0.1,0.1-0.1,0.1-0.2,0.2c-0.1,0.1-0.1,0.1-0.1,0.1l-0.1,0.1
			c-0.1,0.1-0.1,0.1-0.2,0.2c-0.1,0.1-0.1,0.1-0.1,0.1l-0.1,0.1c-0.1,0.1-0.1,0.1-0.2,0.2c-0.1,0.1-0.1,0.1-0.1,0.1l-0.1,0.1
			c-0.1,0.1-0.1,0.1-0.2,0.2c-0.1,0.1-0.1,0.1-0.1,0.1l-0.1,0.1c-0.1,0.1-0.1,0.1-0.2,0.2c-0.1,0.1-0.1,0.1-0.1,0.1l-0.1,0.1
			c-0.1,0.1-0.1,0.1-0.2,0.2c-0.1,0.1-0.1,0.1-0.1,0.1l-0.1,0.1c-0.1,0.1-0.1,0.1-0.2,0.2c-0.1,0.1-0.1,0.1-0.1,0.1l-0.1,0.1
			c-0.1,0.1-0.1,0.1-0.2,0.2c-0.1,0.1-0.1,0.1-0.1,0.1l-0.1,0.1c-0.1,0.1-0.1,0.1-0.2,0.2c-0.1,0.1-0.1,0.1-0.1,0.1l-0.1,0.1
			c-0.1,0.1-0.1,0.1-0.2,0.2c-0.1,0.1-0.1,0.1-0.1,0.1l-0.1,0.1c-0.1,0.1-0.1,0.1-0.2,0.2c-0.1,0.1-0.1,0.1-0.1,0.1l-0.1,0.1
			c-0.1,0.1-0.1,0.1-0.2,0.2c-0.1,0.1-0.1,0.1-0.1,0.1l-0.1,0.1c-0.1,0.1-0.1,0.1-0.2,0.2c-0.1,0.1-0.1,0.1-0.1,0.1l-0.1,0.1
			c-0.1,0.1-0.1,0.1-0.2,0.2c-0.1,0.1-0.1,0.1-0.1,0.1l-0.1,0.1c-0.1,0.1-0.1,0.1-0.2,0.2c-0.1,0.1-0.1,0.1-0.1,0.1l-0.1,0.1
			c-0.1,0.1-0.1,0.1-0.2,0.2c-0.1,0.1-0.1,0.1-0.1,0.1l-0.1,0.1c-0.1,0.1-0.1,0.1-0.2,0.2c-0.1,0.1-0.1,0.1-0.1,0.1l-0.1,0.1
			c-0.1,0.1-0.1,0.1-0.2,0.2c-0.1,0.1-0.1,0.1-0.1,0.1l-0.1,0.1c-0.1,0.1-0.1,0.1-0.2,0.2c-0.1,0.1-0.1,0.1-0.1,0.1l-0.1,0.1
			c-0.1,0.1-0.1,0.1-0.2,0.2c-0.1,0.1-0.1,0.1-0.1,0.1l-0.1,0.1c-0.1,0.1-0.1,0.1-0.2,0.2c-0.1,0.1-0.1,0.1-0.1,0.1l-0.1,0.1
			c-0.1,0.1-0.1,0.1-0.2,0.2c-0.1,0.1-0.1,0.1-0.1,0.1l-0.1,0.1c-0.1,0.1-0.1,0.1-0.2,0.2c-0.1,0.1-0.1,0.1-0.1,0.1l-0.1,0.1
			c-0.1,0.1-0.1,0.1-0.2,0.2c-0.1,0.1-0.1,0.1-0.1,0.1l-0.1,0.1c-0.1,0.1-0.1,0.1-0.2,0.2c-0.1,0.1-0.1,0.1-0.1,0.1l-0.1,0.1
			c-0.1,0.1-0.1,0.1-0.2,0.2c-0.1,0.1-0.1,0.1-0.1,0.1l-0.1,0.1c-0.1,0.1-0.1,0.1-0.2,0.2c-0.1,0.1-0.1,0.1-0.1,0.1l-0.1,0.1
			c-0.1,0.1-0.1,0.1-0.2,0.2c-0.1,0.1-0.1,0.1-0.1,0.1l-0.1,0.1c-0.1,0.1-0.1,0.1-0.2,0.2c-0.1,0.1-0.1,0.1-0.1,0.1l-0.1,0.1
			c-0.1,0.1-0.1,0.1-0.2,0.2c-0.1,0.1-0.1,0.1-0.1,0.1l-0.1,0.1c-0.1,0.1-0.1,0.1-0.2,0.2c-0.1,0.1-0.1,0.1-0.1,0.1l-0.1,0.1
			c-0.1,0.1-0.1,0.1-0.2,0.2c-0.1,0.1-0.1,0.1-0.1,0.1l-0.1,0.1c-0.1,0.1-0.1,0.1-0.2,0.2c-0.1,0.1-0.1,0.1-0.1,0.1l-0.1,0.1
			c-0.1,0.1-0.1,0.1-0.2,0.2c-0.1,0.1-0.1,0.1-0.1,0.1l-0.1,0.1c-0.1,0.1-0.1,0.1-0.2,0.2c-0.1,0.1-0.1,0.1-0.1,0.1l-0.1,0.1
			c-0.1,0.1-0.1,0.1-0.2,0.2c-0.1,0.1-0.1,0.1-0.1,0.1l-0.1,0.1c-0.1,0.1-0.1,0.1-0.2,0.2c-0.1,0.1-0.1,0.1-0.1,0.1l-0.1,0.1
			c-0.1,0.1-0.1,0.1-0.2,0.2c-0.1,0.1-0.1,0.1-0.1,0.1l-0.1,0.1c-0.1,0.1-0.1,0.1-0.2,0.2c-0.1,0.1-0.1,0.1-0.1,0.1l-0.1,0.1
			c-0.1,0.1-0.1,0.1-0.2,0.2c-0.1,0.1-0.1,0.1-0.1,0.1l-0.1,0.1c-0.1,0.1-0.1,0.1-0.2,0.2c-0.1,0.1-0.1,0.1-0.1,0.1l-0.1,0.1
			c-0.1,0.1-0.1,0.1-0.2,0.2c-0.1,0.1-0.1,0.1-0.1,0.1l-0.1,0.1c-0.1,0.1-0.1,0.1-0.2,0.2c-0.1,0.1-0.1,0.1-0.1,0.1l-0.1,0.1
			c-0.1,0.1-0.1,0.1-0.2,0.2c-0.1,0.1-0.1,0.1-0.1,0.1l-0.1,0.1c-0.1,0.1-0.1,0.1-0.2,0.2c-0.1,0.1-0.1,0.1-0.1,0.1l-0.1,0.1
			c-0.1,0.1-0.1,0.1-0.2,0.2c-0.1,0.1-0.1,0.1-0.1,0.1l-0.1,0.1c-0.1,0.1-0.1,0.1-0.2,0.2c-0.1,0.1-0.1,0.1-0.1,0.1l-0.1,0.1
			c-0.1,0.1-0.1,0.1-0.2,0.2c-0.1,0.1-0.1,0.1-0.1,0.1l-0.1,0.1c-0.1,0.1-0.1,0.1-0.2,0.2c-0.1,0.1-0.1,0.1-0.1,0.1l-0.1,0.1
			c-0.1,0.1-0.1,0.1-0.2,0.2c-0.1,0.1-0.1,0.1-0.1,0.1l-0.1,0.1c-0.1,0.1-0.1,0.1-0.2,0.2c-0.1,0.1-0.1,0.1-0.1,0.1l-0.1,0.1
			c-0.1,0.1-0.1,0.1-0.2,0.2c-0.1,0.1-0.1,0.1-0.1,0.1l-0.1,0.1c-0.1,0.1-0.1,0.1-0.2,0.2c-0.1,0.1-0.1,0.1-0.1,0.1l-0.1,0.1
			c-0.1,0.1-0.1,0.1-0.2,0.2c-0.1,0.1-0.1,0.1-0.1,0.1l-0.1,0.1c-0.1,0.1-0.1,0.1-0.2,0.2c-0.1,0.1-0.1,0.1-0.1,0.1l-0.1,0.1
			c-0.1,0.1-0.1,0.1-0.2,0.2c-0.1,0.1-0.1,0.1-0.1,0.1l-0.1,0.1c-0.1,0.1-0.1,0.1-0.2,0.2c-0.1,0.1-0.1,0.1-0.1,0.1l-0.1,0.1
			c-0.1,0.1-0.1,0.1-0.2,0.2c-0.1,0.1-0.1,0.1-0.1,0.1l-0.1,0.1c-0.1,0.1-0.1,0.1-0.2,0.2c-0.1,0.1-0.1,0.1-0.1,0.1l-0.1,0.1
			c-0.1,0.1-0.1,0.1-0.2,0.2c-0.1,0.1-0.1,0.1-0.1,0.1l-0.1,0.1c-0.1,0.1-0.1,0.1-0.2,0.2c-0.1,0.1-0.1,0.1-0.1,0.1l-0.1,0.1
			c-0.1,0.1-0.1,0.1-0.2,0.2c-0.1,0.1-0.1,0.1-0.1,0.1l-0.1,0.1l-0.1,0.1l-24.7,3.6c-1.9,0.3-3.4,1-4.2,1.9
			c-0.1,0.1-0.3,0.3-0.4,0.4c-0.1,0.1-0.3,0.3-0.4,0.4c-0.1,0.1-0.3,0.3-0.4,0.4c-0.1,0.1-0.3,0.3-0.4,0.4c-0.1,0.1-0.3,0.3-0.4,0.4
			c-0.1,0.1-0.3,0.3-0.4,0.4c-0.1,0.1-0.3,0.3-0.4,0.4c-0.1,0.1-0.3,0.3-0.4,0.4c-0.1,0.1-0.3,0.3-0.4,0.4c-0.1,0.1-0.3,0.3-0.4,0.4
			c-0.1,0.1-0.3,0.3-0.4,0.4c-0.1,0.1-0.3,0.3-0.4,0.4c-0.1,0.1-0.3,0.3-0.4,0.4c-0.1,0.1-0.3,0.3-0.4,0.4c-0.1,0.1-0.3,0.3-0.4,0.4
			c-0.1,0.1-0.3,0.3-0.4,0.4c-0.1,0.1-0.3,0.3-0.4,0.4c-0.1,0.1-0.3,0.3-0.4,0.4c-0.1,0.1-0.3,0.3-0.4,0.4c-0.1,0.1-0.3,0.3-0.4,0.4
			c-0.1,0.1-0.3,0.3-0.4,0.4c-0.1,0.1-0.3,0.3-0.4,0.4c-0.1,0.1-0.3,0.3-0.4,0.4c-0.1,0.1-0.3,0.3-0.4,0.4c-0.1,0.1-0.3,0.3-0.4,0.4
			c-0.1,0.1-0.3,0.3-0.4,0.4c-0.1,0.1-0.3,0.3-0.4,0.4c-0.1,0.1-0.3,0.3-0.4,0.4c-0.1,0.1-0.3,0.3-0.4,0.4c-0.1,0.1-0.3,0.3-0.4,0.4
			c-0.1,0.1-0.3,0.3-0.4,0.4c-0.1,0.1-0.3,0.3-0.4,0.4c-0.1,0.1-0.3,0.3-0.4,0.4c-0.1,0.1-0.3,0.3-0.4,0.4c-0.1,0.1-0.3,0.3-0.4,0.4
			c-0.1,0.1-0.3,0.3-0.4,0.4c-0.1,0.1-0.3,0.3-0.4,0.4c-0.1,0.1-0.3,0.3-0.4,0.4c-0.1,0.1-0.3,0.3-0.4,0.4c-0.1,0.1-0.3,0.3-0.4,0.4
			c-0.1,0.1-0.3,0.3-0.4,0.4c-0.1,0.1-0.3,0.3-0.4,0.4c-0.1,0.1-0.3,0.3-0.4,0.4c-0.1,0.1-0.3,0.3-0.4,0.4c-0.1,0.1-0.3,0.3-0.4,0.4
			c-0.1,0.1-0.3,0.3-0.4,0.4c-0.1,0.1-0.3,0.3-0.4,0.4c-0.1,0.1-0.3,0.3-0.4,0.4c-0.1,0.1-0.3,0.3-0.4,0.4c-0.1,0.1-0.3,0.3-0.4,0.4
			c-0.1,0.1-0.3,0.3-0.4,0.4c-0.1,0.1-0.3,0.3-0.4,0.4c-0.1,0.1-0.3,0.3-0.4,0.4c-0.1,0.1-0.3,0.3-0.4,0.4c-0.1,0.1-0.3,0.3-0.4,0.4
			c-0.1,0.1-0.3,0.3-0.4,0.4c-0.1,0.1-0.3,0.3-0.4,0.4c-0.1,0.1-0.3,0.3-0.4,0.4c-0.1,0.1-0.3,0.3-0.4,0.4c-0.1,0.1-0.3,0.3-0.4,0.4
			c-0.1,0.1-0.3,0.3-0.4,0.4c-0.1,0.1-0.3,0.3-0.4,0.4c-0.1,0.1-0.3,0.3-0.4,0.4c-0.1,0.1-0.3,0.3-0.4,0.4c-0.1,0.1-0.3,0.3-0.4,0.4
			c-0.1,0.1-0.3,0.3-0.4,0.4c-0.1,0.1-0.3,0.3-0.4,0.4c-0.1,0.1-0.3,0.3-0.4,0.4c-0.1,0.1-0.3,0.3-0.4,0.4c-0.1,0.1-0.3,0.3-0.4,0.4
			c-0.1,0.1-0.3,0.3-0.4,0.4c-0.1,0.1-0.3,0.3-0.4,0.4c-0.1,0.1-0.3,0.3-0.4,0.4c-0.1,0.1-0.3,0.3-0.4,0.4c-0.1,0.1-0.3,0.3-0.4,0.4
			c-0.1,0.1-0.3,0.3-0.4,0.4c-0.1,0.1-0.3,0.3-0.4,0.4c-0.1,0.1-0.3,0.3-0.4,0.4c-0.1,0.1-0.3,0.3-0.4,0.4c-0.1,0.1-0.3,0.3-0.4,0.4
			c-0.1,0.1-0.3,0.3-0.4,0.4c-0.1,0.1-0.3,0.3-0.4,0.4c-0.1,0.1-0.3,0.3-0.4,0.4c-0.1,0.1-0.3,0.3-0.4,0.4c-0.1,0.1-0.3,0.3-0.4,0.4
			c-0.1,0.1-0.3,0.3-0.4,0.4c-0.1,0.1-0.3,0.3-0.4,0.4c-0.1,0.1-0.3,0.3-0.4,0.4c-0.1,0.1-0.3,0.3-0.4,0.4c-0.1,0.1-0.3,0.3-0.4,0.4
			c-0.1,0.1-0.3,0.3-0.4,0.4c-0.1,0.1-0.3,0.3-0.4,0.4c-0.1,0.1-0.3,0.3-0.4,0.4c-0.1,0.1-0.3,0.3-0.4,0.4c-0.1,0.1-0.3,0.3-0.4,0.4
			c-0.1,0.1-0.3,0.3-0.4,0.4c-0.1,0.1-0.3,0.3-0.4,0.4c-0.1,0.1-0.3,0.3-0.4,0.4c-0.1,0.1-0.3,0.3-0.4,0.4c-0.1,0.1-0.3,0.3-0.4,0.4
			c-0.1,0.1-0.3,0.3-0.4,0.4c-0.1,0.1-0.3,0.3-0.4,0.4c-0.1,0.1-0.3,0.3-0.4,0.4c-0.1,0.1-0.3,0.3-0.4,0.4c-0.1,0.1-0.3,0.3-0.4,0.4
			c-0.1,0.1-0.3,0.3-0.4,0.4c-0.1,0.1-0.3,0.3-0.4,0.4c-0.1,0.1-0.3,0.3-0.4,0.4c-0.1,0.1-0.3,0.3-0.4,0.4c-0.1,0.1-0.3,0.3-0.4,0.4
			c-0.1,0.1-0.3,0.3-0.4,0.4c-0.1,0.1-0.3,0.3-0.4,0.4c-0.1,0.1-0.3,0.3-0.4,0.4c-0.1,0.1-0.3,0.3-0.4,0.4c-0.1,0.1-0.3,0.3-0.4,0.4
			c-0.1,0.1-0.3,0.3-0.4,0.4c-0.1,0.1-0.3,0.3-0.4,0.4c-0.1,0.1-0.3,0.3-0.4,0.4c-0.1,0.1-0.3,0.3-0.4,0.4c-0.1,0.1-0.3,0.3-0.4,0.4
			c-0.1,0.1-0.3,0.3-0.4,0.4c-0.1,0.1-0.3,0.3-0.4,0.4c-0.1,0.1-0.3,0.3-0.4,0.4c-0.1,0.1-0.3,0.3-0.4,0.4c-0.1,0.1-0.3,0.3-0.4,0.4
			c-0.1,0.1-0.3,0.3-0.4,0.4s-0.3,0.3-0.4,0.4c-0.1,0.1-0.3,0.3-0.4,0.4c-0.1,0.1-0.3,0.3-0.4,0.4c-0.1,0.1-0.3,0.3-0.4,0.4
			c-0.1,0.1-0.3,0.3-0.4,0.4c-0.1,0.1-0.3,0.3-0.4,0.4c-0.1,0.1-0.3,0.3-0.4,0.4c-0.1,0.1-0.3,0.3-0.4,0.4c-0.1,0.1-0.3,0.3-0.4,0.4
			c-0.1,0.1-0.3,0.3-0.4,0.4c-0.1,0.1-0.3,0.3-0.4,0.4c-0.1,0.1-0.3,0.3-0.4,0.4c-0.1,0.1-0.3,0.3-0.4,0.4c-0.1,0.1-0.3,0.3-0.4,0.4
			c-0.1,0.1-0.3,0.3-0.4,0.4c-0.1,0.1-0.3,0.3-0.4,0.4c-0.1,0.1-0.3,0.3-0.4,0.4c-0.1,0.1-0.3,0.3-0.4,0.4c-0.1,0.1-0.3,0.3-0.4,0.4
			c-0.1,0.1-0.3,0.3-0.4,0.4c-0.1,0.1-0.3,0.3-0.4,0.4c-0.1,0.1-0.3,0.3-0.4,0.4c-0.1,0.1-0.3,0.3-0.4,0.4c-0.1,0.1-0.3,0.3-0.4,0.4
			c-0.1,0.1-0.3,0.3-0.4,0.4c-0.1,0.1-0.3,0.3-0.4,0.4c-0.1,0.1-0.3,0.3-0.4,0.4c-0.1,0.1-0.3,0.3-0.4,0.4c-0.1,0.1-0.3,0.3-0.4,0.4
			c-0.1,0.1-0.3,0.3-0.4,0.4c-0.1,0.1-0.3,0.3-0.4,0.4c-0.1,0.1-0.3,0.3-0.4,0.4c-0.1,0.1-0.3,0.3-0.4,0.4c-0.1,0.1-0.3,0.3-0.4,0.4
			c-0.1,0.1-0.3,0.3-0.4,0.4c-0.1,0.1-0.3,0.3-0.4,0.4c-0.1,0.1-0.3,0.3-0.4,0.4c-0.1,0.1-0.3,0.3-0.4,0.4c-0.1,0.1-0.3,0.3-0.4,0.4
			c-0.1,0.1-0.3,0.3-0.4,0.4c-0.1,0.1-0.3,0.3-0.4,0.4c-0.1,0.1-0.3,0.3-0.4,0.4c-0.1,0.1-0.3,0.3-0.4,0.4c-0.1,0.1-0.3,0.3-0.4,0.4
			c-0.1,0.1-0.3,0.3-0.4,0.4c-0.1,0.1-0.3,0.3-0.4,0.4c-0.1,0.1-0.3,0.3-0.4,0.4c-0.1,0.1-0.3,0.3-0.4,0.4c-0.1,0.1-0.3,0.3-0.4,0.4
			c-0.1,0.1-0.3,0.3-0.4,0.4c-0.1,0.1-0.3,0.3-0.4,0.4c-0.1,0.1-0.3,0.3-0.4,0.4c-0.1,0.1-0.3,0.3-0.4,0.4c-0.1,0.1-0.3,0.3-0.4,0.4
			c-0.1,0.1-0.3,0.3-0.4,0.4c-0.1,0.1-0.3,0.3-0.4,0.4c-0.1,0.1-0.3,0.3-0.4,0.4c-0.1,0.1-0.3,0.3-0.4,0.4c-0.1,0.1-0.3,0.3-0.4,0.4
			c-0.1,0.1-0.3,0.3-0.4,0.4c-0.1,0.1-0.3,0.3-0.4,0.4c-0.1,0.1-0.3,0.3-0.4,0.4c-0.1,0.1-0.3,0.3-0.4,0.4c-0.1,0.1-0.3,0.3-0.4,0.4
			c-0.1,0.1-0.3,0.3-0.4,0.4c-0.1,0.1-0.3,0.3-0.4,0.4c-0.1,0.1-0.3,0.3-0.4,0.4c-0.1,0.1-0.3,0.3-0.4,0.4c-0.1,0.1-0.3,0.3-0.4,0.4
			c-0.1,0.1-0.3,0.3-0.4,0.4c-0.1,0.1-0.3,0.3-0.4,0.4c-0.1,0.1-0.3,0.3-0.4,0.4c-0.1,0.1-0.3,0.3-0.4,0.4c-0.1,0.1-0.3,0.3-0.4,0.4
			c-0.1,0.1-0.3,0.3-0.4,0.4c-0.1,0.1-0.3,0.3-0.4,0.4c-0.1,0.1-0.3,0.3-0.4,0.4c-0.1,0.1-0.3,0.3-0.4,0.4c-0.1,0.1-0.3,0.3-0.4,0.4
			c-0.1,0.1-0.3,0.3-0.4,0.4c-0.1,0.1-0.3,0.3-0.4,0.4c-0.1,0.1-0.3,0.3-0.4,0.4c-0.1,0.1-0.3,0.3-0.4,0.4c-0.1,0.1-0.3,0.3-0.4,0.4
			c-0.1,0.1-0.3,0.3-0.4,0.4c-0.1,0.1-0.3,0.3-0.4,0.4c-0.1,0.1-0.3,0.3-0.4,0.4c-0.1,0.1-0.3,0.3-0.4,0.4c-0.1,0.1-0.3,0.3-0.4,0.4
			c-0.1,0.1-0.3,0.3-0.4,0.4c-0.1,0.1-0.3,0.3-0.4,0.4c-0.1,0.1-0.3,0.3-0.4,0.4c-0.1,0.1-0.3,0.3-0.4,0.4c-0.1,0.1-0.3,0.3-0.4,0.4
			c-0.1,0.1-0.3,0.3-0.4,0.4c-0.1,0.1-0.3,0.3-0.4,0.4s-0.3,0.3-0.4,0.4s-0.3,0.3-0.4,0.4s-0.3,0.3-0.4,0.4s-0.3,0.3-0.4,0.4
			s-0.3,0.3-0.4,0.4s-0.3,0.3-0.4,0.4s-0.3,0.3-0.4,0.4s-0.3,0.3-0.4,0.4s-0.3,0.3-0.4,0.4s-0.3,0.3-0.4,0.4s-0.3,0.3-0.4,0.4
			s-0.3,0.3-0.4,0.4s-0.3,0.3-0.4,0.4s-0.3,0.3-0.4,0.4s-0.3,0.3-0.4,0.4s-0.3,0.3-0.4,0.4s-0.3,0.3-0.4,0.4s-0.3,0.3-0.4,0.4
			s-0.3,0.3-0.4,0.4s-0.3,0.3-0.4,0.4s-0.3,0.3-0.4,0.4s-0.3,0.3-0.4,0.4s-0.3,0.3-0.4,0.4s-0.3,0.3-0.4,0.4s-0.3,0.3-0.4,0.4
			s-0.3,0.3-0.4,0.4s-0.3,0.3-0.4,0.4s-0.3,0.3-0.4,0.4s-0.3,0.3-0.4,0.4s-0.3,0.3-0.4,0.4s-0.3,0.3-0.4,0.4s-0.3,0.3-0.4,0.4
			s-0.3,0.3-0.4,0.4s-0.3,0.3-0.4,0.4s-0.3,0.3-0.4,0.4s-0.3,0.3-0.4,0.4s-0.3,0.3-0.4,0.4s-0.3,0.3-0.4,0.4s-0.3,0.3-0.4,0.4
			s-0.3,0.3-0.4,0.4s-0.3,0.3-0.4,0.4s-0.3,0.3-0.4,0.4s-0.3,0.3-0.4,0.4s-0.3,0.3-0.4,0.4s-0.3,0.3-0.4,0.4s-0.1,0.1-0.2,0.2
			C2.4,315.9,44,357.4,85.4,399z"/>
		<g>
			<g>
				<g>
					<defs>
						<path id="SVGID_2_" d="M180.3,148.9c2.5,5,9,9.7,14.5,10.5l45,6.5c5.5,0.8,6.8,4.6,2.8,8.5l-32.9,31.7c-4,3.9-6.4,11.5-5.5,17
							l7.7,44.8c1,5.5-2.3,7.9-7.2,5.3L164.5,252c-4.9-2.6-13-2.6-17.9,0l-40.2,21.2c-4.9,2.5-8.1,0.2-7.2-5.3l7.7-44.8
							c1-5.5-1.5-13.1-5.5-17l-32.5-31.7c-3.9-3.9-2.7-7.7,2.8-8.5l45-6.5c5.5-0.8,12-5.5,14.5-10.5l20.1-40.8c2.4-5,6.4-5,8.9,0
							L180.3,148.9z"/>
					</defs>
					<clipPath id="SVGID_3_">
						<use xlink:href="#SVGID_2_"  style="overflow:visible;"/>
					</clipPath>
					<g class="st1">
						<polygon class="st2" points="17.4,102.5 290.1,102.5 290.1,276 17,276 						"/>
						<polygon class="st3" points="17.1,257.1 290.1,257.1 290.1,276 17,276 						"/>
						<polygon class="st3" points="17.1,218.1 290.1,218.1 290.1,236.9 17.1,236.9 						"/>
						<polygon class="st3" points="17.2,179.3 290.1,179.3 290.1,197.9 17.2,197.9 						"/>
						<polygon class="st3" points="17.3,140.8 290.1,140.8 290.1,159.3 17.3,159.3 						"/>
						<polygon class="st3" points="17.4,102.5 290.1,102.5 290.1,120.9 17.4,120.9 						"/>
						<rect x="154.5" y="102.5" class="st4" width="135.6" height="95.4"/>
						<g>
							<g>
								<polygon class="st2" points="268.2,120.1 271.8,120.1 268.9,122.2 270,125.6 267.1,123.5 264.3,125.6 265.4,122.2 
									262.5,120.1 266.1,120.1 267.1,116.8 								"/>
								<polygon class="st2" points="245.5,120.1 249,120.1 246.2,122.2 247.3,125.6 244.4,123.5 241.5,125.6 242.6,122.2 
									239.8,120.1 243.3,120.1 244.4,116.8 								"/>
								<polygon class="st2" points="222.7,120.1 226.3,120.1 223.4,122.2 224.5,125.6 221.7,123.5 218.8,125.6 219.9,122.2 
									217,120.1 220.6,120.1 221.7,116.8 								"/>
								<polygon class="st2" points="200,120.1 203.6,120.1 200.7,122.2 201.8,125.6 198.9,123.5 196,125.6 197.1,122.2 
									194.3,120.1 197.8,120.1 198.9,116.8 								"/>
								<polygon class="st2" points="177.3,120.1 180.8,120.1 177.9,122.2 179,125.6 176.2,123.5 173.3,125.6 174.4,122.2 
									171.5,120.1 175.1,120.1 176.2,116.8 								"/>
								<polygon class="st2" points="279.9,110.1 283.4,110.1 280.6,112.2 281.7,115.6 278.8,113.5 275.9,115.6 277,112.2 
									274.1,110.1 277.7,110.1 278.8,106.8 								"/>
								<polygon class="st2" points="257.2,110.1 260.8,110.1 257.9,112.2 259,115.6 256.1,113.5 253.3,115.6 254.4,112.2 
									251.5,110.1 255,110.1 256.1,106.8 								"/>
								<polygon class="st2" points="234.6,110.1 238.2,110.1 235.3,112.2 236.4,115.6 233.5,113.5 230.6,115.6 231.7,112.2 
									228.9,110.1 232.4,110.1 233.5,106.8 								"/>
								<polygon class="st2" points="212,110.1 215.5,110.1 212.6,112.2 213.7,115.6 210.9,113.5 208,115.6 209.1,112.2 
									206.2,110.1 209.8,110.1 210.9,106.8 								"/>
								<polygon class="st2" points="189.3,110.1 192.9,110.1 190,112.2 191.1,115.6 188.2,113.5 185.4,115.6 186.5,112.2 
									183.6,110.1 187.1,110.1 188.2,106.8 								"/>
								<polygon class="st2" points="166.7,110.1 170.2,110.1 167.4,112.2 168.5,115.6 165.6,113.5 162.7,115.6 163.8,112.2 
									160.9,110.1 164.5,110.1 165.6,106.8 								"/>
							</g>
							<g>
								<polygon class="st2" points="268.2,139.2 271.8,139.2 268.9,141.3 270,144.6 267.1,142.5 264.3,144.6 265.4,141.3 
									262.5,139.2 266.1,139.2 267.1,135.8 								"/>
								<polygon class="st2" points="245.5,139.2 249,139.2 246.2,141.3 247.3,144.6 244.4,142.5 241.5,144.6 242.6,141.3 
									239.8,139.2 243.3,139.2 244.4,135.8 								"/>
								<polygon class="st2" points="222.7,139.2 226.3,139.2 223.4,141.3 224.5,144.6 221.7,142.5 218.8,144.6 219.9,141.3 
									217,139.2 220.6,139.2 221.7,135.8 								"/>
								<polygon class="st2" points="200,139.2 203.6,139.2 200.7,141.3 201.8,144.6 198.9,142.5 196,144.6 197.1,141.3 
									194.3,139.2 197.8,139.2 198.9,135.8 								"/>
								<polygon class="st2" points="177.3,139.2 180.8,139.2 177.9,141.3 179,144.6 176.2,142.5 173.3,144.6 174.4,141.3 
									171.5,139.2 175.1,139.2 176.2,135.8 								"/>
								<polygon class="st2" points="279.9,129.2 283.4,129.2 280.6,131.2 281.7,134.6 278.8,132.5 275.9,134.6 277,131.2 
									274.1,129.2 277.7,129.2 278.8,125.8 								"/>
								<polygon class="st2" points="257.2,129.2 260.8,129.2 257.9,131.2 259,134.6 256.1,132.5 253.3,134.6 254.4,131.2 
									251.5,129.2 255,129.2 256.1,125.8 								"/>
								<polygon class="st2" points="234.6,129.2 238.2,129.2 235.3,131.2 236.4,134.6 233.5,132.5 230.6,134.6 231.7,131.2 
									228.9,129.2 232.4,129.2 233.5,125.8 								"/>
								<polygon class="st2" points="212,129.2 215.5,129.2 212.6,131.2 213.7,134.6 210.9,132.5 208,134.6 209.1,131.2 
									206.2,129.2 209.8,129.2 210.9,125.8 								"/>
								<polygon class="st2" points="189.3,129.2 192.9,129.2 190,131.2 191.1,134.6 188.2,132.5 185.4,134.6 186.5,131.2 
									183.6,129.2 187.1,129.2 188.2,125.8 								"/>
								<polygon class="st2" points="166.7,129.2 170.2,129.2 167.4,131.2 168.5,134.6 165.6,132.5 162.7,134.6 163.8,131.2 
									160.9,129.2 164.5,129.2 165.6,125.8 								"/>
							</g>
							<g>
								<polygon class="st2" points="268.2,159.5 271.8,159.5 268.9,161.6 270,165 267.1,162.9 264.3,165 265.4,161.6 262.5,159.5 
									266.1,159.5 267.1,156.2 								"/>
								<polygon class="st2" points="245.5,159.5 249,159.5 246.2,161.6 247.3,165 244.4,162.9 241.5,165 242.6,161.6 239.8,159.5 
									243.3,159.5 244.4,156.2 								"/>
								<polygon class="st2" points="222.7,159.5 226.3,159.5 223.4,161.6 224.5,165 221.7,162.9 218.8,165 219.9,161.6 217,159.5 
									220.6,159.5 221.7,156.2 								"/>
								<polygon class="st2" points="200,159.5 203.6,159.5 200.7,161.6 201.8,165 198.9,162.9 196,165 197.1,161.6 194.3,159.5 
									197.8,159.5 198.9,156.2 								"/>
								<polygon class="st2" points="177.3,159.5 180.8,159.5 177.9,161.6 179,165 176.2,162.9 173.3,165 174.4,161.6 171.5,159.5 
									175.1,159.5 176.2,156.2 								"/>
								<polygon class="st2" points="279.9,149.5 283.4,149.5 280.6,151.6 281.7,155 278.8,152.9 275.9,155 277,151.6 274.1,149.5 
									277.7,149.5 278.8,146.1 								"/>
								<polygon class="st2" points="257.2,149.5 260.8,149.5 257.9,151.6 259,155 256.1,152.9 253.3,155 254.4,151.6 251.5,149.5 
									255,149.5 256.1,146.1 								"/>
								<polygon class="st2" points="234.6,149.5 238.2,149.5 235.3,151.6 236.4,155 233.5,152.9 230.6,155 231.7,151.6 
									228.9,149.5 232.4,149.5 233.5,146.1 								"/>
								<polygon class="st2" points="212,149.5 215.5,149.5 212.6,151.6 213.7,155 210.9,152.9 208,155 209.1,151.6 206.2,149.5 
									209.8,149.5 210.9,146.1 								"/>
								<polygon class="st2" points="189.3,149.5 192.9,149.5 190,151.6 191.1,155 188.2,152.9 185.4,155 186.5,151.6 183.6,149.5 
									187.1,149.5 188.2,146.1 								"/>
								<polygon class="st2" points="166.7,149.5 170.2,149.5 167.4,151.6 168.5,155 165.6,152.9 162.7,155 163.8,151.6 
									160.9,149.5 164.5,149.5 165.6,146.1 								"/>
							</g>
							<g>
								<polygon class="st2" points="268.2,178.6 271.8,178.6 268.9,180.6 270,184 267.1,181.9 264.3,184 265.4,180.6 262.5,178.6 
									266.1,178.6 267.1,175.2 								"/>
								<polygon class="st2" points="245.5,178.6 249,178.6 246.2,180.6 247.3,184 244.4,181.9 241.5,184 242.6,180.6 239.8,178.6 
									243.3,178.6 244.4,175.2 								"/>
								<polygon class="st2" points="222.7,178.6 226.3,178.6 223.4,180.6 224.5,184 221.7,181.9 218.8,184 219.9,180.6 217,178.6 
									220.6,178.6 221.7,175.2 								"/>
								<polygon class="st2" points="200,178.6 203.6,178.6 200.7,180.6 201.8,184 198.9,181.9 196,184 197.1,180.6 194.3,178.6 
									197.8,178.6 198.9,175.2 								"/>
								<polygon class="st2" points="177.3,178.6 180.8,178.6 177.9,180.6 179,184 176.2,181.9 173.3,184 174.4,180.6 171.5,178.6 
									175.1,178.6 176.2,175.2 								"/>
								<polygon class="st2" points="279.9,168.6 283.4,168.6 280.6,170.6 281.7,174 278.8,171.9 275.9,174 277,170.6 274.1,168.6 
									277.7,168.6 278.8,165.2 								"/>
								<polygon class="st2" points="257.2,168.6 260.8,168.6 257.9,170.6 259,174 256.1,171.9 253.3,174 254.4,170.6 251.5,168.6 
									255,168.6 256.1,165.2 								"/>
								<polygon class="st2" points="234.6,168.6 238.2,168.6 235.3,170.6 236.4,174 233.5,171.9 230.6,174 231.7,170.6 
									228.9,168.6 232.4,168.6 233.5,165.2 								"/>
								<polygon class="st2" points="212,168.6 215.5,168.6 212.6,170.6 213.7,174 210.9,171.9 208,174 209.1,170.6 206.2,168.6 
									209.8,168.6 210.9,165.2 								"/>
								<polygon class="st2" points="189.3,168.6 192.9,168.6 190,170.6 191.1,174 188.2,171.9 185.4,174 186.5,170.6 183.6,168.6 
									187.1,168.6 188.2,165.2 								"/>
								<polygon class="st2" points="166.7,168.6 170.2,168.6 167.4,170.6 168.5,174 165.6,171.9 162.7,174 163.8,170.6 
									160.9,168.6 164.5,168.6 165.6,165.2 								"/>
							</g>
							<polygon class="st2" points="279.9,187.8 283.4,187.8 280.6,189.9 281.7,193.3 278.8,191.2 275.9,193.3 277,189.9 
								274.1,187.8 277.7,187.8 278.8,184.4 							"/>
							<polygon class="st2" points="257.2,187.8 260.8,187.8 257.9,189.9 259,193.3 256.1,191.2 253.3,193.3 254.4,189.9 
								251.5,187.8 255,187.8 256.1,184.4 							"/>
							<polygon class="st2" points="234.6,187.8 238.2,187.8 235.3,189.9 236.4,193.3 233.5,191.2 230.6,193.3 231.7,189.9 
								228.9,187.8 232.4,187.8 233.5,184.4 							"/>
							<polygon class="st2" points="212,187.8 215.5,187.8 212.6,189.9 213.7,193.3 210.9,191.2 208,193.3 209.1,189.9 206.2,187.8 
								209.8,187.8 210.9,184.4 							"/>
							<polygon class="st2" points="189.3,187.8 192.9,187.8 190,189.9 191.1,193.3 188.2,191.2 185.4,193.3 186.5,189.9 
								183.6,187.8 187.1,187.8 188.2,184.4 							"/>
							<polygon class="st2" points="166.7,187.8 170.2,187.8 167.4,189.9 168.5,193.3 165.6,191.2 162.7,193.3 163.8,189.9 
								160.9,187.8 164.5,187.8 165.6,184.4 							"/>
						</g>
					</g>
				</g>
			</g>
			<path class="st5" d="M101.6,206.1c4,3.9,6.4,11.5,5.5,17l-7.7,44.8c-1,5.5,2.3,7.9,7.2,5.3l40.2-21.2c2.2-1.2,5.1-1.8,8-1.9
				V104.5c-1.3,0.4-2.5,1.6-3.5,3.6l-20,40.8c-2.5,5-9,9.7-14.5,10.5l-45,6.5c-5.5,0.8-6.8,4.6-2.8,8.5L101.6,206.1z"/>
		</g>
	</g>
</g>
</svg>
