<?xml version="1.0" encoding="utf-8"?>
<!-- Generator: Adobe Illustrator 19.0.1, SVG Export Plug-In . SVG Version: 6.00 Build 0)  -->
<svg version="1.1" id="Layer_1" xmlns="http://www.w3.org/2000/svg" xmlns:xlink="http://www.w3.org/1999/xlink" x="0px" y="0px"
	 viewBox="0 0 213.7 8.5" enable-background="new 0 0 213.7 8.5" xml:space="preserve">
<polygon fill="#FCFCFC" points="1.8,8.5 18.8,2.5 24.4,4.5 29.2,4.5 33,2.5 35.8,5.5 38.2,2.5 45.1,2.5 47.2,0 56.4,4.4 58.2,5.5 
	64.6,2.5 72.2,2.5 74.9,4.4 77.9,5.1 85.9,2.2 91.1,5.5 93.2,5.5 98.6,2.2 102.7,4.4 103.2,1.8 105.2,0.5 112.2,0.5 115.3,4.5 
	117.1,2.1 116.7,0.5 120.2,0.5 128.4,4.5 130.9,2.3 138.7,4.2 138.7,0.5 146.2,2.8 149.8,2 157.6,2.5 160.1,4.5 164.4,1.8 
	171.4,4.5 176.7,2.5 183.4,5.5 192.2,1.5 211.9,6.1 256.2,4.5 275.8,6.4 280.4,8.6 "/>
</svg>
