<?xml version="1.0" encoding="utf-8"?>
<!-- Generator: Adobe Illustrator 19.0.1, SVG Export Plug-In . SVG Version: 6.00 Build 0)  -->
<svg version="1.1" id="Layer_1" xmlns="http://www.w3.org/2000/svg" xmlns:xlink="http://www.w3.org/1999/xlink" x="0px" y="0px"
	 viewBox="0 0 52 5.5" enable-background="new 0 0 52 5.5" xml:space="preserve">
<polygon fill="#EEEEEE" points="90.4,0.5 70.4,2.7 61.4,3.2 57,3.4 47.6,5.3 33.6,3.9 19.6,2.3 10.4,5.6 0.2,3.6 -10.5,3.7 -28.3,2 
	-36.8,0.6 -45.8,2.6 -66.8,0.3 -74.2,0.6 -84.3,1.9 -93.8,1.1 -100.4,-0.7 -111.4,-0.8 "/>
<polygon fill="#EEEEEE" points="51.5,4.6 49.2,5.6 47.6,5.3 44.9,5.6 44.2,3.9 42.5,5.6 39.4,4.5 35.2,5 33.6,3.9 29.2,3.9 
	27.7,3.2 24.2,3.9 22.8,3.2 21.4,5 17,4 13.9,4.4 19.6,2.2 "/>
</svg>
